<?xml version="1.0" encoding="utf-8"?>
<!-- Generator: Adobe Illustrator 23.0.6, SVG Export Plug-In . SVG Version: 6.00 Build 0)  -->
<svg version="1.1" id="Layer_1" xmlns="http://www.w3.org/2000/svg" xmlns:xlink="http://www.w3.org/1999/xlink" x="0px" y="0px"
	 viewBox="0 0 757.2 605.7" style="enable-background:new 0 0 757.2 605.7;" xml:space="preserve">
<style type="text/css">
	.st0{opacity:0.1;fill:#66C1E2;}
	.st1{fill:none;stroke:#047CBC;stroke-width:1.0372;stroke-miterlimit:8;}
	.st2{opacity:0.25;fill:#84C665;}
	.st3{fill:#288942;}
	.st4{fill:#047CBC;}
	.st5{fill:none;stroke:#A5A4A4;stroke-linecap:round;stroke-linejoin:round;stroke-miterlimit:8;}
	.st6{fill:#FFFFFF;}
	.st7{fill:#664FA1;}
	.st8{fill:#D76727;}
	.st9{fill:url(#Orange_Gradient_1_);}
	.st10{fill:none;stroke:#047DBC;stroke-width:0.9507;stroke-linecap:round;stroke-linejoin:round;}
	.st11{fill:none;stroke:#047DBC;stroke-width:0.9507;stroke-linecap:round;stroke-linejoin:round;stroke-dasharray:3.7866,2.8399;}
	.st12{fill:none;stroke:#047DBC;stroke-width:0.9507;stroke-linecap:round;stroke-linejoin:round;stroke-dasharray:3.7986,2.8489;}
	.st13{fill:none;stroke:#248A43;stroke-miterlimit:8;}
	.st14{fill:none;stroke:#288942;stroke-width:0.9913;stroke-miterlimit:8;}
	.st15{fill:none;stroke:#047CBC;stroke-linecap:round;stroke-linejoin:round;}
	.st16{fill:none;stroke:#555B65;stroke-linecap:round;stroke-linejoin:round;}
	.st17{fill:#555B65;}
	.st18{fill:none;stroke:#288942;stroke-linecap:round;stroke-linejoin:round;}
	.st19{fill:#24303F;}
	.st20{fill:none;stroke:#555B65;stroke-miterlimit:10;}
	.st21{fill:none;stroke:#D76727;stroke-linecap:round;stroke-linejoin:round;stroke-miterlimit:8;stroke-dasharray:4,3;}
	.st22{fill:none;stroke:#000000;stroke-miterlimit:10;}
</style>
<path class="st0" d="M648.6,331H131.1c-1.3,0-2.4,1.1-2.4,2.4v172.6c0,1.3,1.1,2.4,2.4,2.4h517.5c1.3,0,2.4-1.1,2.4-2.4V333.4
	C651.1,332.1,650,331,648.6,331z"/>
<rect x="128.7" y="331.1" class="st1" width="522.3" height="177.8"/>
<path class="st2" d="M648.8,137.7H131c-1.3,0-2.3,1-2.3,2.3v157.7c0,1.3,1,2.3,2.3,2.3h517.7c1.3,0,2.3-1,2.3-2.3V140
	C651.1,138.7,650,137.7,648.8,137.7z"/>
<g>
	<path class="st3" d="M112.9,124.1L112.9,124.1l2.2-5.8h1.1l-2.8,7.1h-0.9l-2.8-7.1h1.1L112.9,124.1z"/>
	<path class="st3" d="M116.9,118.3h2.2c1.5,0,2.5,0.6,2.5,2c0,1.4-1.1,2-2.6,2h-1.1v3.1h-1V118.3z M117.9,121.4h1
		c1,0,1.6-0.3,1.6-1.2c0-0.8-0.7-1.1-1.6-1.1h-1.1V121.4z"/>
	<path class="st3" d="M128.7,124.3c-0.5,0.8-1.5,1.3-2.7,1.3c-2.2,0-3.7-1.5-3.7-3.7c0-2.2,1.6-3.7,3.8-3.7c1,0,2,0.4,2.5,1.1
		l-0.8,0.6c-0.3-0.5-1-0.8-1.8-0.8c-1.6,0-2.7,1.3-2.7,2.8c0,1.6,1,2.8,2.7,2.8c0.8,0,1.5-0.3,1.9-0.9L128.7,124.3z"/>
</g>
<g>
	<path class="st4" d="M152.8,339.3h2.2c1.5,0,2.5,0.6,2.5,2c0,1.4-1.1,2-2.6,2h-1.1v3.1h-1V339.3z M153.8,342.4h1
		c1,0,1.6-0.3,1.6-1.2c0-0.8-0.7-1.1-1.6-1.1h-1.1V342.4z"/>
	<path class="st4" d="M158.5,341.6h0.9c0,0.2,0,0.6,0,0.8h0c0.3-0.5,0.8-0.9,1.4-0.9c0.1,0,0.3,0,0.4,0l0,0.9c-0.1,0-0.3,0-0.4,0
		c-0.9,0-1.3,0.7-1.3,1.5v2.5h-0.9v-3.7C158.5,342.4,158.5,342,158.5,341.6z"/>
	<path class="st4" d="M162.5,340.5c-0.3,0-0.6-0.3-0.6-0.6c0-0.3,0.3-0.6,0.6-0.6c0.3,0,0.6,0.3,0.6,0.6
		C163.1,340.3,162.8,340.5,162.5,340.5z M162.9,346.4H162v-4.7h0.9V346.4z"/>
	<path class="st4" d="M166.7,346.4h-1l-1.9-4.7h1l1.4,3.7h0l1.4-3.7h1L166.7,346.4z"/>
	<path class="st4" d="M172.3,343.3c0-0.7-0.5-1-1.2-1c-0.5,0-1,0.2-1.3,0.5l-0.5-0.6c0.5-0.4,1.2-0.7,1.9-0.7c1.4,0,2,0.8,2,1.9v2.1
		c0,0.3,0,0.7,0.1,0.9h-0.8c0-0.2-0.1-0.5-0.1-0.7h0c-0.3,0.5-0.9,0.8-1.6,0.8c-0.7,0-1.7-0.4-1.7-1.5c0-1.4,1.7-1.6,3.3-1.6V343.3z
		 M172,344.1c-0.9,0-2.1,0.1-2.1,0.9c0,0.6,0.5,0.7,1,0.7c0.9,0,1.4-0.6,1.4-1.4v-0.2H172z"/>
	<path class="st4" d="M176.9,342.4h-1.3v2.5c0,0.6,0.2,0.8,0.7,0.8c0.2,0,0.4,0,0.5-0.1l0,0.8c-0.2,0.1-0.5,0.1-0.8,0.1
		c-0.9,0-1.4-0.5-1.4-1.5v-2.6h-0.9v-0.8h0.9v-1.4h0.9v1.4h1.3V342.4z"/>
	<path class="st4" d="M182.1,344.3h-3.8c0,0.8,0.7,1.4,1.5,1.4c0.6,0,1.1-0.3,1.4-0.7l0.7,0.5c-0.5,0.7-1.2,1-2,1
		c-1.4,0-2.5-1-2.5-2.5c0-1.5,1.1-2.5,2.4-2.5c1.4,0,2.3,0.9,2.3,2.5C182.1,344.1,182.1,344.2,182.1,344.3z M181.2,343.6
		c0-0.8-0.5-1.3-1.3-1.3c-0.8,0-1.4,0.6-1.5,1.3H181.2z"/>
	<path class="st4" d="M188.2,342.8c-0.2-0.3-0.6-0.6-1.1-0.6c-0.4,0-0.9,0.2-0.9,0.6c0,0.4,0.4,0.5,1.1,0.7c0.9,0.2,1.6,0.6,1.6,1.4
		c0,1.1-0.9,1.5-1.9,1.5c-0.7,0-1.5-0.3-1.9-0.8l0.7-0.6c0.2,0.4,0.7,0.7,1.3,0.7c0.5,0,0.9-0.2,0.9-0.7c0-0.4-0.4-0.6-1.2-0.8
		c-0.6-0.2-1.4-0.4-1.4-1.3c0-1,0.9-1.4,1.8-1.4c0.7,0,1.4,0.3,1.7,0.8L188.2,342.8z"/>
	<path class="st4" d="M193.3,346.4c0-0.2,0-0.6,0-0.8h0c-0.2,0.5-0.9,0.9-1.5,0.9c-1.2,0-1.8-0.9-1.8-1.9v-2.9h0.9v2.6
		c0,0.8,0.2,1.5,1.1,1.5c0.7,0,1.3-0.6,1.3-1.6v-2.5h0.9v3.7c0,0.2,0,0.7,0,1H193.3z"/>
	<path class="st4" d="M196.5,345.6v0.7h-0.9v-7.6h0.9v3.5h0c0.3-0.5,0.9-0.8,1.7-0.8c1.4,0,2.4,1.1,2.4,2.5c0,1.4-0.9,2.5-2.4,2.5
		C197.6,346.5,196.9,346.2,196.5,345.6L196.5,345.6z M198.1,342.3c-1,0-1.6,0.8-1.6,1.7c0,0.9,0.6,1.7,1.6,1.7c1,0,1.6-0.8,1.6-1.7
		C199.7,343.1,199.1,342.3,198.1,342.3z"/>
	<path class="st4" d="M202.7,341.6c0,0.2,0,0.6,0,0.8h0c0.2-0.5,0.9-0.9,1.5-0.9c1.2,0,1.8,0.9,1.8,1.9v2.9h-0.9v-2.6
		c0-0.8-0.2-1.4-1.1-1.4c-0.7,0-1.3,0.6-1.3,1.6v2.5h-0.9v-3.7c0-0.2,0-0.7,0-1H202.7z"/>
	<path class="st4" d="M211.9,344.3h-3.8c0,0.8,0.7,1.4,1.5,1.4c0.6,0,1.1-0.3,1.4-0.7l0.7,0.5c-0.5,0.7-1.2,1-2,1
		c-1.4,0-2.5-1-2.5-2.5c0-1.5,1.1-2.5,2.4-2.5c1.4,0,2.3,0.9,2.3,2.5C211.9,344.1,211.9,344.2,211.9,344.3z M211,343.6
		c0-0.8-0.5-1.3-1.3-1.3c-0.8,0-1.4,0.6-1.5,1.3H211z"/>
	<path class="st4" d="M215.4,342.4h-1.3v2.5c0,0.6,0.2,0.8,0.7,0.8c0.2,0,0.4,0,0.5-0.1l0,0.8c-0.2,0.1-0.5,0.1-0.8,0.1
		c-0.9,0-1.4-0.5-1.4-1.5v-2.6h-0.9v-0.8h0.9v-1.4h0.9v1.4h1.3V342.4z"/>
</g>
<g>
	<g>
		<path d="M188.5,463.5h3.7v0.9h-4.7v-7.1h4.5v0.9h-3.5v2.1h3.3v0.8h-3.3V463.5z"/>
		<path d="M193.3,457.3h2.4c1.1,0,2.2,0.4,2.2,1.8c0,0.8-0.5,1.3-1.2,1.5v0c0.9,0.1,1.6,0.7,1.6,1.7c0,1.4-1.2,2-2.7,2h-2.3V457.3z
			 M194.3,460.3h1.3c0.8,0,1.4-0.3,1.4-1.1c0-0.8-0.6-1.1-1.5-1.1h-1.1V460.3z M194.3,463.5h1.2c0.8,0,1.8-0.3,1.8-1.2
			c0-0.8-0.6-1.2-1.7-1.2h-1.3V463.5z"/>
		<path d="M203.1,458.6c-0.3-0.4-0.8-0.7-1.4-0.7c-0.6,0-1.4,0.3-1.4,1.1c0,0.8,0.6,1,1.4,1.2c0.9,0.3,2.1,0.7,2.1,2.1
			c0,1.5-1.2,2.1-2.4,2.1c-0.9,0-1.8-0.3-2.3-1l0.8-0.6c0.3,0.5,0.9,0.8,1.6,0.8c0.7,0,1.4-0.4,1.4-1.2c0-0.9-0.8-1.1-1.7-1.4
			c-0.9-0.3-1.8-0.7-1.8-2c0-1.4,1.3-2,2.4-2c0.8,0,1.6,0.3,2,0.8L203.1,458.6z"/>
		<path d="M211.5,458.2h-2.9l-0.1,1.9c0.3-0.1,0.6-0.1,0.9-0.1c1.4,0,2.4,0.9,2.4,2.2c0,1.5-1.1,2.4-2.5,2.4c-1.1,0-1.9-0.6-2.3-1.4
			l0.9-0.3c0.2,0.6,0.7,0.9,1.4,0.9c0.8,0,1.5-0.6,1.5-1.5c0-1.1-0.8-1.5-1.7-1.5c-0.5,0-1.1,0.2-1.6,0.4l0.1-3.8h3.8V458.2z"/>
		<path d="M217.8,460.8c0,2.1-0.7,3.7-2.4,3.7c-1.7,0-2.4-1.6-2.4-3.7c0-2.1,0.7-3.7,2.4-3.7C217.1,457.1,217.8,458.8,217.8,460.8z
			 M214,460.8c0,1.2,0.3,2.9,1.4,2.9c1.1,0,1.4-1.7,1.4-2.9c0-1.2-0.3-2.9-1.4-2.9C214.2,457.9,214,459.7,214,460.8z"/>
		<path d="M223.6,460.8c0,2.1-0.7,3.7-2.4,3.7c-1.7,0-2.4-1.6-2.4-3.7c0-2.1,0.7-3.7,2.4-3.7C222.9,457.1,223.6,458.8,223.6,460.8z
			 M219.8,460.8c0,1.2,0.3,2.9,1.4,2.9c1.1,0,1.4-1.7,1.4-2.9c0-1.2-0.3-2.9-1.4-2.9C220,457.9,219.8,459.7,219.8,460.8z"/>
		<path d="M232.6,458.8c-0.4-0.5-1.1-0.8-1.9-0.8c-1.7,0-2.7,1.3-2.7,2.8c0,1.6,1,2.8,2.7,2.8c0.7,0,1.2-0.1,1.6-0.4v-2h-1.6v-0.8
			h2.5v3.4c-0.7,0.4-1.6,0.6-2.7,0.6c-2.2,0-3.8-1.5-3.8-3.7c0-2.2,1.6-3.7,3.8-3.7c1.1,0,2,0.4,2.6,0.9L232.6,458.8z"/>
		<path d="M234.9,457.3h2.4c1.1,0,2.2,0.4,2.2,1.8c0,0.8-0.5,1.3-1.2,1.5v0c0.9,0.1,1.6,0.7,1.6,1.7c0,1.4-1.2,2-2.7,2h-2.3V457.3z
			 M235.9,460.3h1.3c0.8,0,1.4-0.3,1.4-1.1c0-0.8-0.6-1.1-1.5-1.1h-1.1V460.3z M235.9,463.5h1.2c0.8,0,1.8-0.3,1.8-1.2
			c0-0.8-0.6-1.2-1.7-1.2h-1.3V463.5z"/>
		<path d="M244,460.9h2.2v0.8H244v2.2h-0.8v-2.2H241v-0.8h2.2v-2.2h0.8V460.9z"/>
		<path d="M196.2,473.8v-4.5h1v4.4c0,1,0.4,2,1.8,2s1.8-1,1.8-2v-4.4h1v4.5c0,1.4-0.9,2.8-2.7,2.8S196.2,475.2,196.2,473.8z"/>
		<path d="M205.8,472.8c-0.2-0.3-0.6-0.6-1.1-0.6c-0.4,0-0.9,0.2-0.9,0.6c0,0.4,0.4,0.5,1.1,0.7c0.9,0.2,1.6,0.6,1.6,1.4
			c0,1.1-0.9,1.5-1.9,1.5c-0.7,0-1.5-0.3-1.9-0.8l0.7-0.6c0.2,0.4,0.7,0.7,1.3,0.7c0.5,0,0.9-0.2,0.9-0.7c0-0.4-0.4-0.6-1.2-0.8
			c-0.6-0.2-1.4-0.4-1.4-1.3c0-1,0.9-1.4,1.8-1.4c0.7,0,1.4,0.3,1.7,0.8L205.8,472.8z"/>
		<path d="M211.9,474.3h-3.8c0,0.8,0.7,1.4,1.5,1.4c0.6,0,1.1-0.3,1.4-0.7l0.7,0.5c-0.5,0.7-1.2,1-2,1c-1.4,0-2.5-1-2.5-2.5
			c0-1.5,1.1-2.5,2.4-2.5c1.4,0,2.3,0.9,2.3,2.5C211.9,474.1,211.9,474.2,211.9,474.3z M211,473.6c0-0.8-0.5-1.3-1.3-1.3
			c-0.8,0-1.4,0.6-1.5,1.3H211z"/>
		<path d="M213,471.6h0.9c0,0.2,0,0.6,0,0.8h0c0.3-0.5,0.8-0.9,1.4-0.9c0.1,0,0.3,0,0.4,0l0,0.9c-0.1,0-0.3,0-0.4,0
			c-0.9,0-1.3,0.7-1.3,1.5v2.5h-0.9v-3.7C213.1,472.4,213.1,472,213,471.6z"/>
		<path d="M221,476.5c-1.5,0-2.4-1.1-2.4-2.5c0-1.4,1-2.5,2.4-2.5c0.8,0,1.4,0.4,1.7,0.8h0v-3.5h0.9v7.6h-0.9v-0.7h0
			C222.3,476.2,221.6,476.5,221,476.5z M221.1,475.7c1,0,1.6-0.8,1.6-1.7c0-0.9-0.6-1.7-1.6-1.7c-1,0-1.6,0.8-1.6,1.7
			C219.6,474.9,220.1,475.7,221.1,475.7z"/>
		<path d="M228.1,473.3c0-0.7-0.5-1-1.2-1c-0.5,0-1,0.2-1.3,0.5l-0.5-0.6c0.5-0.4,1.2-0.7,1.9-0.7c1.4,0,2,0.8,2,1.9v2.1
			c0,0.3,0,0.7,0.1,0.9h-0.8c0-0.2-0.1-0.5-0.1-0.7h0c-0.3,0.5-0.9,0.8-1.6,0.8c-0.7,0-1.7-0.4-1.7-1.5c0-1.4,1.7-1.6,3.3-1.6V473.3
			z M227.8,474.1c-0.9,0-2.1,0.1-2.1,0.9c0,0.6,0.5,0.7,1,0.7c0.9,0,1.4-0.6,1.4-1.4v-0.2H227.8z"/>
		<path d="M232.7,472.4h-1.3v2.5c0,0.6,0.2,0.8,0.7,0.8c0.2,0,0.4,0,0.5-0.1l0,0.8c-0.2,0.1-0.5,0.1-0.8,0.1c-0.9,0-1.4-0.5-1.4-1.5
			v-2.6h-0.9v-0.8h0.9v-1.4h0.9v1.4h1.3V472.4z"/>
		<path d="M236.5,473.3c0-0.7-0.5-1-1.2-1c-0.5,0-1,0.2-1.3,0.5l-0.5-0.6c0.5-0.4,1.2-0.7,1.9-0.7c1.4,0,2,0.8,2,1.9v2.1
			c0,0.3,0,0.7,0.1,0.9h-0.8c0-0.2-0.1-0.5-0.1-0.7h0c-0.3,0.5-0.9,0.8-1.6,0.8c-0.7,0-1.7-0.4-1.7-1.5c0-1.4,1.7-1.6,3.3-1.6V473.3
			z M236.2,474.1c-0.9,0-2.1,0.1-2.1,0.9c0,0.6,0.5,0.7,1,0.7c0.9,0,1.4-0.6,1.4-1.4v-0.2H236.2z"/>
	</g>
</g>
<g>
	<g>
		<path d="M261.6,463.5h3.7v0.9h-4.7v-7.1h4.5v0.9h-3.5v2.1h3.3v0.8h-3.3V463.5z"/>
		<path d="M266.4,457.3h2.4c1.1,0,2.2,0.4,2.2,1.8c0,0.8-0.5,1.3-1.2,1.5v0c0.9,0.1,1.6,0.7,1.6,1.7c0,1.4-1.2,2-2.7,2h-2.3V457.3z
			 M267.4,460.3h1.3c0.8,0,1.4-0.3,1.4-1.1c0-0.8-0.6-1.1-1.5-1.1h-1.1V460.3z M267.4,463.5h1.2c0.8,0,1.8-0.3,1.8-1.2
			c0-0.8-0.6-1.2-1.7-1.2h-1.3V463.5z"/>
		<path d="M276.2,458.6c-0.3-0.4-0.8-0.7-1.4-0.7c-0.6,0-1.4,0.3-1.4,1.1c0,0.8,0.6,1,1.4,1.2c0.9,0.3,2.1,0.7,2.1,2.1
			c0,1.5-1.2,2.1-2.4,2.1c-0.9,0-1.8-0.3-2.3-1l0.8-0.6c0.3,0.5,0.9,0.8,1.6,0.8c0.7,0,1.4-0.4,1.4-1.2c0-0.9-0.8-1.1-1.7-1.4
			c-0.9-0.3-1.8-0.7-1.8-2c0-1.4,1.3-2,2.4-2c0.8,0,1.6,0.3,2,0.8L276.2,458.6z"/>
		<path d="M284.6,458.2h-2.9l-0.1,1.9c0.3-0.1,0.6-0.1,0.9-0.1c1.4,0,2.4,0.9,2.4,2.2c0,1.5-1.1,2.4-2.5,2.4c-1.1,0-1.9-0.6-2.3-1.4
			l0.9-0.3c0.2,0.6,0.7,0.9,1.4,0.9c0.8,0,1.5-0.6,1.5-1.5c0-1.1-0.8-1.5-1.7-1.5c-0.5,0-1.1,0.2-1.6,0.4l0.1-3.8h3.8V458.2z"/>
		<path d="M290.9,460.8c0,2.1-0.7,3.7-2.4,3.7c-1.7,0-2.4-1.6-2.4-3.7c0-2.1,0.7-3.7,2.4-3.7C290.2,457.1,290.9,458.8,290.9,460.8z
			 M287.1,460.8c0,1.2,0.3,2.9,1.4,2.9c1.1,0,1.4-1.7,1.4-2.9c0-1.2-0.3-2.9-1.4-2.9C287.4,457.9,287.1,459.7,287.1,460.8z"/>
		<path d="M299.9,458.8c-0.4-0.5-1.1-0.8-1.9-0.8c-1.7,0-2.7,1.3-2.7,2.8c0,1.6,1,2.8,2.7,2.8c0.7,0,1.2-0.1,1.6-0.4v-2h-1.6v-0.8
			h2.5v3.4c-0.7,0.4-1.6,0.6-2.7,0.6c-2.2,0-3.8-1.5-3.8-3.7c0-2.2,1.6-3.7,3.8-3.7c1.1,0,2,0.4,2.6,0.9L299.9,458.8z"/>
		<path d="M302.2,457.3h2.4c1.1,0,2.2,0.4,2.2,1.8c0,0.8-0.5,1.3-1.2,1.5v0c0.9,0.1,1.6,0.7,1.6,1.7c0,1.4-1.2,2-2.7,2h-2.3V457.3z
			 M303.2,460.3h1.3c0.8,0,1.4-0.3,1.4-1.1c0-0.8-0.6-1.1-1.5-1.1h-1.1V460.3z M303.2,463.5h1.2c0.8,0,1.8-0.3,1.8-1.2
			c0-0.8-0.6-1.2-1.7-1.2h-1.3V463.5z"/>
		<path d="M261.5,476.4h-1v-7.1h1V476.4z"/>
		<path d="M263.8,471.6c0,0.2,0,0.6,0,0.8h0c0.2-0.5,0.9-0.9,1.5-0.9c1.2,0,1.8,0.9,1.8,1.9v2.9h-0.9v-2.6c0-0.8-0.2-1.4-1.1-1.4
			c-0.7,0-1.3,0.6-1.3,1.6v2.5H263v-3.7c0-0.2,0-0.7,0-1H263.8z"/>
		<path d="M271.2,472.8c-0.2-0.3-0.6-0.6-1.1-0.6c-0.4,0-0.9,0.2-0.9,0.6c0,0.4,0.4,0.5,1.1,0.7c0.9,0.2,1.6,0.6,1.6,1.4
			c0,1.1-0.9,1.5-1.9,1.5c-0.7,0-1.5-0.3-1.9-0.8l0.7-0.6c0.2,0.4,0.7,0.7,1.3,0.7c0.5,0,0.9-0.2,0.9-0.7c0-0.4-0.4-0.6-1.2-0.8
			c-0.6-0.2-1.4-0.4-1.4-1.3c0-1,0.9-1.4,1.8-1.4c0.7,0,1.4,0.3,1.7,0.8L271.2,472.8z"/>
		<path d="M275.3,472.4H274v2.5c0,0.6,0.2,0.8,0.7,0.8c0.2,0,0.4,0,0.5-0.1l0,0.8c-0.2,0.1-0.5,0.1-0.8,0.1c-0.9,0-1.4-0.5-1.4-1.5
			v-2.6h-0.9v-0.8h0.9v-1.4h0.9v1.4h1.3V472.4z"/>
		<path d="M279,473.3c0-0.7-0.5-1-1.2-1c-0.5,0-1,0.2-1.3,0.5l-0.5-0.6c0.5-0.4,1.2-0.7,1.9-0.7c1.4,0,2,0.8,2,1.9v2.1
			c0,0.3,0,0.7,0.1,0.9h-0.8c0-0.2-0.1-0.5-0.1-0.7h0c-0.3,0.5-0.9,0.8-1.6,0.8c-0.7,0-1.7-0.4-1.7-1.5c0-1.4,1.7-1.6,3.3-1.6V473.3
			z M278.8,474.1c-0.9,0-2.1,0.1-2.1,0.9c0,0.6,0.5,0.7,1,0.7c0.9,0,1.4-0.6,1.4-1.4v-0.2H278.8z"/>
		<path d="M282.3,476.4h-0.9v-7.6h0.9V476.4z"/>
		<path d="M284.8,476.4h-0.9v-7.6h0.9V476.4z"/>
		<path d="M290.7,476.5c-1.5,0-2.4-1.1-2.4-2.5c0-1.4,1-2.5,2.4-2.5c0.8,0,1.4,0.4,1.7,0.8h0v-3.5h0.9v7.6h-0.9v-0.7h0
			C292,476.2,291.4,476.5,290.7,476.5z M290.8,475.7c1,0,1.6-0.8,1.6-1.7c0-0.9-0.6-1.7-1.6-1.7c-1,0-1.6,0.8-1.6,1.7
			C289.3,474.9,289.8,475.7,290.8,475.7z"/>
		<path d="M297.8,473.3c0-0.7-0.5-1-1.2-1c-0.5,0-1,0.2-1.3,0.5l-0.5-0.6c0.5-0.4,1.2-0.7,1.9-0.7c1.4,0,2,0.8,2,1.9v2.1
			c0,0.3,0,0.7,0.1,0.9h-0.8c0-0.2-0.1-0.5-0.1-0.7h0c-0.3,0.5-0.9,0.8-1.6,0.8c-0.7,0-1.7-0.4-1.7-1.5c0-1.4,1.7-1.6,3.3-1.6V473.3
			z M297.5,474.1c-0.9,0-2.1,0.1-2.1,0.9c0,0.6,0.5,0.7,1,0.7c0.9,0,1.4-0.6,1.4-1.4v-0.2H297.5z"/>
		<path d="M302.4,472.4h-1.3v2.5c0,0.6,0.2,0.8,0.7,0.8c0.2,0,0.4,0,0.5-0.1l0,0.8c-0.2,0.1-0.5,0.1-0.8,0.1c-0.9,0-1.4-0.5-1.4-1.5
			v-2.6h-0.9v-0.8h0.9v-1.4h0.9v1.4h1.3V472.4z"/>
		<path d="M306.2,473.3c0-0.7-0.5-1-1.2-1c-0.5,0-1,0.2-1.3,0.5l-0.5-0.6c0.5-0.4,1.2-0.7,1.9-0.7c1.4,0,2,0.8,2,1.9v2.1
			c0,0.3,0,0.7,0.1,0.9h-0.8c0-0.2-0.1-0.5-0.1-0.7h0c-0.3,0.5-0.9,0.8-1.6,0.8c-0.7,0-1.7-0.4-1.7-1.5c0-1.4,1.7-1.6,3.3-1.6V473.3
			z M305.9,474.1c-0.9,0-2.1,0.1-2.1,0.9c0,0.6,0.5,0.7,1,0.7c0.9,0,1.4-0.6,1.4-1.4v-0.2H305.9z"/>
	</g>
</g>
<g>
	<path d="M476.8,369.5L476.8,369.5l2.2-5.8h1.1l-2.8,7.1h-0.9l-2.8-7.1h1.1L476.8,369.5z"/>
	<path d="M481.2,365c-0.3,0-0.6-0.3-0.6-0.6c0-0.3,0.3-0.6,0.6-0.6s0.6,0.3,0.6,0.6C481.8,364.7,481.5,365,481.2,365z M481.7,370.8
		h-0.9v-4.7h0.9V370.8z"/>
	<path d="M485,369.8L485,369.8l1.3-3.7h1l-2.3,5.9c-0.3,0.8-0.7,1.3-1.6,1.3c-0.2,0-0.4,0-0.6-0.1l0.1-0.8c0.2,0.1,0.3,0.1,0.5,0.1
		c0.5,0,0.7-0.3,0.9-0.8l0.3-0.8l-2-4.7h1L485,369.8z"/>
	<path d="M491,367.7c0-0.7-0.5-1-1.2-1c-0.5,0-1,0.2-1.3,0.5l-0.5-0.6c0.5-0.4,1.2-0.7,1.9-0.7c1.4,0,2,0.8,2,1.9v2.1
		c0,0.3,0,0.7,0.1,0.9h-0.8c0-0.2-0.1-0.5-0.1-0.7h0c-0.3,0.5-0.9,0.8-1.6,0.8c-0.7,0-1.7-0.4-1.7-1.5c0-1.4,1.7-1.6,3.3-1.6V367.7z
		 M490.8,368.6c-0.9,0-2.1,0.1-2.1,0.9c0,0.6,0.5,0.7,1,0.7c0.9,0,1.4-0.6,1.4-1.4v-0.2H490.8z"/>
	<path d="M498.2,367.3c-0.2-0.3-0.6-0.6-1.1-0.6c-0.4,0-0.9,0.2-0.9,0.6c0,0.4,0.4,0.5,1.1,0.7c0.9,0.2,1.6,0.6,1.6,1.4
		c0,1.1-0.9,1.5-1.9,1.5c-0.7,0-1.5-0.3-1.9-0.8l0.7-0.6c0.2,0.4,0.7,0.7,1.3,0.7c0.5,0,0.9-0.2,0.9-0.7c0-0.4-0.4-0.6-1.2-0.8
		c-0.6-0.2-1.4-0.4-1.4-1.3c0-1,0.9-1.4,1.8-1.4c0.7,0,1.4,0.3,1.7,0.8L498.2,367.3z"/>
	<path d="M504.4,368.7h-3.8c0,0.8,0.7,1.4,1.5,1.4c0.6,0,1.1-0.3,1.4-0.7l0.7,0.5c-0.5,0.7-1.2,1-2,1c-1.4,0-2.5-1-2.5-2.5
		c0-1.5,1.1-2.5,2.4-2.5c1.4,0,2.3,0.9,2.3,2.5C504.4,368.5,504.4,368.6,504.4,368.7z M503.4,368c0-0.8-0.5-1.3-1.3-1.3
		c-0.8,0-1.4,0.6-1.5,1.3H503.4z"/>
	<path d="M505.5,366.1h0.9c0,0.2,0,0.6,0,0.8h0c0.3-0.5,0.8-0.9,1.4-0.9c0.1,0,0.3,0,0.4,0l0,0.9c-0.1,0-0.3,0-0.4,0
		c-0.9,0-1.3,0.7-1.3,1.5v2.5h-0.9v-3.7C505.5,366.8,505.5,366.4,505.5,366.1z"/>
	<path d="M511.2,370.8h-1l-1.9-4.7h1l1.4,3.7h0l1.4-3.7h1L511.2,370.8z"/>
	<path d="M514.4,365c-0.3,0-0.6-0.3-0.6-0.6c0-0.3,0.3-0.6,0.6-0.6s0.6,0.3,0.6,0.6C515,364.7,514.7,365,514.4,365z M514.9,370.8
		h-0.9v-4.7h0.9V370.8z"/>
	<path d="M519.7,367.3c-0.2-0.3-0.6-0.5-1.1-0.5c-1,0-1.5,0.8-1.5,1.7c0,0.9,0.6,1.7,1.6,1.7c0.5,0,0.9-0.2,1.1-0.5l0.6,0.6
		c-0.4,0.5-1,0.7-1.8,0.7c-1.5,0-2.5-1-2.5-2.5c0-1.5,1.1-2.5,2.5-2.5c0.7,0,1.4,0.3,1.8,0.8L519.7,367.3z"/>
	<path d="M525.5,368.7h-3.8c0,0.8,0.7,1.4,1.5,1.4c0.6,0,1.1-0.3,1.4-0.7l0.7,0.5c-0.5,0.7-1.2,1-2,1c-1.4,0-2.5-1-2.5-2.5
		c0-1.5,1.1-2.5,2.4-2.5c1.4,0,2.3,0.9,2.3,2.5C525.5,368.5,525.5,368.6,525.5,368.7z M524.6,368c0-0.8-0.5-1.3-1.3-1.3
		c-0.8,0-1.4,0.6-1.5,1.3H524.6z"/>
	<path d="M529.3,367.3c-0.2-0.3-0.6-0.6-1.1-0.6c-0.4,0-0.9,0.2-0.9,0.6c0,0.4,0.4,0.5,1.1,0.7c0.9,0.2,1.6,0.6,1.6,1.4
		c0,1.1-0.9,1.5-1.9,1.5c-0.7,0-1.5-0.3-1.9-0.8l0.7-0.6c0.2,0.4,0.7,0.7,1.3,0.7c0.5,0,0.9-0.2,0.9-0.7c0-0.4-0.4-0.6-1.2-0.8
		c-0.6-0.2-1.4-0.4-1.4-1.3c0-1,0.9-1.4,1.8-1.4c0.7,0,1.4,0.3,1.7,0.8L529.3,367.3z"/>
</g>
<g>
	<path d="M214.2,369.7c-0.5,0.8-1.5,1.3-2.7,1.3c-2.2,0-3.7-1.5-3.7-3.7c0-2.2,1.6-3.7,3.8-3.7c1,0,2,0.4,2.5,1.1l-0.8,0.6
		c-0.3-0.5-1-0.8-1.8-0.8c-1.6,0-2.7,1.3-2.7,2.8c0,1.6,1,2.8,2.7,2.8c0.8,0,1.5-0.3,1.9-0.9L214.2,369.7z"/>
	<path d="M215.4,370.8h-1.1l3.1-7.1h0.9l3,7.1h-1.1l-0.7-1.7h-3.4L215.4,370.8z M216.4,368.2h2.6l-1.3-3.3L216.4,368.2z"/>
	<path d="M225.5,365c-0.3-0.4-0.8-0.7-1.4-0.7c-0.6,0-1.4,0.3-1.4,1.1c0,0.8,0.6,1,1.4,1.2c0.9,0.3,2.1,0.7,2.1,2.1
		c0,1.5-1.2,2.1-2.4,2.1c-0.9,0-1.8-0.3-2.3-1l0.8-0.6c0.3,0.5,0.9,0.8,1.6,0.8c0.7,0,1.4-0.4,1.4-1.2c0-0.9-0.8-1.1-1.7-1.4
		c-0.9-0.3-1.8-0.7-1.8-2c0-1.4,1.3-2,2.4-2c0.8,0,1.6,0.3,2,0.8L225.5,365z"/>
	<path d="M233.2,367.3c-0.2-0.3-0.6-0.5-1.1-0.5c-1,0-1.5,0.8-1.5,1.7c0,0.9,0.6,1.7,1.6,1.7c0.5,0,0.9-0.2,1.1-0.5l0.6,0.6
		c-0.4,0.5-1,0.7-1.8,0.7c-1.5,0-2.5-1-2.5-2.5c0-1.5,1.1-2.5,2.5-2.5c0.7,0,1.4,0.3,1.8,0.8L233.2,367.3z"/>
	<path d="M236.9,370.9c-1.4,0-2.5-1-2.5-2.5c0-1.5,1.1-2.5,2.5-2.5s2.6,1,2.6,2.5C239.5,369.9,238.3,370.9,236.9,370.9z
		 M236.9,366.7c-1,0-1.6,0.8-1.6,1.7c0,0.9,0.6,1.7,1.6,1.7c1,0,1.6-0.8,1.6-1.7C238.5,367.5,237.9,366.7,236.9,366.7z"/>
	<path d="M241.5,366.1c0,0.2,0,0.6,0,0.8h0c0.2-0.5,0.9-0.9,1.5-0.9c1.2,0,1.8,0.9,1.8,1.9v2.9h-0.9v-2.6c0-0.8-0.2-1.4-1.1-1.4
		c-0.7,0-1.3,0.6-1.3,1.6v2.5h-0.9v-3.7c0-0.2,0-0.7,0-1H241.5z"/>
	<path d="M248.6,366.8h-1.3v2.5c0,0.6,0.2,0.8,0.7,0.8c0.2,0,0.4,0,0.5-0.1l0,0.8c-0.2,0.1-0.5,0.1-0.8,0.1c-0.9,0-1.4-0.5-1.4-1.5
		v-2.6h-0.9v-0.8h0.9v-1.4h0.9v1.4h1.3V366.8z"/>
	<path d="M249.4,366.1h0.9c0,0.2,0,0.6,0,0.8h0c0.3-0.5,0.8-0.9,1.4-0.9c0.1,0,0.3,0,0.4,0l0,0.9c-0.1,0-0.3,0-0.4,0
		c-0.9,0-1.3,0.7-1.3,1.5v2.5h-0.9v-3.7C249.4,366.8,249.4,366.4,249.4,366.1z"/>
	<path d="M255.1,370.9c-1.4,0-2.5-1-2.5-2.5c0-1.5,1.1-2.5,2.5-2.5s2.6,1,2.6,2.5C257.7,369.9,256.6,370.9,255.1,370.9z
		 M255.1,366.7c-1,0-1.6,0.8-1.6,1.7c0,0.9,0.6,1.7,1.6,1.7c1,0,1.6-0.8,1.6-1.7C256.7,367.5,256.1,366.7,255.1,366.7z"/>
	<path d="M259.8,370.8h-0.9v-7.6h0.9V370.8z"/>
	<path d="M262.2,370.8h-0.9v-7.6h0.9V370.8z"/>
	<path d="M268.1,368.7h-3.8c0,0.8,0.7,1.4,1.5,1.4c0.6,0,1.1-0.3,1.4-0.7l0.7,0.5c-0.5,0.7-1.2,1-2,1c-1.4,0-2.5-1-2.5-2.5
		c0-1.5,1.1-2.5,2.4-2.5c1.4,0,2.3,0.9,2.3,2.5C268.2,368.5,268.2,368.6,268.1,368.7z M267.2,368c0-0.8-0.5-1.3-1.3-1.3
		c-0.8,0-1.4,0.6-1.5,1.3H267.2z"/>
	<path d="M269.3,366.1h0.9c0,0.2,0,0.6,0,0.8h0c0.3-0.5,0.8-0.9,1.4-0.9c0.1,0,0.3,0,0.4,0l0,0.9c-0.1,0-0.3,0-0.4,0
		c-0.9,0-1.3,0.7-1.3,1.5v2.5h-0.9v-3.7C269.3,366.8,269.3,366.4,269.3,366.1z"/>
</g>
<g>
	<path d="M476.2,392.1h0.9c0,0.2,0,0.6,0,0.8h0c0.3-0.5,0.8-0.9,1.4-0.9c0.1,0,0.3,0,0.4,0l0,0.9c-0.1,0-0.3,0-0.4,0
		c-0.9,0-1.3,0.7-1.3,1.5v2.5h-0.9v-3.7C476.2,392.8,476.2,392.4,476.2,392.1z"/>
	<path d="M483.8,390.6h-2.9l-0.1,1.9c0.3-0.1,0.6-0.1,0.9-0.1c1.4,0,2.4,0.9,2.4,2.2c0,1.5-1.1,2.4-2.5,2.4c-1.1,0-1.9-0.6-2.3-1.4
		l0.9-0.3c0.2,0.6,0.8,0.9,1.4,0.9c0.8,0,1.5-0.6,1.5-1.5c0-1.1-0.8-1.5-1.7-1.5c-0.5,0-1.1,0.2-1.6,0.4l0.1-3.8h3.8V390.6z"/>
	<path d="M486,396.9c-0.4,0-0.7-0.3-0.7-0.7c0-0.4,0.3-0.7,0.7-0.7s0.7,0.3,0.7,0.6C486.7,396.6,486.4,396.9,486,396.9z"/>
	<path d="M491.6,394.4h1v0.8h-1v1.6h-0.9v-1.6h-3.3v-0.9l3-4.6h1.2V394.4z M490.7,390.8L490.7,390.8l-2.3,3.5h2.3V390.8z"/>
	<path d="M494.9,394.3l-1.7-2.2h1.2l1.2,1.6l1.2-1.6h1.1l-1.7,2.2l1.9,2.5h-1.2l-1.3-1.8l-1.3,1.8H493L494.9,394.3z"/>
	<path d="M499.7,396.8h-0.9v-7.6h0.9V396.8z"/>
	<path d="M504.1,393.7c0-0.7-0.5-1-1.2-1c-0.5,0-1,0.2-1.3,0.5l-0.5-0.6c0.5-0.4,1.2-0.7,1.9-0.7c1.4,0,2,0.8,2,1.9v2.1
		c0,0.3,0,0.7,0.1,0.9h-0.8c0-0.2-0.1-0.5-0.1-0.7h0c-0.3,0.5-0.9,0.8-1.6,0.8c-0.7,0-1.7-0.4-1.7-1.5c0-1.4,1.7-1.6,3.3-1.6V393.7z
		 M503.9,394.6c-0.9,0-2.1,0.1-2.1,0.9c0,0.6,0.5,0.7,1,0.7c0.9,0,1.4-0.6,1.4-1.4v-0.2H503.9z"/>
	<path d="M506.4,392.1h0.9c0,0.2,0,0.6,0,0.8h0c0.3-0.5,0.8-0.9,1.4-0.9c0.1,0,0.3,0,0.4,0l0,0.9c-0.1,0-0.3,0-0.4,0
		c-0.9,0-1.3,0.7-1.3,1.5v2.5h-0.9v-3.7C506.4,392.8,506.4,392.4,506.4,392.1z"/>
	<path d="M510.3,397.6c0.4,0.5,1.1,0.8,1.7,0.8c1.2,0,1.7-0.8,1.7-1.7V396h0c-0.4,0.5-1,0.8-1.7,0.8c-1.4,0-2.4-1.1-2.4-2.4
		s0.9-2.5,2.4-2.5c0.7,0,1.3,0.3,1.7,0.9h0v-0.8h0.9v4.5c0,1.4-0.6,2.6-2.6,2.6c-0.8,0-1.7-0.3-2.3-0.9L510.3,397.6z M512.1,396.1
		c1,0,1.6-0.7,1.6-1.7c0-0.9-0.7-1.7-1.6-1.7c-1,0-1.6,0.8-1.6,1.7C510.6,395.3,511.1,396.1,512.1,396.1z"/>
	<path d="M520.5,394.7h-3.8c0,0.8,0.7,1.4,1.5,1.4c0.6,0,1.1-0.3,1.4-0.7l0.7,0.5c-0.5,0.7-1.2,1-2,1c-1.4,0-2.5-1-2.5-2.5
		c0-1.5,1.1-2.5,2.4-2.5c1.4,0,2.3,0.9,2.3,2.5C520.5,394.5,520.5,394.6,520.5,394.7z M519.5,394c0-0.8-0.5-1.3-1.3-1.3
		c-0.8,0-1.4,0.6-1.5,1.3H519.5z"/>
</g>
<g>
	<path d="M208.3,391c-0.3,0-0.6-0.3-0.6-0.6c0-0.3,0.3-0.6,0.6-0.6c0.3,0,0.6,0.3,0.6,0.6C209,390.7,208.7,391,208.3,391z
		 M208.8,396.8h-0.9v-4.7h0.9V396.8z"/>
	<path d="M211.6,392.7h0.3c0.8,0,1.6-0.3,1.6-1.2c0-0.7-0.6-1.2-1.2-1.2c-0.6,0-1,0.3-1.2,0.9l-0.9-0.3c0.4-0.8,1.2-1.4,2.2-1.4
		c1.2,0,2.2,0.7,2.2,1.9c0,0.8-0.5,1.4-1.2,1.6v0c0.8,0.2,1.4,0.8,1.4,1.7c0,1.4-1.2,2.2-2.4,2.2c-1.1,0-2-0.5-2.4-1.6l0.9-0.3
		c0.2,0.6,0.7,1,1.5,1c0.7,0,1.4-0.4,1.4-1.3c0-1-0.9-1.3-1.8-1.3h-0.3V392.7z"/>
	<path d="M216.6,396.9c-0.4,0-0.7-0.3-0.7-0.7c0-0.4,0.3-0.7,0.7-0.7s0.7,0.3,0.7,0.6C217.3,396.6,217,396.9,216.6,396.9z"/>
	<path d="M222.2,394.4h1v0.8h-1v1.6h-0.9v-1.6h-3.3v-0.9l3-4.6h1.2V394.4z M221.3,390.8L221.3,390.8l-2.3,3.5h2.3V390.8z"/>
	<path d="M225.5,394.3l-1.7-2.2h1.2l1.2,1.6l1.2-1.6h1.1l-1.7,2.2l1.9,2.5h-1.2l-1.3-1.8l-1.3,1.8h-1.1L225.5,394.3z"/>
	<path d="M230.3,396.8h-0.9v-7.6h0.9V396.8z"/>
	<path d="M234.7,393.7c0-0.7-0.5-1-1.2-1c-0.5,0-1,0.2-1.3,0.5l-0.5-0.6c0.5-0.4,1.2-0.7,1.9-0.7c1.4,0,2,0.8,2,1.9v2.1
		c0,0.3,0,0.7,0.1,0.9h-0.8c0-0.2-0.1-0.5-0.1-0.7h0c-0.3,0.5-0.9,0.8-1.6,0.8c-0.7,0-1.7-0.4-1.7-1.5c0-1.4,1.7-1.6,3.3-1.6V393.7z
		 M234.5,394.6c-0.9,0-2.1,0.1-2.1,0.9c0,0.6,0.5,0.7,1,0.7c0.9,0,1.4-0.6,1.4-1.4v-0.2H234.5z"/>
	<path d="M237,392.1h0.9c0,0.2,0,0.6,0,0.8h0c0.3-0.5,0.8-0.9,1.4-0.9c0.1,0,0.3,0,0.4,0l0,0.9c-0.1,0-0.3,0-0.4,0
		c-0.9,0-1.3,0.7-1.3,1.5v2.5H237v-3.7C237,392.8,237,392.4,237,392.1z"/>
	<path d="M240.9,397.6c0.4,0.5,1.1,0.8,1.7,0.8c1.2,0,1.7-0.8,1.7-1.7V396h0c-0.4,0.5-1,0.8-1.7,0.8c-1.4,0-2.4-1.1-2.4-2.4
		s0.9-2.5,2.4-2.5c0.7,0,1.3,0.3,1.7,0.9h0v-0.8h0.9v4.5c0,1.4-0.6,2.6-2.6,2.6c-0.8,0-1.7-0.3-2.3-0.9L240.9,397.6z M242.7,396.1
		c1,0,1.6-0.7,1.6-1.7c0-0.9-0.6-1.7-1.6-1.7c-1,0-1.6,0.8-1.6,1.7C241.2,395.3,241.7,396.1,242.7,396.1z"/>
	<path d="M251.1,394.7h-3.8c0,0.8,0.7,1.4,1.5,1.4c0.6,0,1.1-0.3,1.4-0.7l0.7,0.5c-0.5,0.7-1.2,1-2,1c-1.4,0-2.5-1-2.5-2.5
		c0-1.5,1.1-2.5,2.4-2.5c1.4,0,2.3,0.9,2.3,2.5C251.1,394.5,251.1,394.6,251.1,394.7z M250.1,394c0-0.8-0.5-1.3-1.3-1.3
		c-0.8,0-1.4,0.6-1.5,1.3H250.1z"/>
</g>
<g>
	<path d="M545.7,452.4h3.7v0.9h-4.7v-7.1h4.5v0.9h-3.5v2.1h3.3v0.8h-3.3V452.4z"/>
	<path d="M550.6,446.2h2.4c1.1,0,2.2,0.4,2.2,1.8c0,0.8-0.5,1.3-1.2,1.5v0c0.9,0.1,1.6,0.7,1.6,1.7c0,1.4-1.2,2-2.7,2h-2.3V446.2z
		 M551.6,449.2h1.3c0.8,0,1.4-0.3,1.4-1.1c0-0.8-0.6-1.1-1.5-1.1h-1.1V449.2z M551.6,452.4h1.2c0.8,0,1.8-0.3,1.8-1.2
		c0-0.8-0.6-1.2-1.7-1.2h-1.3V452.4z"/>
	<path d="M560.4,447.5c-0.3-0.4-0.8-0.7-1.4-0.7c-0.6,0-1.4,0.3-1.4,1.1c0,0.8,0.6,1,1.4,1.2c0.9,0.3,2.1,0.7,2.1,2.1
		c0,1.5-1.2,2.1-2.4,2.1c-0.9,0-1.8-0.3-2.3-1l0.8-0.6c0.3,0.5,0.9,0.8,1.6,0.8c0.7,0,1.4-0.4,1.4-1.2c0-0.9-0.8-1.1-1.7-1.4
		c-0.9-0.3-1.8-0.7-1.8-2c0-1.4,1.3-2,2.4-2c0.8,0,1.6,0.3,2,0.8L560.4,447.5z"/>
	<path d="M567.7,453.3h-1v-5.9l-1.3,1.1l-0.6-0.7l2-1.6h0.9V453.3z"/>
	<path d="M573.9,449.7c0,2.1-0.7,3.7-2.4,3.7c-1.7,0-2.4-1.6-2.4-3.7c0-2.1,0.7-3.7,2.4-3.7C573.1,446,573.9,447.7,573.9,449.7z
		 M570,449.7c0,1.2,0.3,2.9,1.4,2.9c1.1,0,1.4-1.7,1.4-2.9c0-1.2-0.3-2.9-1.4-2.9C570.3,446.8,570,448.5,570,449.7z"/>
	<path d="M579.7,449.7c0,2.1-0.7,3.7-2.4,3.7c-1.7,0-2.4-1.6-2.4-3.7c0-2.1,0.7-3.7,2.4-3.7C578.9,446,579.7,447.7,579.7,449.7z
		 M575.8,449.7c0,1.2,0.3,2.9,1.4,2.9c1.1,0,1.4-1.7,1.4-2.9c0-1.2-0.3-2.9-1.4-2.9C576.1,446.8,575.8,448.5,575.8,449.7z"/>
	<path d="M588.6,447.6c-0.4-0.5-1.1-0.8-1.9-0.8c-1.7,0-2.7,1.3-2.7,2.8c0,1.6,1,2.8,2.7,2.8c0.7,0,1.2-0.1,1.6-0.4v-2h-1.6v-0.8
		h2.5v3.4c-0.7,0.4-1.6,0.6-2.7,0.6c-2.2,0-3.8-1.5-3.8-3.7c0-2.2,1.6-3.7,3.8-3.7c1.1,0,2,0.4,2.6,0.9L588.6,447.6z"/>
	<path d="M590.9,446.2h2.4c1.1,0,2.2,0.4,2.2,1.8c0,0.8-0.5,1.3-1.2,1.5v0c0.9,0.1,1.6,0.7,1.6,1.7c0,1.4-1.2,2-2.7,2h-2.3V446.2z
		 M591.9,449.2h1.3c0.8,0,1.4-0.3,1.4-1.1c0-0.8-0.6-1.1-1.5-1.1h-1.1V449.2z M591.9,452.4h1.2c0.8,0,1.8-0.3,1.8-1.2
		c0-0.8-0.6-1.2-1.7-1.2h-1.3V452.4z"/>
	<path d="M549.6,462.6v-4.5h1v4.4c0,1,0.4,2,1.8,2c1.3,0,1.8-1,1.8-2v-4.4h1v4.5c0,1.4-0.9,2.8-2.7,2.8S549.6,464.1,549.6,462.6z"/>
	<path d="M559.2,461.7c-0.2-0.3-0.6-0.6-1.1-0.6c-0.4,0-0.9,0.2-0.9,0.6c0,0.4,0.4,0.5,1.1,0.7c0.9,0.2,1.6,0.6,1.6,1.4
		c0,1.1-0.9,1.5-1.9,1.5c-0.7,0-1.5-0.3-1.9-0.8l0.7-0.6c0.2,0.4,0.7,0.7,1.3,0.7c0.5,0,0.9-0.2,0.9-0.7c0-0.4-0.4-0.6-1.2-0.8
		c-0.6-0.2-1.4-0.4-1.4-1.3c0-1,0.9-1.4,1.8-1.4c0.7,0,1.4,0.3,1.7,0.8L559.2,461.7z"/>
	<path d="M565.3,463.2h-3.8c0,0.8,0.7,1.4,1.5,1.4c0.6,0,1.1-0.3,1.4-0.7l0.7,0.5c-0.5,0.7-1.2,1-2,1c-1.4,0-2.5-1-2.5-2.5
		c0-1.5,1.1-2.5,2.4-2.5c1.4,0,2.3,0.9,2.3,2.5C565.3,462.9,565.3,463.1,565.3,463.2z M564.4,462.5c0-0.8-0.5-1.3-1.3-1.3
		c-0.8,0-1.4,0.6-1.5,1.3H564.4z"/>
	<path d="M566.4,460.5h0.9c0,0.2,0,0.6,0,0.8h0c0.3-0.5,0.8-0.9,1.4-0.9c0.1,0,0.3,0,0.4,0l0,0.9c-0.1,0-0.3,0-0.4,0
		c-0.9,0-1.3,0.7-1.3,1.5v2.5h-0.9v-3.7C566.5,461.3,566.5,460.8,566.4,460.5z"/>
	<path d="M574.4,465.4c-1.5,0-2.4-1.1-2.4-2.5c0-1.4,1-2.5,2.4-2.5c0.8,0,1.4,0.4,1.7,0.8h0v-3.5h0.9v7.6h-0.9v-0.7h0
		C575.7,465.1,575,465.4,574.4,465.4z M574.5,464.6c1,0,1.6-0.8,1.6-1.7c0-0.9-0.6-1.7-1.6-1.7c-1,0-1.6,0.8-1.6,1.7
		C573,463.8,573.5,464.6,574.5,464.6z"/>
	<path d="M581.4,462.2c0-0.7-0.5-1-1.2-1c-0.5,0-1,0.2-1.3,0.5l-0.5-0.6c0.5-0.4,1.2-0.7,1.9-0.7c1.4,0,2,0.8,2,1.9v2.1
		c0,0.3,0,0.7,0.1,0.9h-0.8c0-0.2-0.1-0.5-0.1-0.7h0c-0.3,0.5-0.9,0.8-1.6,0.8c-0.7,0-1.7-0.4-1.7-1.5c0-1.4,1.7-1.6,3.3-1.6V462.2z
		 M581.2,463c-0.9,0-2.1,0.1-2.1,0.9c0,0.6,0.5,0.7,1,0.7c0.9,0,1.4-0.6,1.4-1.4V463H581.2z"/>
	<path d="M586.1,461.3h-1.3v2.5c0,0.6,0.2,0.8,0.7,0.8c0.2,0,0.4,0,0.5-0.1l0,0.8c-0.2,0.1-0.5,0.1-0.8,0.1c-0.9,0-1.4-0.5-1.4-1.5
		v-2.6H583v-0.8h0.9v-1.4h0.9v1.4h1.3V461.3z"/>
	<path d="M589.9,462.2c0-0.7-0.5-1-1.2-1c-0.5,0-1,0.2-1.3,0.5l-0.5-0.6c0.5-0.4,1.2-0.7,1.9-0.7c1.4,0,2,0.8,2,1.9v2.1
		c0,0.3,0,0.7,0.1,0.9H590c0-0.2-0.1-0.5-0.1-0.7h0c-0.3,0.5-0.9,0.8-1.6,0.8c-0.7,0-1.7-0.4-1.7-1.5c0-1.4,1.7-1.6,3.3-1.6V462.2z
		 M589.6,463c-0.9,0-2.1,0.1-2.1,0.9c0,0.6,0.5,0.7,1,0.7c0.9,0,1.4-0.6,1.4-1.4V463H589.6z"/>
	<path d="M547.9,477.3h-1v-7.1h1V477.3z"/>
	<path d="M550.3,472.5c0,0.2,0,0.6,0,0.8h0c0.2-0.5,0.9-0.9,1.5-0.9c1.2,0,1.8,0.9,1.8,1.9v2.9h-0.9v-2.6c0-0.8-0.2-1.4-1.1-1.4
		c-0.7,0-1.3,0.6-1.3,1.6v2.5h-0.9v-3.7c0-0.2,0-0.7,0-1H550.3z"/>
	<path d="M557.7,473.7c-0.2-0.3-0.6-0.6-1.1-0.6c-0.4,0-0.9,0.2-0.9,0.6c0,0.4,0.4,0.5,1.1,0.7c0.9,0.2,1.6,0.6,1.6,1.4
		c0,1.1-0.9,1.5-1.9,1.5c-0.7,0-1.5-0.3-1.9-0.8l0.7-0.6c0.2,0.4,0.7,0.7,1.3,0.7c0.5,0,0.9-0.2,0.9-0.7c0-0.4-0.4-0.6-1.2-0.8
		c-0.6-0.2-1.4-0.4-1.4-1.3c0-1,0.9-1.4,1.8-1.4c0.7,0,1.4,0.3,1.7,0.8L557.7,473.7z"/>
	<path d="M561.7,473.3h-1.3v2.5c0,0.6,0.2,0.8,0.7,0.8c0.2,0,0.4,0,0.6-0.1l0,0.8c-0.2,0.1-0.5,0.1-0.8,0.1c-0.9,0-1.4-0.5-1.4-1.5
		v-2.6h-0.9v-0.8h0.9v-1.4h0.9v1.4h1.3V473.3z"/>
	<path d="M565.5,474.2c0-0.7-0.5-1-1.2-1c-0.5,0-1,0.2-1.3,0.5l-0.5-0.6c0.5-0.4,1.2-0.7,1.9-0.7c1.4,0,2,0.8,2,1.9v2.1
		c0,0.3,0,0.7,0.1,0.9h-0.8c-0.1-0.2-0.1-0.5-0.1-0.7h0c-0.3,0.5-0.9,0.8-1.6,0.8c-0.8,0-1.7-0.4-1.7-1.5c0-1.4,1.7-1.6,3.3-1.6
		V474.2z M565.3,475c-0.9,0-2.1,0.1-2.1,0.9c0,0.6,0.5,0.7,1,0.7c0.9,0,1.4-0.6,1.4-1.4V475H565.3z"/>
	<path d="M568.8,477.3h-0.9v-7.6h0.9V477.3z"/>
	<path d="M571.2,477.3h-0.9v-7.6h0.9V477.3z"/>
	<path d="M577.1,477.4c-1.5,0-2.4-1.1-2.4-2.5c0-1.4,1-2.5,2.4-2.5c0.8,0,1.4,0.4,1.7,0.8h0v-3.5h0.9v7.6h-0.9v-0.7h0
		C578.5,477.1,577.8,477.4,577.1,477.4z M577.3,476.6c1,0,1.6-0.8,1.6-1.7c0-0.9-0.6-1.7-1.6-1.7c-1,0-1.6,0.8-1.6,1.7
		C575.7,475.8,576.3,476.6,577.3,476.6z"/>
	<path d="M584.2,474.2c0-0.7-0.5-1-1.2-1c-0.5,0-1,0.2-1.3,0.5l-0.5-0.6c0.5-0.4,1.2-0.7,1.9-0.7c1.4,0,2,0.8,2,1.9v2.1
		c0,0.3,0,0.7,0.1,0.9h-0.8c0-0.2-0.1-0.5-0.1-0.7h0c-0.3,0.5-0.9,0.8-1.6,0.8c-0.7,0-1.7-0.4-1.7-1.5c0-1.4,1.7-1.6,3.3-1.6V474.2z
		 M584,475c-0.9,0-2.1,0.1-2.1,0.9c0,0.6,0.5,0.7,1,0.7c0.9,0,1.4-0.6,1.4-1.4V475H584z"/>
	<path d="M588.8,473.3h-1.3v2.5c0,0.6,0.2,0.8,0.7,0.8c0.2,0,0.4,0,0.5-0.1l0,0.8c-0.2,0.1-0.5,0.1-0.8,0.1c-0.9,0-1.4-0.5-1.4-1.5
		v-2.6h-0.9v-0.8h0.9v-1.4h0.9v1.4h1.3V473.3z"/>
	<path d="M592.6,474.2c0-0.7-0.5-1-1.2-1c-0.5,0-1,0.2-1.3,0.5l-0.5-0.6c0.5-0.4,1.2-0.7,1.9-0.7c1.4,0,2,0.8,2,1.9v2.1
		c0,0.3,0,0.7,0.1,0.9h-0.8c0-0.2-0.1-0.5-0.1-0.7h0c-0.3,0.5-0.9,0.8-1.6,0.8c-0.7,0-1.7-0.4-1.7-1.5c0-1.4,1.7-1.6,3.3-1.6V474.2z
		 M592.4,475c-0.9,0-2.1,0.1-2.1,0.9c0,0.6,0.5,0.7,1,0.7c0.9,0,1.4-0.6,1.4-1.4V475H592.4z"/>
</g>
<g>
	<path d="M378.8,315.7c-0.2-0.3-0.6-0.6-1.1-0.6c-0.4,0-0.9,0.2-0.9,0.6c0,0.4,0.4,0.6,1.1,0.7c0.9,0.2,1.6,0.6,1.6,1.4
		c0,1.1-0.9,1.5-1.9,1.5c-0.7,0-1.5-0.3-1.9-0.8l0.7-0.6c0.2,0.4,0.7,0.7,1.3,0.7c0.5,0,0.9-0.2,0.9-0.7c0-0.4-0.4-0.6-1.2-0.8
		c-0.6-0.2-1.4-0.4-1.4-1.3c0-1,0.9-1.4,1.8-1.4c0.7,0,1.4,0.3,1.7,0.8L378.8,315.7z"/>
	<path d="M383.1,315.7c-0.2-0.3-0.6-0.6-1.1-0.6c-0.4,0-0.9,0.2-0.9,0.6c0,0.4,0.4,0.6,1.1,0.7c0.9,0.2,1.6,0.6,1.6,1.4
		c0,1.1-0.9,1.5-1.9,1.5c-0.7,0-1.5-0.3-1.9-0.8l0.7-0.6c0.2,0.4,0.7,0.7,1.3,0.7c0.5,0,0.9-0.2,0.9-0.7c0-0.4-0.4-0.6-1.2-0.8
		c-0.6-0.2-1.4-0.4-1.4-1.3c0-1,0.9-1.4,1.8-1.4c0.7,0,1.4,0.3,1.7,0.8L383.1,315.7z"/>
	<path d="M385.8,315.2c0.2-0.5,0.8-0.8,1.5-0.8c1.2,0,1.8,0.9,1.8,1.9v2.9h-0.9v-2.6c0-0.8-0.2-1.4-1.1-1.4c-0.7,0-1.3,0.6-1.3,1.6
		v2.5h-0.9v-7.6h0.9L385.8,315.2L385.8,315.2z"/>
</g>
<g>
	<path class="st3" d="M159.2,145.7h2.2c1.5,0,2.5,0.6,2.5,2c0,1.4-1.1,2-2.6,2h-1.1v3.1h-1V145.7z M160.2,148.9h1
		c1,0,1.6-0.3,1.6-1.2c0-0.8-0.7-1.1-1.6-1.1h-1.1V148.9z"/>
	<path class="st3" d="M168.3,152.8c0-0.2,0-0.6,0-0.8h0c-0.2,0.5-0.9,0.9-1.5,0.9c-1.2,0-1.8-0.9-1.8-1.9v-2.9h0.9v2.6
		c0,0.8,0.2,1.5,1.1,1.5c0.7,0,1.3-0.6,1.3-1.6v-2.5h0.9v3.7c0,0.2,0,0.7,0,1H168.3z"/>
	<path class="st3" d="M171.5,152.1v0.7h-0.9v-7.6h0.9v3.5h0c0.3-0.5,0.9-0.8,1.7-0.8c1.4,0,2.4,1.1,2.4,2.5c0,1.4-0.9,2.5-2.4,2.5
		C172.6,152.9,171.9,152.6,171.5,152.1L171.5,152.1z M173.1,148.7c-1,0-1.6,0.8-1.6,1.7s0.6,1.7,1.6,1.7c1,0,1.6-0.8,1.6-1.7
		C174.7,149.5,174.1,148.7,173.1,148.7z"/>
	<path class="st3" d="M177.8,152.8h-0.9v-7.6h0.9V152.8z"/>
	<path class="st3" d="M179.7,147c-0.3,0-0.6-0.3-0.6-0.6c0-0.3,0.3-0.6,0.6-0.6c0.3,0,0.6,0.3,0.6,0.6
		C180.4,146.7,180.1,147,179.7,147z M180.2,152.8h-0.9v-4.7h0.9V152.8z"/>
	<path class="st3" d="M185,149.3c-0.2-0.3-0.6-0.5-1.1-0.5c-1,0-1.5,0.8-1.5,1.7c0,0.9,0.6,1.7,1.6,1.7c0.5,0,0.9-0.2,1.1-0.5
		l0.6,0.6c-0.4,0.5-1,0.7-1.8,0.7c-1.5,0-2.5-1-2.5-2.5c0-1.5,1.1-2.5,2.5-2.5c0.7,0,1.4,0.3,1.8,0.8L185,149.3z"/>
	<path class="st3" d="M191.4,149.3c-0.2-0.3-0.6-0.6-1.1-0.6c-0.4,0-0.9,0.2-0.9,0.6c0,0.4,0.4,0.5,1.1,0.7c0.9,0.2,1.6,0.6,1.6,1.4
		c0,1.1-0.9,1.5-1.9,1.5c-0.7,0-1.5-0.3-1.9-0.8l0.7-0.6c0.2,0.4,0.7,0.7,1.3,0.7c0.5,0,0.9-0.2,0.9-0.7c0-0.4-0.4-0.6-1.2-0.8
		c-0.6-0.1-1.4-0.4-1.4-1.3c0-1,0.9-1.4,1.8-1.4c0.7,0,1.4,0.3,1.7,0.8L191.4,149.3z"/>
	<path class="st3" d="M196.5,152.8c0-0.2,0-0.6,0-0.8h0c-0.2,0.5-0.9,0.9-1.5,0.9c-1.2,0-1.8-0.9-1.8-1.9v-2.9h0.9v2.6
		c0,0.8,0.2,1.5,1.1,1.5c0.7,0,1.3-0.6,1.3-1.6v-2.5h0.9v3.7c0,0.2,0,0.7,0,1H196.5z"/>
	<path class="st3" d="M199.7,152.1v0.7h-0.9v-7.6h0.9v3.5h0c0.3-0.5,0.9-0.8,1.7-0.8c1.4,0,2.4,1.1,2.4,2.5c0,1.4-0.9,2.5-2.4,2.5
		C200.8,152.9,200.1,152.6,199.7,152.1L199.7,152.1z M201.3,148.7c-1,0-1.6,0.8-1.6,1.7s0.6,1.7,1.6,1.7c1,0,1.6-0.8,1.6-1.7
		C202.9,149.5,202.3,148.7,201.3,148.7z"/>
	<path class="st3" d="M207.6,149.3c-0.2-0.3-0.6-0.6-1.1-0.6c-0.4,0-0.9,0.2-0.9,0.6c0,0.4,0.4,0.5,1.1,0.7c0.9,0.2,1.6,0.6,1.6,1.4
		c0,1.1-0.9,1.5-1.9,1.5c-0.7,0-1.5-0.3-1.9-0.8l0.7-0.6c0.2,0.4,0.7,0.7,1.3,0.7c0.5,0,0.9-0.2,0.9-0.7c0-0.4-0.4-0.6-1.2-0.8
		c-0.6-0.1-1.4-0.4-1.4-1.3c0-1,0.9-1.4,1.8-1.4c0.7,0,1.4,0.3,1.7,0.8L207.6,149.3z"/>
	<path class="st3" d="M213.7,150.7h-3.8c0,0.8,0.7,1.4,1.5,1.4c0.6,0,1.1-0.3,1.4-0.7l0.7,0.5c-0.5,0.7-1.2,1-2,1
		c-1.4,0-2.5-1-2.5-2.5c0-1.5,1.1-2.5,2.4-2.5c1.4,0,2.3,0.9,2.3,2.5C213.7,150.5,213.7,150.6,213.7,150.7z M212.8,150
		c0-0.7-0.5-1.3-1.3-1.3c-0.8,0-1.4,0.6-1.5,1.3H212.8z"/>
	<path class="st3" d="M217.2,148.8h-1.3v2.5c0,0.6,0.2,0.8,0.7,0.8c0.2,0,0.4,0,0.5-0.1l0,0.8c-0.2,0.1-0.5,0.1-0.8,0.1
		c-0.9,0-1.4-0.5-1.4-1.5v-2.6h-0.9v-0.8h0.9v-1.4h0.9v1.4h1.3V148.8z"/>
</g>
<g>
	<g>
		<path d="M242.2,242.8L242.2,242.8l0-5.7h1v7.1h-1.2l-3.7-5.8h0v5.8h-1v-7.1h1.3L242.2,242.8z"/>
		<path d="M245.1,244.2H244l3.1-7.1h0.9l3,7.1h-1.1l-0.7-1.7h-3.4L245.1,244.2z M246.1,241.6h2.6l-1.3-3.3L246.1,241.6z"/>
		<path d="M254.2,244.2h-1V238H251v-0.9h5.5v0.9h-2.3V244.2z"/>
		<path d="M259.9,245c0.4,0.5,1.1,0.8,1.7,0.8c1.2,0,1.7-0.8,1.7-1.7v-0.6h0c-0.4,0.5-1,0.8-1.7,0.8c-1.4,0-2.4-1.1-2.4-2.4
			c0-1.4,0.9-2.5,2.4-2.5c0.7,0,1.3,0.3,1.7,0.9h0v-0.8h0.9v4.5c0,1.4-0.6,2.6-2.6,2.6c-0.8,0-1.7-0.3-2.3-0.9L259.9,245z
			 M261.8,243.5c1,0,1.6-0.7,1.6-1.7c0-0.9-0.6-1.7-1.6-1.7c-1,0-1.6,0.8-1.6,1.7C260.2,242.7,260.8,243.5,261.8,243.5z"/>
		<path d="M268.7,241.1c0-0.7-0.5-1-1.2-1c-0.5,0-1,0.2-1.3,0.5l-0.5-0.6c0.5-0.4,1.2-0.7,1.9-0.7c1.4,0,2,0.8,2,1.9v2.1
			c0,0.3,0,0.7,0.1,0.9h-0.8c0-0.2-0.1-0.5-0.1-0.7h0c-0.3,0.5-0.9,0.8-1.6,0.8c-0.7,0-1.7-0.4-1.7-1.5c0-1.4,1.7-1.6,3.3-1.6V241.1
			z M268.5,241.9c-0.9,0-2.1,0.1-2.1,0.9c0,0.6,0.5,0.7,1,0.7c0.9,0,1.4-0.6,1.4-1.4v-0.2H268.5z"/>
		<path d="M273.3,240.2h-1.3v2.5c0,0.6,0.2,0.8,0.7,0.8c0.2,0,0.4,0,0.5-0.1l0,0.8c-0.2,0.1-0.5,0.1-0.8,0.1c-0.9,0-1.4-0.5-1.4-1.5
			v-2.6h-0.9v-0.8h0.9v-1.4h0.9v1.4h1.3V240.2z"/>
		<path d="M278.6,242.1h-3.8c0,0.8,0.7,1.4,1.5,1.4c0.6,0,1.1-0.3,1.4-0.7l0.7,0.5c-0.5,0.7-1.2,1-2,1c-1.4,0-2.5-1-2.5-2.5
			c0-1.5,1.1-2.5,2.4-2.5c1.4,0,2.3,0.9,2.3,2.5C278.6,241.9,278.6,242,278.6,242.1z M277.6,241.4c0-0.7-0.5-1.3-1.3-1.3
			c-0.8,0-1.4,0.6-1.5,1.3H277.6z"/>
		<path d="M280.1,239.5l1.1,3.6h0l1.1-3.6h1l1.1,3.6h0l1.1-3.6h1l-1.6,4.7h-1l-1.2-3.6h0l-1.2,3.6h-1l-1.6-4.7H280.1z"/>
		<path d="M290.3,241.1c0-0.7-0.5-1-1.2-1c-0.5,0-1,0.2-1.3,0.5l-0.5-0.6c0.5-0.4,1.2-0.7,1.9-0.7c1.4,0,2,0.8,2,1.9v2.1
			c0,0.3,0,0.7,0.1,0.9h-0.8c0-0.2-0.1-0.5-0.1-0.7h0c-0.3,0.5-0.9,0.8-1.6,0.8c-0.7,0-1.7-0.4-1.7-1.5c0-1.4,1.7-1.6,3.3-1.6V241.1
			z M290,241.9c-0.9,0-2.1,0.1-2.1,0.9c0,0.6,0.5,0.7,1,0.7c0.9,0,1.4-0.6,1.4-1.4v-0.2H290z"/>
		<path d="M294.4,243.2L294.4,243.2l1.3-3.7h1l-2.3,5.9c-0.3,0.8-0.7,1.3-1.6,1.3c-0.2,0-0.4,0-0.6-0.1l0.1-0.8
			c0.1,0.1,0.3,0.1,0.5,0.1c0.5,0,0.7-0.3,0.9-0.8l0.3-0.8l-2-4.7h1L294.4,243.2z"/>
	</g>
</g>
<g>
	<path d="M347.2,246.1h-1.1l3.1-7.1h0.9l3,7.1H352l-0.7-1.7h-3.4L347.2,246.1z M348.3,243.5h2.6l-1.3-3.3L348.3,243.5z"/>
	<path d="M354.7,241.4c0,0.2,0,0.6,0,0.8h0c0.2-0.5,0.9-0.9,1.5-0.9c1.2,0,1.8,0.9,1.8,1.9v2.9h-0.9v-2.6c0-0.8-0.2-1.4-1.1-1.4
		c-0.7,0-1.3,0.6-1.3,1.6v2.5h-0.9v-3.7c0-0.2,0-0.7,0-1H354.7z"/>
	<path d="M362.1,242.6c-0.2-0.3-0.6-0.6-1.1-0.6c-0.4,0-0.9,0.2-0.9,0.6c0,0.4,0.4,0.5,1.1,0.7c0.9,0.2,1.6,0.6,1.6,1.4
		c0,1.1-0.9,1.5-1.9,1.5c-0.7,0-1.5-0.3-1.9-0.8l0.7-0.6c0.2,0.4,0.7,0.7,1.3,0.7c0.5,0,0.9-0.2,0.9-0.7c0-0.4-0.4-0.6-1.2-0.8
		c-0.6-0.1-1.4-0.4-1.4-1.3c0-1,0.9-1.4,1.8-1.4c0.7,0,1.4,0.3,1.7,0.8L362.1,242.6z"/>
	<path d="M364.3,240.3c-0.3,0-0.6-0.3-0.6-0.6c0-0.3,0.3-0.6,0.6-0.6c0.3,0,0.6,0.3,0.6,0.6C364.9,240,364.6,240.3,364.3,240.3z
		 M364.8,246.1h-0.9v-4.7h0.9V246.1z"/>
	<path d="M367.2,245.4v0.7h-0.9v-7.6h0.9v3.5h0c0.3-0.5,0.9-0.8,1.7-0.8c1.4,0,2.4,1.1,2.4,2.5c0,1.4-0.9,2.5-2.4,2.5
		C368.2,246.3,367.6,246,367.2,245.4L367.2,245.4z M368.7,242c-1,0-1.6,0.8-1.6,1.7s0.6,1.7,1.6,1.7c1,0,1.6-0.8,1.6-1.7
		C370.3,242.9,369.8,242,368.7,242z"/>
	<path d="M373.4,246.1h-0.9v-7.6h0.9V246.1z"/>
	<path d="M379.3,244h-3.8c0,0.8,0.7,1.4,1.5,1.4c0.6,0,1.1-0.3,1.4-0.7l0.7,0.5c-0.5,0.7-1.2,1-2,1c-1.4,0-2.5-1-2.5-2.5
		c0-1.5,1.1-2.5,2.4-2.5c1.4,0,2.3,0.9,2.3,2.5C379.3,243.8,379.3,243.9,379.3,244z M378.4,243.3c0-0.7-0.5-1.3-1.3-1.3
		c-0.8,0-1.4,0.6-1.5,1.3H378.4z"/>
	<path d="M386.2,242.6c-0.2-0.3-0.6-0.5-1.1-0.5c-1,0-1.5,0.8-1.5,1.7c0,0.9,0.6,1.7,1.6,1.7c0.5,0,0.9-0.2,1.1-0.5l0.6,0.6
		c-0.4,0.5-1,0.7-1.8,0.7c-1.5,0-2.5-1-2.5-2.5c0-1.5,1.1-2.5,2.5-2.5c0.7,0,1.4,0.3,1.8,0.8L386.2,242.6z"/>
	<path d="M389.9,246.3c-1.4,0-2.5-1-2.5-2.5c0-1.5,1.1-2.5,2.5-2.5s2.6,1,2.6,2.5C392.4,245.2,391.3,246.3,389.9,246.3z M389.9,242
		c-1,0-1.6,0.8-1.6,1.7c0,0.9,0.6,1.7,1.6,1.7c1,0,1.6-0.8,1.6-1.7C391.4,242.9,390.9,242,389.9,242z"/>
	<path d="M394.4,241.4c0,0.2,0,0.6,0,0.8h0c0.2-0.5,0.9-0.9,1.5-0.9c1.2,0,1.8,0.9,1.8,1.9v2.9h-0.9v-2.6c0-0.8-0.2-1.4-1.1-1.4
		c-0.7,0-1.3,0.6-1.3,1.6v2.5h-0.9v-3.7c0-0.2,0-0.7,0-1H394.4z"/>
	<path d="M401.6,242.2h-1.3v2.5c0,0.6,0.2,0.8,0.7,0.8c0.2,0,0.4,0,0.5-0.1l0,0.8c-0.2,0.1-0.5,0.1-0.8,0.1c-0.9,0-1.4-0.5-1.4-1.5
		v-2.6h-0.9v-0.8h0.9V240h0.9v1.4h1.3V242.2z"/>
	<path d="M402.4,241.4h0.9c0,0.2,0,0.6,0,0.8h0c0.3-0.5,0.8-0.9,1.4-0.9c0.1,0,0.3,0,0.4,0l0,0.9c-0.1,0-0.3,0-0.4,0
		c-0.9,0-1.3,0.7-1.3,1.5v2.5h-0.9v-3.7C402.4,242.2,402.4,241.7,402.4,241.4z"/>
	<path d="M408.1,246.3c-1.4,0-2.5-1-2.5-2.5c0-1.5,1.1-2.5,2.5-2.5s2.6,1,2.6,2.5C410.7,245.2,409.5,246.3,408.1,246.3z M408.1,242
		c-1,0-1.6,0.8-1.6,1.7c0,0.9,0.6,1.7,1.6,1.7c1,0,1.6-0.8,1.6-1.7C409.7,242.9,409.1,242,408.1,242z"/>
	<path d="M412.8,246.1h-0.9v-7.6h0.9V246.1z"/>
	<path d="M415.2,246.1h-0.9v-7.6h0.9V246.1z"/>
	<path d="M421.1,244h-3.8c0,0.8,0.7,1.4,1.5,1.4c0.6,0,1.1-0.3,1.4-0.7l0.7,0.5c-0.5,0.7-1.2,1-2,1c-1.4,0-2.5-1-2.5-2.5
		c0-1.5,1.1-2.5,2.4-2.5c1.4,0,2.3,0.9,2.3,2.5C421.1,243.8,421.1,243.9,421.1,244z M420.2,243.3c0-0.7-0.5-1.3-1.3-1.3
		c-0.8,0-1.4,0.6-1.5,1.3H420.2z"/>
	<path d="M422.3,241.4h0.9c0,0.2,0,0.6,0,0.8h0c0.3-0.5,0.8-0.9,1.4-0.9c0.1,0,0.3,0,0.4,0l0,0.9c-0.1,0-0.3,0-0.4,0
		c-0.9,0-1.3,0.7-1.3,1.5v2.5h-0.9v-3.7C422.3,242.2,422.3,241.7,422.3,241.4z"/>
</g>
<g>
	<path class="st4" d="M349.8,83.4h-1.1l3.1-7.1h0.9l3,7.1h-1.1l-0.7-1.7h-3.4L349.8,83.4z M350.9,80.8h2.6l-1.3-3.3L350.9,80.8z"/>
	<path class="st4" d="M358.6,83.4h-1l-1.9-4.7h1l1.4,3.7h0l1.4-3.7h1L358.6,83.4z"/>
	<path class="st4" d="M364.3,80.3c0-0.7-0.5-1-1.2-1c-0.5,0-1,0.2-1.3,0.5l-0.5-0.6c0.5-0.4,1.2-0.7,1.9-0.7c1.4,0,2,0.8,2,1.9v2.1
		c0,0.3,0,0.7,0.1,0.9h-0.8c0-0.2-0.1-0.5-0.1-0.7h0c-0.3,0.5-0.9,0.8-1.6,0.8c-0.7,0-1.7-0.4-1.7-1.5c0-1.4,1.7-1.6,3.3-1.6V80.3z
		 M364,81.1c-0.9,0-2.1,0.1-2.1,0.9c0,0.6,0.5,0.7,1,0.7c0.9,0,1.4-0.6,1.4-1.4v-0.2H364z"/>
	<path class="st4" d="M367.1,77.5c-0.3,0-0.6-0.3-0.6-0.6c0-0.3,0.3-0.6,0.6-0.6c0.3,0,0.6,0.3,0.6,0.6
		C367.7,77.3,367.4,77.5,367.1,77.5z M367.5,83.4h-0.9v-4.7h0.9V83.4z"/>
	<path class="st4" d="M370,83.4H369v-7.6h0.9V83.4z"/>
	<path class="st4" d="M374.4,80.3c0-0.7-0.5-1-1.2-1c-0.5,0-1,0.2-1.3,0.5l-0.5-0.6c0.5-0.4,1.2-0.7,1.9-0.7c1.4,0,2,0.8,2,1.9v2.1
		c0,0.3,0,0.7,0.1,0.9h-0.8c0-0.2-0.1-0.5-0.1-0.7h0c-0.3,0.5-0.9,0.8-1.6,0.8c-0.7,0-1.7-0.4-1.7-1.5c0-1.4,1.7-1.6,3.3-1.6V80.3z
		 M374.2,81.1c-0.9,0-2.1,0.1-2.1,0.9c0,0.6,0.5,0.7,1,0.7c0.9,0,1.4-0.6,1.4-1.4v-0.2H374.2z"/>
	<path class="st4" d="M377.7,82.6v0.7h-0.9v-7.6h0.9v3.5h0c0.3-0.5,0.9-0.8,1.7-0.8c1.4,0,2.4,1.1,2.4,2.5c0,1.4-0.9,2.5-2.4,2.5
		C378.7,83.5,378.1,83.2,377.7,82.6L377.7,82.6z M379.2,79.3c-1,0-1.6,0.8-1.6,1.7s0.6,1.7,1.6,1.7c1,0,1.6-0.8,1.6-1.7
		C380.8,80.1,380.3,79.3,379.2,79.3z"/>
	<path class="st4" d="M383.4,77.5c-0.3,0-0.6-0.3-0.6-0.6c0-0.3,0.3-0.6,0.6-0.6c0.3,0,0.6,0.3,0.6,0.6
		C384.1,77.3,383.8,77.5,383.4,77.5z M383.9,83.4H383v-4.7h0.9V83.4z"/>
	<path class="st4" d="M386.3,83.4h-0.9v-7.6h0.9V83.4z"/>
	<path class="st4" d="M388.3,77.5c-0.3,0-0.6-0.3-0.6-0.6c0-0.3,0.3-0.6,0.6-0.6c0.3,0,0.6,0.3,0.6,0.6
		C388.9,77.3,388.7,77.5,388.3,77.5z M388.8,83.4h-0.9v-4.7h0.9V83.4z"/>
	<path class="st4" d="M392.6,79.4h-1.3v2.5c0,0.6,0.2,0.8,0.7,0.8c0.2,0,0.4,0,0.5-0.1l0,0.8c-0.2,0.1-0.5,0.1-0.8,0.1
		c-0.9,0-1.4-0.5-1.4-1.5v-2.6h-0.9v-0.8h0.9v-1.4h0.9v1.4h1.3V79.4z"/>
	<path class="st4" d="M395.2,82.4L395.2,82.4l1.3-3.7h1l-2.3,5.9c-0.3,0.8-0.7,1.3-1.6,1.3c-0.2,0-0.4,0-0.6-0.1l0.1-0.8
		c0.2,0.1,0.3,0.1,0.5,0.1c0.5,0,0.7-0.3,0.9-0.8l0.3-0.8l-2-4.7h1L395.2,82.4z"/>
	<path class="st4" d="M405.4,77.2l-4,5.3h4.1v0.9h-5.3v-0.9l4-5.3h-3.9v-0.9h5.1V77.2z"/>
	<path class="st4" d="M408.7,83.5c-1.4,0-2.5-1-2.5-2.5c0-1.5,1.1-2.5,2.5-2.5s2.6,1,2.6,2.5C411.2,82.5,410.1,83.5,408.7,83.5z
		 M408.7,79.3c-1,0-1.6,0.8-1.6,1.7c0,0.9,0.6,1.7,1.6,1.7c1,0,1.6-0.8,1.6-1.7C410.2,80.1,409.7,79.3,408.7,79.3z"/>
	<path class="st4" d="M413.2,78.6c0,0.2,0,0.6,0,0.8h0c0.2-0.5,0.9-0.9,1.5-0.9c1.2,0,1.8,0.9,1.8,1.9v2.9h-0.9v-2.6
		c0-0.8-0.2-1.4-1.1-1.4c-0.7,0-1.3,0.6-1.3,1.6v2.5h-0.9v-3.7c0-0.2,0-0.7,0-1H413.2z"/>
	<path class="st4" d="M422.4,81.3h-3.8c0,0.8,0.7,1.4,1.5,1.4c0.6,0,1.1-0.3,1.4-0.7l0.7,0.5c-0.5,0.7-1.2,1-2,1
		c-1.4,0-2.5-1-2.5-2.5c0-1.5,1.1-2.5,2.4-2.5c1.4,0,2.3,0.9,2.3,2.5C422.5,81.1,422.5,81.2,422.4,81.3z M421.5,80.6
		c0-0.7-0.5-1.3-1.3-1.3c-0.8,0-1.4,0.6-1.5,1.3H421.5z"/>
</g>
<g>
	<path d="M69.1,43.8H68l3.1-7.1h0.9l3,7.1h-1.1l-0.7-1.7h-3.4L69.1,43.8z M70.1,41.2h2.6l-1.3-3.3L70.1,41.2z"/>
	<path d="M77.6,42.4L77.6,42.4l1.7-5.6h1.1l1.6,5.6h0l1.6-5.6h1l-2.1,7.1h-1l-1.7-5.7h0l-1.7,5.7h-1L75,36.7H76L77.6,42.4z"/>
	<path d="M89,38c-0.3-0.4-0.8-0.7-1.4-0.7c-0.6,0-1.4,0.3-1.4,1.1c0,0.8,0.6,1,1.4,1.2c0.9,0.3,2.1,0.7,2.1,2.1
		c0,1.5-1.2,2.1-2.4,2.1c-0.9,0-1.8-0.3-2.3-1l0.8-0.6c0.3,0.5,0.9,0.8,1.6,0.8c0.7,0,1.4-0.4,1.4-1.2c0-0.9-0.8-1.1-1.7-1.4
		s-1.8-0.7-1.8-2c0-1.4,1.3-2,2.4-2c0.8,0,1.6,0.3,2,0.8L89,38z"/>
	<path d="M99.4,42.7C98.9,43.5,98,44,96.7,44c-2.2,0-3.7-1.5-3.7-3.7c0-2.2,1.6-3.7,3.8-3.7c1,0,2,0.4,2.5,1.1l-0.8,0.6
		c-0.3-0.5-1-0.8-1.8-0.8c-1.6,0-2.7,1.3-2.7,2.8c0,1.6,1,2.8,2.7,2.8c0.8,0,1.5-0.3,1.9-0.9L99.4,42.7z"/>
	<path d="M101.2,43.8h-0.9v-7.6h0.9V43.8z"/>
	<path d="M104.9,43.9c-1.4,0-2.5-1-2.5-2.5c0-1.5,1.1-2.5,2.5-2.5s2.6,1,2.6,2.5C107.5,42.9,106.4,43.9,104.9,43.9z M104.9,39.7
		c-1,0-1.6,0.8-1.6,1.7c0,0.9,0.6,1.7,1.6,1.7c1,0,1.6-0.8,1.6-1.7C106.5,40.5,105.9,39.7,104.9,39.7z"/>
	<path d="M112,43.8c0-0.2,0-0.6,0-0.8h0c-0.2,0.5-0.9,0.9-1.5,0.9c-1.2,0-1.8-0.9-1.8-1.9v-2.9h0.9v2.6c0,0.8,0.2,1.5,1.1,1.5
		c0.7,0,1.3-0.6,1.3-1.6v-2.5h0.9v3.7c0,0.2,0,0.7,0,1H112z"/>
	<path d="M116.4,43.9c-1.5,0-2.4-1.1-2.4-2.5c0-1.4,1-2.5,2.4-2.5c0.8,0,1.4,0.4,1.7,0.8h0v-3.5h0.9v7.6h-0.9v-0.7h0
		C117.7,43.6,117,43.9,116.4,43.9z M116.5,43.1c1,0,1.6-0.8,1.6-1.7s-0.6-1.7-1.6-1.7c-1,0-1.6,0.8-1.6,1.7
		C115,42.3,115.5,43.1,116.5,43.1z"/>
</g>
<rect x="430.2" y="413.3" class="st5" width="103" height="64"/>
<g>
	<g>
		<path d="M441.7,425.2L441.7,425.2l2.1-5.4h1.5v7.1h-1v-5.9h0l-2.3,5.9h-0.6l-2.3-5.9h0v5.9h-1v-7.1h1.5L441.7,425.2z"/>
		<path d="M447.3,421c-0.3,0-0.6-0.3-0.6-0.6c0-0.3,0.3-0.6,0.6-0.6s0.6,0.3,0.6,0.6C447.9,420.7,447.7,421,447.3,421z M447.8,426.8
			h-0.9v-4.7h0.9V426.8z"/>
		<path d="M452.6,423.3c-0.2-0.3-0.6-0.5-1.1-0.5c-1,0-1.5,0.8-1.5,1.7c0,0.9,0.6,1.7,1.6,1.7c0.5,0,0.9-0.2,1.1-0.5l0.6,0.6
			c-0.4,0.5-1,0.7-1.8,0.7c-1.5,0-2.5-1-2.5-2.5c0-1.5,1.1-2.5,2.5-2.5c0.7,0,1.4,0.3,1.8,0.8L452.6,423.3z"/>
		<path d="M454,422.1h0.9c0,0.2,0,0.6,0,0.8h0c0.3-0.5,0.8-0.9,1.4-0.9c0.1,0,0.3,0,0.4,0l0,0.9c-0.1,0-0.3,0-0.4,0
			c-0.9,0-1.3,0.7-1.3,1.5v2.5h-0.9v-3.7C454.1,422.9,454.1,422.4,454,422.1z"/>
		<path d="M459.8,427c-1.4,0-2.5-1-2.5-2.5s1.1-2.5,2.5-2.5s2.6,1,2.6,2.5S461.2,427,459.8,427z M459.8,422.7c-1,0-1.6,0.8-1.6,1.7
			s0.6,1.7,1.6,1.7c1,0,1.6-0.8,1.6-1.7S460.8,422.7,459.8,422.7z"/>
		<path d="M466,423.3c-0.2-0.3-0.6-0.6-1.1-0.6c-0.4,0-0.9,0.2-0.9,0.6c0,0.4,0.4,0.5,1.1,0.7c0.9,0.2,1.6,0.6,1.6,1.4
			c0,1.1-0.9,1.5-1.9,1.5c-0.7,0-1.5-0.3-1.9-0.8l0.7-0.6c0.2,0.4,0.7,0.7,1.3,0.7c0.5,0,0.9-0.2,0.9-0.7c0-0.4-0.4-0.6-1.2-0.8
			c-0.6-0.1-1.4-0.4-1.4-1.3c0-1,0.9-1.4,1.8-1.4c0.7,0,1.4,0.3,1.7,0.8L466,423.3z"/>
		<path d="M472.2,424.7h-3.8c0,0.8,0.7,1.4,1.5,1.4c0.6,0,1.1-0.3,1.4-0.7l0.7,0.5c-0.5,0.7-1.2,1-2,1c-1.4,0-2.5-1-2.5-2.5
			c0-1.5,1.1-2.5,2.4-2.5c1.4,0,2.3,0.9,2.3,2.5C472.2,424.5,472.2,424.6,472.2,424.7z M471.2,424c0-0.7-0.5-1.3-1.3-1.3
			c-0.8,0-1.4,0.6-1.5,1.3H471.2z"/>
		<path d="M473.3,422.1h0.9c0,0.2,0,0.6,0,0.8h0c0.3-0.5,0.8-0.9,1.4-0.9c0.1,0,0.3,0,0.4,0l0,0.9c-0.1,0-0.3,0-0.4,0
			c-0.9,0-1.3,0.7-1.3,1.5v2.5h-0.9v-3.7C473.4,422.9,473.3,422.4,473.3,422.1z"/>
		<path d="M479.1,426.8h-1l-1.9-4.7h1l1.4,3.7h0l1.4-3.7h1L479.1,426.8z"/>
		<path d="M482.2,421c-0.3,0-0.6-0.3-0.6-0.6c0-0.3,0.3-0.6,0.6-0.6c0.3,0,0.6,0.3,0.6,0.6C482.8,420.7,482.5,421,482.2,421z
			 M482.7,426.8h-0.9v-4.7h0.9V426.8z"/>
		<path d="M487.5,423.3c-0.2-0.3-0.6-0.5-1.1-0.5c-1,0-1.5,0.8-1.5,1.7c0,0.9,0.6,1.7,1.6,1.7c0.5,0,0.9-0.2,1.1-0.5l0.6,0.6
			c-0.4,0.5-1,0.7-1.8,0.7c-1.5,0-2.5-1-2.5-2.5c0-1.5,1.1-2.5,2.5-2.5c0.7,0,1.4,0.3,1.8,0.8L487.5,423.3z"/>
		<path d="M493.4,424.7h-3.8c0,0.8,0.7,1.4,1.5,1.4c0.6,0,1.1-0.3,1.4-0.7l0.7,0.5c-0.5,0.7-1.2,1-2,1c-1.4,0-2.5-1-2.5-2.5
			c0-1.5,1.1-2.5,2.4-2.5c1.4,0,2.3,0.9,2.3,2.5C493.4,424.5,493.4,424.6,493.4,424.7z M492.4,424c0-0.7-0.5-1.3-1.3-1.3
			c-0.8,0-1.4,0.6-1.5,1.3H492.4z"/>
		<path d="M497.1,423.3c-0.2-0.3-0.6-0.6-1.1-0.6c-0.4,0-0.9,0.2-0.9,0.6c0,0.4,0.4,0.5,1.1,0.7c0.9,0.2,1.6,0.6,1.6,1.4
			c0,1.1-0.9,1.5-1.9,1.5c-0.7,0-1.5-0.3-1.9-0.8l0.7-0.6c0.2,0.4,0.7,0.7,1.3,0.7c0.5,0,0.9-0.2,0.9-0.7c0-0.4-0.4-0.6-1.2-0.8
			c-0.6-0.1-1.4-0.4-1.4-1.3c0-1,0.9-1.4,1.8-1.4c0.7,0,1.4,0.3,1.7,0.8L497.1,423.3z"/>
	</g>
</g>
<g>
	<g>
		<path d="M441.5,441.9c-0.3-0.4-0.8-0.7-1.4-0.7c-0.6,0-1.4,0.3-1.4,1.1c0,0.8,0.6,1,1.4,1.2c0.9,0.3,2.1,0.7,2.1,2.1
			c0,1.5-1.2,2.1-2.4,2.1c-0.9,0-1.8-0.3-2.3-1l0.8-0.6c0.3,0.5,0.9,0.8,1.6,0.8c0.7,0,1.4-0.4,1.4-1.2c0-0.9-0.8-1.1-1.7-1.4
			c-0.9-0.3-1.8-0.7-1.8-2c0-1.4,1.3-2,2.4-2c0.8,0,1.6,0.3,2,0.8L441.5,441.9z"/>
		<path d="M445.8,443.7h-1.3v2.5c0,0.6,0.2,0.8,0.7,0.8c0.2,0,0.4,0,0.5-0.1l0,0.8c-0.2,0.1-0.5,0.1-0.8,0.1c-0.9,0-1.4-0.5-1.4-1.5
			v-2.6h-0.9V443h0.9v-1.4h0.9v1.4h1.3V443.7z"/>
		<path d="M449.6,444.6c0-0.7-0.5-1-1.2-1c-0.5,0-1,0.2-1.3,0.5l-0.5-0.6c0.5-0.4,1.2-0.7,1.9-0.7c1.4,0,2,0.8,2,1.9v2.1
			c0,0.3,0,0.7,0.1,0.9h-0.8c0-0.2-0.1-0.5-0.1-0.7h0c-0.3,0.5-0.9,0.8-1.6,0.8c-0.7,0-1.7-0.4-1.7-1.5c0-1.4,1.7-1.6,3.3-1.6V444.6
			z M449.4,445.4c-0.9,0-2.1,0.1-2.1,0.9c0,0.6,0.5,0.7,1,0.7c0.9,0,1.4-0.6,1.4-1.4v-0.2H449.4z"/>
		<path d="M454.2,443.7H453v2.5c0,0.6,0.2,0.8,0.7,0.8c0.2,0,0.4,0,0.5-0.1l0,0.8c-0.2,0.1-0.5,0.1-0.8,0.1c-0.9,0-1.4-0.5-1.4-1.5
			v-2.6h-0.9V443h0.9v-1.4h0.9v1.4h1.3V443.7z"/>
		<path d="M459.5,445.6h-3.8c0,0.8,0.7,1.4,1.5,1.4c0.6,0,1.1-0.3,1.4-0.7l0.7,0.5c-0.5,0.7-1.2,1-2,1c-1.4,0-2.5-1-2.5-2.5
			c0-1.5,1.1-2.5,2.4-2.5c1.4,0,2.3,0.9,2.3,2.5C459.5,445.4,459.5,445.5,459.5,445.6z M458.5,444.9c0-0.8-0.5-1.3-1.3-1.3
			c-0.8,0-1.4,0.6-1.5,1.3H458.5z"/>
		<path d="M462.9,443.7h-1.1v4h-0.9v-4h-0.9V443h0.9v-1c0-1.1,0.5-1.9,1.8-1.9c0.2,0,0.4,0,0.6,0.1l-0.1,0.8c-0.1,0-0.3-0.1-0.5-0.1
			c-0.7,0-0.8,0.6-0.8,1.1v1h1.1V443.7z"/>
		<path d="M466.9,447.7c0-0.2,0-0.6,0-0.8h0c-0.2,0.5-0.9,0.9-1.5,0.9c-1.2,0-1.8-0.9-1.8-1.9V443h0.9v2.6c0,0.8,0.2,1.5,1.1,1.5
			c0.8,0,1.3-0.6,1.3-1.6V443h0.9v3.7c0,0.2,0,0.7,0,1H466.9z"/>
		<path d="M470.2,447.7h-0.9v-7.6h0.9V447.7z"/>
		<path d="M476.6,444.2c-0.2-0.3-0.6-0.6-1.1-0.6c-0.4,0-0.9,0.2-0.9,0.6c0,0.4,0.4,0.5,1.1,0.7c0.9,0.2,1.6,0.6,1.6,1.4
			c0,1.1-0.9,1.5-1.9,1.5c-0.7,0-1.5-0.3-1.9-0.8l0.7-0.6c0.2,0.4,0.7,0.7,1.3,0.7c0.5,0,0.9-0.2,0.9-0.7c0-0.4-0.4-0.6-1.2-0.8
			c-0.6-0.2-1.4-0.4-1.4-1.3c0-1,0.9-1.4,1.8-1.4c0.7,0,1.4,0.3,1.7,0.8L476.6,444.2z"/>
		<path d="M482.7,445.6H479c0,0.8,0.7,1.4,1.5,1.4c0.6,0,1.1-0.3,1.4-0.7l0.7,0.5c-0.5,0.7-1.2,1-2,1c-1.4,0-2.5-1-2.5-2.5
			c0-1.5,1.1-2.5,2.4-2.5c1.4,0,2.3,0.9,2.3,2.5C482.8,445.4,482.8,445.5,482.7,445.6z M481.8,444.9c0-0.8-0.5-1.3-1.3-1.3
			c-0.8,0-1.4,0.6-1.5,1.3H481.8z"/>
		<path d="M483.9,443h0.9c0,0.2,0,0.6,0,0.8h0c0.3-0.5,0.8-0.9,1.4-0.9c0.1,0,0.3,0,0.4,0l0,0.9c-0.1,0-0.3,0-0.4,0
			c-0.9,0-1.3,0.7-1.3,1.5v2.5h-0.9V444C483.9,443.7,483.9,443.3,483.9,443z"/>
		<path d="M489.6,447.7h-1l-1.9-4.7h1l1.4,3.7h0l1.4-3.7h1L489.6,447.7z"/>
		<path d="M492.8,441.9c-0.3,0-0.6-0.3-0.6-0.6c0-0.3,0.3-0.6,0.6-0.6c0.3,0,0.6,0.3,0.6,0.6C493.4,441.6,493.1,441.9,492.8,441.9z
			 M493.2,447.7h-0.9V443h0.9V447.7z"/>
		<path d="M498,444.2c-0.2-0.3-0.6-0.5-1.1-0.5c-1,0-1.5,0.8-1.5,1.7c0,0.9,0.6,1.7,1.6,1.7c0.5,0,0.9-0.2,1.1-0.5l0.6,0.6
			c-0.4,0.5-1,0.7-1.8,0.7c-1.5,0-2.5-1-2.5-2.5c0-1.5,1.1-2.5,2.5-2.5c0.7,0,1.4,0.3,1.8,0.8L498,444.2z"/>
		<path d="M503.9,445.6h-3.8c0,0.8,0.7,1.4,1.5,1.4c0.6,0,1.1-0.3,1.4-0.7l0.7,0.5c-0.5,0.7-1.2,1-2,1c-1.4,0-2.5-1-2.5-2.5
			c0-1.5,1.1-2.5,2.4-2.5c1.4,0,2.3,0.9,2.3,2.5C503.9,445.4,503.9,445.5,503.9,445.6z M503,444.9c0-0.8-0.5-1.3-1.3-1.3
			c-0.8,0-1.4,0.6-1.5,1.3H503z"/>
		<path d="M507.6,444.2c-0.2-0.3-0.6-0.6-1.1-0.6c-0.4,0-0.9,0.2-0.9,0.6c0,0.4,0.4,0.5,1.1,0.7c0.9,0.2,1.6,0.6,1.6,1.4
			c0,1.1-0.9,1.5-1.9,1.5c-0.7,0-1.5-0.3-1.9-0.8l0.7-0.6c0.2,0.4,0.7,0.7,1.3,0.7c0.5,0,0.9-0.2,0.9-0.7c0-0.4-0.4-0.6-1.2-0.8
			c-0.6-0.2-1.4-0.4-1.4-1.3c0-1,0.9-1.4,1.8-1.4c0.7,0,1.4,0.3,1.7,0.8L507.6,444.2z"/>
	</g>
</g>
<g>
	<g>
		<path d="M441.8,469.2c-2.1,0-3.7-1.5-3.7-3.7c0-2.2,1.6-3.7,3.7-3.7c2.2,0,3.8,1.5,3.8,3.7C445.6,467.6,444,469.2,441.8,469.2z
			 M441.8,462.6c-1.6,0-2.7,1.3-2.7,2.8c0,1.6,1,2.8,2.7,2.8c1.6,0,2.7-1.3,2.7-2.8C444.5,463.9,443.4,462.6,441.8,462.6z"/>
		<path d="M447.7,471.4h-0.9v-7.1h0.9v0.7h0c0.3-0.5,0.9-0.9,1.7-0.9c1.4,0,2.4,1.1,2.4,2.5c0,1.4-0.9,2.5-2.4,2.5
			c-0.7,0-1.3-0.3-1.7-0.8h0V471.4z M449.2,464.9c-1,0-1.6,0.8-1.6,1.7c0,0.9,0.6,1.7,1.6,1.7c1,0,1.6-0.8,1.6-1.7
			S450.2,464.9,449.2,464.9z"/>
		<path d="M457.3,466.9h-3.8c0,0.8,0.7,1.4,1.5,1.4c0.6,0,1.1-0.3,1.4-0.7l0.7,0.5c-0.5,0.7-1.2,1-2,1c-1.4,0-2.5-1-2.5-2.5
			c0-1.5,1.1-2.5,2.4-2.5c1.4,0,2.3,0.9,2.3,2.5C457.3,466.7,457.3,466.8,457.3,466.9z M456.4,466.2c0-0.7-0.5-1.3-1.3-1.3
			c-0.8,0-1.4,0.6-1.5,1.3H456.4z"/>
		<path d="M459.3,464.3c0,0.2,0,0.6,0,0.8h0c0.2-0.5,0.9-0.9,1.5-0.9c1.2,0,1.8,0.9,1.8,1.9v2.9h-0.9v-2.6c0-0.8-0.2-1.4-1.1-1.4
			c-0.7,0-1.3,0.6-1.3,1.6v2.5h-0.9v-3.7c0-0.2,0-0.7,0-1H459.3z"/>
		<path d="M465.2,468.1h3.2v0.9h-4.1v-7.1h1V468.1z"/>
		<path d="M469.2,461.9h2.4c1.8,0,3.8,1,3.8,3.5c0,2.4-2,3.5-3.8,3.5h-2.4V461.9z M470.2,468.1h1.2c1.7,0,3-1,3-2.7
			c0-1.7-1.2-2.7-3-2.7h-1.2V468.1z"/>
		<path d="M476.9,469h-1.1l3.1-7.1h0.9l3,7.1h-1.1l-0.7-1.7h-3.4L476.9,469z M478,466.4h2.6l-1.3-3.3L478,466.4z"/>
		<path d="M483.6,461.9h2.2c1.5,0,2.5,0.6,2.5,2c0,1.4-1.1,2-2.6,2h-1.1v3.1h-1V461.9z M484.6,465.1h1c1,0,1.6-0.3,1.6-1.2
			c0-0.8-0.7-1.1-1.6-1.1h-1.1V465.1z"/>
		<path d="M494.2,465.5c-0.2-0.3-0.6-0.6-1.1-0.6c-0.4,0-0.9,0.2-0.9,0.6c0,0.4,0.4,0.5,1.1,0.7c0.9,0.2,1.6,0.6,1.6,1.4
			c0,1.1-0.9,1.5-1.9,1.5c-0.7,0-1.5-0.3-1.9-0.8l0.7-0.6c0.2,0.4,0.7,0.7,1.3,0.7c0.5,0,0.9-0.2,0.9-0.7c0-0.4-0.4-0.6-1.2-0.8
			c-0.6-0.1-1.4-0.4-1.4-1.3c0-1,0.9-1.4,1.8-1.4c0.7,0,1.4,0.3,1.7,0.8L494.2,465.5z"/>
		<path d="M500.4,466.9h-3.8c0,0.8,0.7,1.4,1.5,1.4c0.6,0,1.1-0.3,1.4-0.7l0.7,0.5c-0.5,0.7-1.2,1-2,1c-1.4,0-2.5-1-2.5-2.5
			c0-1.5,1.1-2.5,2.4-2.5c1.4,0,2.3,0.9,2.3,2.5C500.4,466.7,500.4,466.8,500.4,466.9z M499.4,466.2c0-0.7-0.5-1.3-1.3-1.3
			c-0.8,0-1.4,0.6-1.5,1.3H499.4z"/>
		<path d="M501.5,464.3h0.9c0,0.2,0,0.6,0,0.8h0c0.3-0.5,0.8-0.9,1.4-0.9c0.1,0,0.3,0,0.4,0l0,0.9c-0.1,0-0.3,0-0.4,0
			c-0.9,0-1.3,0.7-1.3,1.5v2.5h-0.9v-3.7C501.6,465,501.5,464.6,501.5,464.3z"/>
		<path d="M507.3,469h-1l-1.9-4.7h1l1.4,3.7h0l1.4-3.7h1L507.3,469z"/>
		<path d="M514.3,466.9h-3.8c0,0.8,0.7,1.4,1.5,1.4c0.6,0,1.1-0.3,1.4-0.7l0.7,0.5c-0.5,0.7-1.2,1-2,1c-1.4,0-2.5-1-2.5-2.5
			c0-1.5,1.1-2.5,2.4-2.5c1.4,0,2.3,0.9,2.3,2.5C514.3,466.7,514.3,466.8,514.3,466.9z M513.4,466.2c0-0.7-0.5-1.3-1.3-1.3
			c-0.8,0-1.4,0.6-1.5,1.3H513.4z"/>
		<path d="M515.5,464.3h0.9c0,0.2,0,0.6,0,0.8h0c0.3-0.5,0.8-0.9,1.4-0.9c0.1,0,0.3,0,0.4,0l0,0.9c-0.1,0-0.3,0-0.4,0
			c-0.9,0-1.3,0.7-1.3,1.5v2.5h-0.9v-3.7C515.5,465,515.5,464.6,515.5,464.3z"/>
	</g>
</g>
<g>
	<path d="M291.6,103.4h-1v-7.1h1V103.4z"/>
	<path d="M294,98.6c0,0.2,0,0.6,0,0.8h0c0.2-0.5,0.9-0.9,1.5-0.9c1.2,0,1.8,0.9,1.8,1.9v2.9h-0.9v-2.6c0-0.8-0.2-1.4-1.1-1.4
		c-0.7,0-1.3,0.6-1.3,1.6v2.5h-0.9v-3.7c0-0.2,0-0.7,0-1H294z"/>
	<path d="M301.1,99.4h-1.3v2.5c0,0.6,0.2,0.8,0.7,0.8c0.2,0,0.4,0,0.5-0.1l0,0.8c-0.2,0.1-0.5,0.1-0.8,0.1c-0.9,0-1.4-0.5-1.4-1.5
		v-2.6H298v-0.8h0.9v-1.4h0.9v1.4h1.3V99.4z"/>
	<path d="M306.3,101.3h-3.8c0,0.8,0.7,1.4,1.5,1.4c0.6,0,1.1-0.3,1.4-0.7l0.7,0.5c-0.5,0.7-1.2,1-2,1c-1.4,0-2.5-1-2.5-2.5
		c0-1.5,1.1-2.5,2.4-2.5c1.4,0,2.3,0.9,2.3,2.5C306.3,101.1,306.3,101.2,306.3,101.3z M305.4,100.6c0-0.7-0.5-1.3-1.3-1.3
		c-0.8,0-1.4,0.6-1.5,1.3H305.4z"/>
	<path d="M307.5,98.6h0.9c0,0.2,0,0.6,0,0.8h0c0.3-0.5,0.8-0.9,1.4-0.9c0.1,0,0.3,0,0.4,0l0,0.9c-0.1,0-0.3,0-0.4,0
		c-0.9,0-1.3,0.7-1.3,1.5v2.5h-0.9v-3.7C307.5,99.4,307.5,99,307.5,98.6z"/>
	<path d="M311.8,98.6c0,0.2,0,0.6,0,0.8h0c0.2-0.5,0.9-0.9,1.5-0.9c1.2,0,1.8,0.9,1.8,1.9v2.9h-0.9v-2.6c0-0.8-0.2-1.4-1.1-1.4
		c-0.7,0-1.3,0.6-1.3,1.6v2.5H311v-3.7c0-0.2,0-0.7,0-1H311.8z"/>
	<path d="M321,101.3h-3.8c0,0.8,0.7,1.4,1.5,1.4c0.6,0,1.1-0.3,1.4-0.7l0.7,0.5c-0.5,0.7-1.2,1-2,1c-1.4,0-2.5-1-2.5-2.5
		c0-1.5,1.1-2.5,2.4-2.5c1.4,0,2.3,0.9,2.3,2.5C321.1,101.1,321.1,101.2,321,101.3z M320.1,100.6c0-0.7-0.5-1.3-1.3-1.3
		c-0.8,0-1.4,0.6-1.5,1.3H320.1z"/>
	<path d="M324.5,99.4h-1.3v2.5c0,0.6,0.2,0.8,0.7,0.8c0.2,0,0.4,0,0.5-0.1l0,0.8c-0.2,0.1-0.5,0.1-0.8,0.1c-0.9,0-1.4-0.5-1.4-1.5
		v-2.6h-0.9v-0.8h0.9v-1.4h0.9v1.4h1.3V99.4z"/>
	<path d="M328.1,104.2c0.4,0.5,1.1,0.8,1.7,0.8c1.2,0,1.7-0.8,1.7-1.7v-0.6h0c-0.4,0.5-1,0.8-1.7,0.8c-1.4,0-2.4-1.1-2.4-2.4
		c0-1.4,0.9-2.5,2.4-2.5c0.7,0,1.3,0.3,1.7,0.9h0v-0.8h0.9v4.5c0,1.4-0.6,2.6-2.6,2.6c-0.8,0-1.7-0.3-2.3-0.9L328.1,104.2z
		 M329.9,102.6c1,0,1.6-0.7,1.6-1.7c0-0.9-0.6-1.7-1.6-1.7c-1,0-1.6,0.8-1.6,1.7C328.4,101.8,328.9,102.6,329.9,102.6z"/>
	<path d="M336.8,100.3c0-0.7-0.5-1-1.2-1c-0.5,0-1,0.2-1.3,0.5l-0.5-0.6c0.5-0.4,1.2-0.7,1.9-0.7c1.4,0,2,0.8,2,1.9v2.1
		c0,0.3,0,0.7,0.1,0.9h-0.8c0-0.2-0.1-0.5-0.1-0.7h0c-0.3,0.5-0.9,0.8-1.6,0.8c-0.7,0-1.7-0.4-1.7-1.5c0-1.4,1.7-1.6,3.3-1.6V100.3z
		 M336.6,101.1c-0.9,0-2.1,0.1-2.1,0.9c0,0.6,0.5,0.7,1,0.7c0.9,0,1.4-0.6,1.4-1.4v-0.2H336.6z"/>
	<path d="M341.5,99.4h-1.3v2.5c0,0.6,0.2,0.8,0.7,0.8c0.2,0,0.4,0,0.5-0.1l0,0.8c-0.2,0.1-0.5,0.1-0.8,0.1c-0.9,0-1.4-0.5-1.4-1.5
		v-2.6h-0.9v-0.8h0.9v-1.4h0.9v1.4h1.3V99.4z"/>
	<path d="M346.7,101.3h-3.8c0,0.8,0.7,1.4,1.5,1.4c0.6,0,1.1-0.3,1.4-0.7l0.7,0.5c-0.5,0.7-1.2,1-2,1c-1.4,0-2.5-1-2.5-2.5
		c0-1.5,1.1-2.5,2.4-2.5c1.4,0,2.3,0.9,2.3,2.5C346.7,101.1,346.7,101.2,346.7,101.3z M345.8,100.6c0-0.7-0.5-1.3-1.3-1.3
		c-0.8,0-1.4,0.6-1.5,1.3H345.8z"/>
	<path d="M348.2,98.6l1.1,3.6h0l1.1-3.6h1l1.1,3.6h0l1.1-3.6h1l-1.6,4.7h-1l-1.2-3.6h0l-1.2,3.6h-1l-1.6-4.7H348.2z"/>
	<path d="M358.4,100.3c0-0.7-0.5-1-1.2-1c-0.5,0-1,0.2-1.3,0.5l-0.5-0.6c0.5-0.4,1.2-0.7,1.9-0.7c1.4,0,2,0.8,2,1.9v2.1
		c0,0.3,0,0.7,0.1,0.9h-0.8c0-0.2-0.1-0.5-0.1-0.7h0c-0.3,0.5-0.9,0.8-1.6,0.8c-0.7,0-1.7-0.4-1.7-1.5c0-1.4,1.7-1.6,3.3-1.6V100.3z
		 M358.2,101.1c-0.9,0-2.1,0.1-2.1,0.9c0,0.6,0.5,0.7,1,0.7c0.9,0,1.4-0.6,1.4-1.4v-0.2H358.2z"/>
	<path d="M362.5,102.4L362.5,102.4l1.3-3.7h1l-2.3,5.9c-0.3,0.8-0.7,1.3-1.6,1.3c-0.2,0-0.4,0-0.6-0.1l0.1-0.8
		c0.1,0.1,0.3,0.1,0.5,0.1c0.5,0,0.7-0.3,0.9-0.8l0.3-0.8l-2-4.7h1L362.5,102.4z"/>
</g>
<g>
	<path d="M496.7,210h3.7v0.9h-4.7v-7.1h4.5v0.9h-3.5v2.1h3.3v0.8h-3.3V210z"/>
	<path d="M502.5,210.9h-0.9v-7.6h0.9V210.9z"/>
	<path d="M506.9,207.8c0-0.7-0.5-1-1.2-1c-0.5,0-1,0.2-1.3,0.5l-0.5-0.6c0.5-0.4,1.2-0.7,1.9-0.7c1.4,0,2,0.8,2,1.9v2.1
		c0,0.3,0,0.7,0.1,0.9h-0.8c0-0.2-0.1-0.5-0.1-0.7h0c-0.3,0.5-0.9,0.8-1.6,0.8c-0.7,0-1.7-0.4-1.7-1.5c0-1.4,1.7-1.6,3.3-1.6V207.8z
		 M506.7,208.6c-0.9,0-2.1,0.1-2.1,0.9c0,0.6,0.5,0.7,1,0.7c0.9,0,1.4-0.6,1.4-1.4v-0.2H506.7z"/>
	<path d="M511.8,207.4c-0.2-0.3-0.6-0.6-1.1-0.6c-0.4,0-0.9,0.2-0.9,0.6c0,0.4,0.4,0.5,1.1,0.7c0.9,0.2,1.6,0.6,1.6,1.4
		c0,1.1-0.9,1.5-1.9,1.5c-0.7,0-1.5-0.3-1.9-0.8l0.7-0.6c0.2,0.4,0.7,0.7,1.3,0.7c0.5,0,0.9-0.2,0.9-0.7c0-0.4-0.4-0.6-1.2-0.8
		c-0.6-0.1-1.4-0.4-1.4-1.3c0-1,0.9-1.4,1.8-1.4c0.7,0,1.4,0.3,1.7,0.8L511.8,207.4z"/>
	<path d="M515.9,206.9h-1.3v2.5c0,0.6,0.2,0.8,0.7,0.8c0.2,0,0.4,0,0.5-0.1l0,0.8c-0.2,0.1-0.5,0.1-0.8,0.1c-0.9,0-1.4-0.5-1.4-1.5
		v-2.6h-0.9v-0.8h0.9v-1.4h0.9v1.4h1.3V206.9z"/>
	<path d="M517.2,205.1c-0.3,0-0.6-0.3-0.6-0.6c0-0.3,0.3-0.6,0.6-0.6s0.6,0.3,0.6,0.6C517.8,204.8,517.5,205.1,517.2,205.1z
		 M517.6,210.9h-0.9v-4.7h0.9V210.9z"/>
	<path d="M522.4,207.4c-0.2-0.3-0.6-0.5-1.1-0.5c-1,0-1.5,0.8-1.5,1.7c0,0.9,0.6,1.7,1.6,1.7c0.5,0,0.9-0.2,1.1-0.5l0.6,0.6
		c-0.4,0.5-1,0.7-1.8,0.7c-1.5,0-2.5-1-2.5-2.5c0-1.5,1.1-2.5,2.5-2.5c0.7,0,1.4,0.3,1.8,0.8L522.4,207.4z"/>
	<path d="M527.3,210h3.2v0.9h-4.1v-7.1h1V210z"/>
	<path d="M533.5,211c-1.4,0-2.5-1-2.5-2.5c0-1.5,1.1-2.5,2.5-2.5s2.6,1,2.6,2.5C536,210,534.9,211,533.5,211z M533.5,206.8
		c-1,0-1.6,0.8-1.6,1.7c0,0.9,0.6,1.7,1.6,1.7c1,0,1.6-0.8,1.6-1.7C535,207.6,534.5,206.8,533.5,206.8z"/>
	<path d="M540.1,207.8c0-0.7-0.5-1-1.2-1c-0.5,0-1,0.2-1.3,0.5l-0.5-0.6c0.5-0.4,1.2-0.7,1.9-0.7c1.4,0,2,0.8,2,1.9v2.1
		c0,0.3,0,0.7,0.1,0.9h-0.8c0-0.2-0.1-0.5-0.1-0.7h0c-0.3,0.5-0.9,0.8-1.6,0.8c-0.7,0-1.7-0.4-1.7-1.5c0-1.4,1.7-1.6,3.3-1.6V207.8z
		 M539.9,208.6c-0.9,0-2.1,0.1-2.1,0.9c0,0.6,0.5,0.7,1,0.7c0.9,0,1.4-0.6,1.4-1.4v-0.2H539.9z"/>
	<path d="M544.5,211c-1.5,0-2.4-1.1-2.4-2.5c0-1.4,1-2.5,2.4-2.5c0.8,0,1.4,0.4,1.7,0.8h0v-3.5h0.9v7.6h-0.9v-0.7h0
		C545.9,210.7,545.2,211,544.5,211z M544.7,210.2c1,0,1.6-0.8,1.6-1.7s-0.6-1.7-1.6-1.7c-1,0-1.6,0.8-1.6,1.7
		C543.1,209.4,543.6,210.2,544.7,210.2z"/>
	<path d="M551,203.8h2.4c1.1,0,2.2,0.4,2.2,1.8c0,0.8-0.5,1.3-1.2,1.5v0c0.9,0.1,1.6,0.7,1.6,1.7c0,1.4-1.2,2-2.7,2H551V203.8z
		 M552,206.8h1.3c0.8,0,1.4-0.3,1.4-1.1c0-0.8-0.6-1.1-1.5-1.1H552V206.8z M552,210.1h1.2c0.8,0,1.8-0.3,1.8-1.2
		c0-0.8-0.6-1.2-1.7-1.2H552V210.1z"/>
	<path d="M560.2,207.8c0-0.7-0.5-1-1.2-1c-0.5,0-1,0.2-1.3,0.5l-0.5-0.6c0.5-0.4,1.2-0.7,1.9-0.7c1.4,0,2,0.8,2,1.9v2.1
		c0,0.3,0,0.7,0.1,0.9h-0.8c0-0.2-0.1-0.5-0.1-0.7h0c-0.3,0.5-0.9,0.8-1.6,0.8c-0.7,0-1.7-0.4-1.7-1.5c0-1.4,1.7-1.6,3.3-1.6V207.8z
		 M560,208.6c-0.9,0-2.1,0.1-2.1,0.9c0,0.6,0.5,0.7,1,0.7c0.9,0,1.4-0.6,1.4-1.4v-0.2H560z"/>
	<path d="M563.5,210.9h-0.9v-7.6h0.9V210.9z"/>
	<path d="M567.9,207.8c0-0.7-0.5-1-1.2-1c-0.5,0-1,0.2-1.3,0.5l-0.5-0.6c0.5-0.4,1.2-0.7,1.9-0.7c1.4,0,2,0.8,2,1.9v2.1
		c0,0.3,0,0.7,0.1,0.9h-0.8c0-0.2-0.1-0.5-0.1-0.7h0c-0.3,0.5-0.9,0.8-1.6,0.8c-0.8,0-1.7-0.4-1.7-1.5c0-1.4,1.7-1.6,3.3-1.6V207.8z
		 M567.7,208.6c-0.9,0-2.1,0.1-2.1,0.9c0,0.6,0.5,0.7,1,0.7c0.9,0,1.4-0.6,1.4-1.4v-0.2H567.7z"/>
	<path d="M571.1,206.2c0,0.2,0,0.6,0,0.8h0c0.2-0.5,0.9-0.9,1.5-0.9c1.2,0,1.8,0.9,1.8,1.9v2.9h-0.9v-2.6c0-0.8-0.2-1.4-1.1-1.4
		c-0.7,0-1.3,0.6-1.3,1.6v2.5h-0.9v-3.7c0-0.2,0-0.7,0-1H571.1z"/>
	<path d="M579.2,207.4c-0.2-0.3-0.6-0.5-1.1-0.5c-1,0-1.5,0.8-1.5,1.7c0,0.9,0.6,1.7,1.6,1.7c0.5,0,0.9-0.2,1.1-0.5l0.6,0.6
		c-0.4,0.5-1,0.7-1.8,0.7c-1.5,0-2.5-1-2.5-2.5c0-1.5,1.1-2.5,2.5-2.5c0.7,0,1.4,0.3,1.8,0.8L579.2,207.4z"/>
	<path d="M581.2,205.1c-0.3,0-0.6-0.3-0.6-0.6c0-0.3,0.3-0.6,0.6-0.6s0.6,0.3,0.6,0.6C581.8,204.8,581.5,205.1,581.2,205.1z
		 M581.7,210.9h-0.9v-4.7h0.9V210.9z"/>
	<path d="M584,206.2c0,0.2,0,0.6,0,0.8h0c0.2-0.5,0.9-0.9,1.5-0.9c1.2,0,1.8,0.9,1.8,1.9v2.9h-0.9v-2.6c0-0.8-0.2-1.4-1.1-1.4
		c-0.7,0-1.3,0.6-1.3,1.6v2.5h-0.9v-3.7c0-0.2,0-0.7,0-1H584z"/>
	<path d="M589.2,211.7c0.4,0.5,1.1,0.8,1.7,0.8c1.2,0,1.7-0.8,1.7-1.7v-0.6h0c-0.3,0.5-1,0.8-1.7,0.8c-1.4,0-2.4-1.1-2.4-2.4
		c0-1.4,0.9-2.5,2.4-2.5c0.7,0,1.3,0.3,1.7,0.9h0v-0.8h0.9v4.5c0,1.4-0.7,2.6-2.6,2.6c-0.8,0-1.7-0.3-2.3-0.9L589.2,211.7z
		 M591.1,210.2c1,0,1.6-0.7,1.6-1.7c0-0.9-0.6-1.7-1.6-1.7c-1,0-1.6,0.8-1.6,1.7C589.5,209.4,590.1,210.2,591.1,210.2z"/>
	<path d="M535.5,224l-0.7,0.4c-0.9-1.2-1.5-2.8-1.5-4.4s0.6-3.3,1.5-4.4l0.7,0.4c-0.8,1.1-1.3,2.5-1.3,4S534.7,222.9,535.5,224z"/>
	<path d="M537.8,222h3.7v0.9h-4.7v-7.1h4.5v0.9h-3.5v2.1h3.3v0.8h-3.3V222z"/>
	<path d="M543.7,222h3.2v0.9h-4.1v-7.1h1V222z"/>
	<path d="M547.7,215.8h2.4c1.1,0,2.2,0.4,2.2,1.8c0,0.8-0.5,1.3-1.2,1.5v0c0.9,0.1,1.6,0.7,1.6,1.7c0,1.4-1.2,2-2.7,2h-2.3V215.8z
		 M548.6,218.8h1.3c0.8,0,1.4-0.3,1.4-1.1c0-0.8-0.6-1.1-1.5-1.1h-1.1V218.8z M548.6,222.1h1.2c0.8,0,1.8-0.3,1.8-1.2
		c0-0.8-0.6-1.2-1.7-1.2h-1.3V222.1z"/>
	<path d="M553.7,216l0.7-0.4c0.9,1.2,1.5,2.8,1.5,4.4s-0.6,3.3-1.5,4.4l-0.7-0.4c0.8-1.1,1.3-2.5,1.3-4S554.5,217.1,553.7,216z"/>
</g>
<g id="Working">
	<rect x="129" y="138.1" class="st3" width="21.3" height="21.3"/>
	<path class="st6" d="M139.7,148.9c-0.8,0-1.4,0.7-1.4,1.5c0,0.7,0.5,1.2,1.1,1.4v2h0.6v-2c0.8-0.2,1.3-1,1.1-1.7
		C140.9,149.4,140.3,148.9,139.7,148.9z M139.7,151.2c-0.5,0-0.8-0.4-0.9-0.8c0-0.5,0.4-0.8,0.8-0.9c0.5,0,0.8,0.4,0.9,0.8
		c0,0,0,0,0,0C140.5,150.9,140.1,151.2,139.7,151.2z"/>
	<path class="st6" d="M142.8,146.8v-1.6c0-1.8-1.4-3.2-3.2-3.2c-1.8,0-3.2,1.4-3.2,3.2c0,0,0,0,0,0v1.6h-1.9v8.7h10.2v-8.7H142.8z
		 M137.1,145.2c0-1.4,1.1-2.6,2.6-2.6c1.4,0,2.6,1.1,2.6,2.6v1.6h-5.1V145.2z M144.1,154.9h-9v-7.5h9V154.9z"/>
</g>
<g id="Working_6_">
	<rect x="129" y="331.3" class="st4" width="21.3" height="21.3"/>
	<path class="st6" d="M139.7,342.1c-0.8,0-1.4,0.7-1.4,1.5c0,0.7,0.5,1.2,1.1,1.4v2h0.6v-2c0.8-0.2,1.3-1,1.1-1.7
		C140.9,342.6,140.3,342.1,139.7,342.1z M139.7,344.4c-0.5,0-0.8-0.4-0.9-0.8c0-0.5,0.4-0.8,0.8-0.9c0.5,0,0.8,0.4,0.9,0.8
		c0,0,0,0,0,0C140.5,344,140.1,344.4,139.7,344.4z"/>
	<path class="st6" d="M142.8,340v-1.6c0-1.8-1.4-3.2-3.2-3.2c-1.8,0-3.2,1.4-3.2,3.2c0,0,0,0,0,0v1.6h-1.9v8.7h10.2V340H142.8z
		 M137.1,338.3c0-1.4,1.1-2.6,2.6-2.6c1.4,0,2.6,1.1,2.6,2.6v1.6h-5.1V338.3z M144.1,348.1h-9v-7.5h9V348.1z"/>
</g>
<g id="Working_2_">
	<rect x="73.7" y="108.8" class="st3" width="24.3" height="24.3"/>
	<path class="st6" d="M87.5,121.1H87v-0.5c-0.1-0.8-0.8-1.4-1.6-1.4c-0.7,0.1-1.3,0.6-1.4,1.4v0.5h-0.5c-0.2,0-0.3,0.2-0.3,0.3v2.7
		c0,0.2,0.2,0.3,0.3,0.3h4c0.2,0,0.3-0.2,0.3-0.3v-2.6C87.9,121.3,87.7,121.1,87.5,121.1z M84.7,120.6c0-0.4,0.4-0.8,0.9-0.7
		c0.4,0,0.7,0.3,0.7,0.7v0.5h-1.6L84.7,120.6z M87.2,123.7h-3.3v-1.9h3.3L87.2,123.7z"/>
	<path class="st6" d="M92.1,120c0-1-0.7-2-1.7-2.3c-0.7-0.2-1.4,0-1.9,0.4c-0.3-0.6-0.6-1.2-1.1-1.6c-1.4-1.4-3.5-1.8-5.3-1
		c-1.7,0.8-2.8,2.5-2.8,4.4c0,0.1,0,0.2,0,0.3c-1.5,0.4-2.5,1.8-2.4,3.3c0,0.1,0,0.2,0,0.3c0.1,1.8,1.7,3.3,3.5,3.2h11.3
		c0,0,3.2-0.3,3.2-3.5C94.9,121.7,93.7,120.3,92.1,120z M91.7,126.2H80.4c-1.5,0-2.7-1.1-2.9-2.6c0-0.1,0-0.2,0-0.2
		c-0.1-1.3,0.8-2.5,2.1-2.7c0.2,0,0.3-0.2,0.3-0.4c0-0.2,0-0.3,0-0.5c0-1.6,1-3,2.4-3.7c0.5-0.2,1.1-0.4,1.7-0.4
		c1.1,0,2.1,0.5,2.9,1.3c0.5,0.5,0.9,1.2,1.1,1.9c0.1,0.2,0.3,0.3,0.4,0.2c0.1,0,0.1-0.1,0.2-0.1c0.3-0.5,1-0.7,1.6-0.6
		c0.8,0.3,1.2,1.1,1.2,1.9c0,0.2,0.1,0.4,0.3,0.4c1.6,0.2,2.7,1.5,2.5,3.1C94.1,125.1,93.1,126.1,91.7,126.2L91.7,126.2z"/>
</g>
<g id="Working_1_">
	<rect x="28" y="23.7" width="31.4" height="31.4"/>
</g>
<g>
	<path class="st7" d="M267.3,199.3c-9.6,0-17.3,7.8-17.3,17.3c0,9.6,7.8,17.3,17.3,17.3c9.6,0,17.3-7.8,17.3-17.3
		C284.6,207.1,276.9,199.3,267.3,199.3z M267.3,232.5c-8.8,0-15.9-7.1-15.9-15.9s7.1-15.9,15.9-15.9c8.8,0,15.8,7.1,15.9,15.9
		C283.2,225.4,276.1,232.5,267.3,232.5z"/>
	<path class="st7" d="M258.8,205.7c-0.2-0.2-0.5-0.2-0.8-0.1c-0.3,0.1-0.4,0.4-0.4,0.7v5.5c0,0.3,0.2,0.5,0.4,0.7
		c0.1,0,0.2,0.1,0.3,0.1c0.2,0,0.3-0.1,0.5-0.2l3.5-2.8c0.2-0.1,0.3-0.4,0.3-0.6c0-0.2-0.1-0.4-0.3-0.6L258.8,205.7z M259.1,210.3
		v-2.5l1.5,1.2L259.1,210.3z"/>
	<path class="st7" d="M258.8,214c-0.2-0.2-0.5-0.2-0.8-0.1c-0.3,0.1-0.4,0.4-0.4,0.7v5.5c0,0.3,0.2,0.5,0.4,0.7
		c0.1,0,0.2,0.1,0.3,0.1c0.2,0,0.3-0.1,0.5-0.2l3.5-2.8c0.2-0.1,0.3-0.4,0.3-0.6c0-0.2-0.1-0.4-0.3-0.6L258.8,214z M259.1,218.6
		v-2.5l1.5,1.2L259.1,218.6z"/>
	<path class="st7" d="M281,216.8l-3.5-3.5c-0.1-0.1-0.3-0.2-0.5-0.2c-0.4,0-0.7,0.3-0.7,0.7v2.7h-6.1v-7.6c0-0.4-0.3-0.7-0.7-0.7
		h-6.1v1.5h5.3v6.8h-5.5v1.5h5.5v6.8h-5.3v1.5h6.1c0.4,0,0.7-0.3,0.7-0.7v-7.6h6.1v2.7c0,0.3,0.2,0.6,0.5,0.7c0.1,0,0.2,0.1,0.3,0.1
		c0.2,0,0.4-0.1,0.5-0.2l3.5-3.5C281.3,217.6,281.3,217.1,281,216.8z M277.7,219v-3.4l1.7,1.7L277.7,219z"/>
	<path class="st7" d="M258.8,221.6c-0.1-0.1-0.3-0.2-0.5-0.2c-0.4,0-0.7,0.3-0.7,0.7v5.5c0,0.3,0.2,0.5,0.4,0.7
		c0.1,0,0.2,0.1,0.3,0.1c0.2,0,0.3-0.1,0.5-0.2l3.5-2.8c0,0,0.1-0.1,0.1-0.1c0.3-0.3,0.2-0.8-0.1-1L258.8,221.6z M259.1,226.2v-2.5
		l1.5,1.2L259.1,226.2z"/>
</g>
<path class="st8" d="M403.2,202.5V201h-3.5v-4.3h-4.5v-3.5h-1.5v3.5h-3.2v-3.5H389v3.5h-3.2v-3.5h-1.5v3.5h-3.2v-3.5h-1.5v3.5h-3.2
	v-3.5H375v3.5h-4.1v4.3h-3.5v1.5h3.5v3.2h-3.5v1.5h3.5v3.2h-3.5v1.5h3.5v3.2h-3.5v1.5h3.5v3.2h-3.5v1.5h3.5v4.3h4.1v3.5h1.5v-3.5
	h3.2v3.5h1.5v-3.5h3.2v3.5h1.5v-3.5h3.2v3.5h1.5v-3.5h3.2v3.5h1.5v-3.5h4.5v-4.3h3.5v-1.5h-3.5v-3.2h3.5v-1.5h-3.5v-3.2h3.5v-1.5
	h-3.5v-3.2h3.5v-1.5h-3.5v-3.2H403.2z M398.2,224h-25.8v-25.8h25.8V224z"/>
<path class="st8" d="M466,369.1v-1.5h-3.5v-4.3H458v-3.5h-1.5v3.5h-3.2v-3.5h-1.5v3.5h-3.2v-3.5h-1.5v3.5H444v-3.5h-1.5v3.5h-3.2
	v-3.5h-1.5v3.5h-4.1v4.3h-3.5v1.5h3.5v3.2h-3.5v1.5h3.5v3.2h-3.5v1.5h3.5v3.2h-3.5v1.5h3.5v3.2h-3.5v1.5h3.5v4.3h4.1v3.5h1.5v-3.5
	h3.2v3.5h1.5v-3.5h3.2v3.5h1.5v-3.5h3.2v3.5h1.5v-3.5h3.2v3.5h1.5v-3.5h4.5v-4.3h3.5v-1.5h-3.5v-3.2h3.5v-1.5h-3.5v-3.2h3.5V377
	h-3.5v-3.2h3.5v-1.5h-3.5v-3.2H466z M461,390.6h-25.8v-25.8H461V390.6z"/>
<path class="st8" d="M202.3,369.1v-1.5h-3.5v-4.3h-4.5v-3.5h-1.5v3.5h-3.2v-3.5h-1.5v3.5H185v-3.5h-1.5v3.5h-3.2v-3.5h-1.5v3.5h-3.2
	v-3.5h-1.5v3.5H170v4.3h-3.5v1.5h3.5v3.2h-3.5v1.5h3.5v3.2h-3.5v1.5h3.5v3.2h-3.5v1.5h3.5v3.2h-3.5v1.5h3.5v4.3h4.1v3.5h1.5v-3.5
	h3.2v3.5h1.5v-3.5h3.2v3.5h1.5v-3.5h3.2v3.5h1.5v-3.5h3.2v3.5h1.5v-3.5h4.5v-4.3h3.5v-1.5h-3.5v-3.2h3.5v-1.5h-3.5v-3.2h3.5V377
	h-3.5v-3.2h3.5v-1.5h-3.5v-3.2H202.3z M197.3,390.6h-25.8v-25.8h25.8V390.6z"/>
<g id="Working_3_">
	<path class="st3" d="M583.5,438.8h-26.7c-0.4,0-0.7-0.3-0.7-0.7v-24.6c0-0.4,0.3-0.7,0.7-0.7h26.7c0.4,0,0.7,0.3,0.7,0.7V438
		C584.3,438.5,584,438.8,583.5,438.8z M557.6,437.3h25.2v-23.1h-25.2V437.3z"/>
	<path class="st3" d="M583.5,411.4h-26.7c-0.3,0-0.5-0.2-0.7-0.4c-0.1-0.2-0.1-0.5,0.1-0.7l4.7-6.3c0.1-0.2,0.4-0.3,0.6-0.3h17.2
		c0.2,0,0.5,0.1,0.6,0.3l4.7,6.3c0.2,0.2,0.2,0.5,0.1,0.7C584.1,411.2,583.8,411.4,583.5,411.4z M558.3,409.9H582l-3.6-4.8h-16.5
		L558.3,409.9z"/>
</g>
<g id="Working_4_">
	<path class="st3" d="M229.7,448.5H203c-0.4,0-0.7-0.3-0.7-0.7v-24.6c0-0.4,0.3-0.7,0.7-0.7h26.7c0.4,0,0.7,0.3,0.7,0.7v24.6
		C230.4,448.1,230.1,448.5,229.7,448.5z M203.8,447H229v-23.1h-25.2V447z"/>
	<path class="st3" d="M229.7,421.1H203c-0.3,0-0.5-0.2-0.7-0.4c-0.1-0.2-0.1-0.5,0.1-0.7l4.7-6.3c0.1-0.2,0.4-0.3,0.6-0.3H225
		c0.2,0,0.5,0.1,0.6,0.3l4.7,6.3c0.2,0.2,0.2,0.5,0.1,0.7C230.3,420.9,230,421.1,229.7,421.1z M204.5,419.6h23.7l-3.6-4.8h-16.5
		L204.5,419.6z"/>
</g>
<g id="Working_5_">
	<path class="st3" d="M296.6,448.5h-26.7c-0.4,0-0.7-0.3-0.7-0.7v-24.6c0-0.4,0.3-0.7,0.7-0.7h26.7c0.4,0,0.7,0.3,0.7,0.7v24.6
		C297.3,448.1,297,448.5,296.6,448.5z M270.7,447h25.2v-23.1h-25.2V447z"/>
	<path class="st3" d="M296.6,421.1h-26.7c-0.3,0-0.5-0.2-0.7-0.4c-0.1-0.2-0.1-0.5,0.1-0.7l4.7-6.3c0.1-0.2,0.4-0.3,0.6-0.3h17.2
		c0.2,0,0.5,0.1,0.6,0.3l4.7,6.3c0.2,0.2,0.2,0.5,0.1,0.7C297.1,420.9,296.9,421.1,296.6,421.1z M271.4,419.6h23.7l-3.6-4.8H275
		L271.4,419.6z"/>
</g>
<g id="Reference">
	
		<linearGradient id="Orange_Gradient_1_" gradientUnits="userSpaceOnUse" x1="-1830.5278" y1="-1455.7111" x2="-1790.2225" y2="-1496.0164" gradientTransform="matrix(0 -1 -1 0 -999.5515 -1598.5515)">
		<stop  offset="0" style="stop-color:#D54C27"/>
		<stop  offset="0.3683" style="stop-color:#D65F27"/>
		<stop  offset="1" style="stop-color:#FAB960"/>
	</linearGradient>
	<rect id="Orange_Gradient" x="462.1" y="197.6" class="st9" width="28.5" height="28.5"/>
	<g id="Icon_Test">
		<path class="st6" d="M480.9,212.2c0.2,1.3,1.4,2.2,2.7,2c1.3-0.2,2.2-1.4,2-2.7c-0.2-1.3-1.4-2.2-2.7-2c-1,0.2-1.8,0.9-2,2h-2.8
			c0-0.7-0.2-1.4-0.5-2l3.4-2.9c1,0.8,2.5,0.6,3.3-0.4c0.8-1,0.6-2.5-0.4-3.3c-1-0.8-2.5-0.6-3.3,0.4c-0.3,0.4-0.5,0.9-0.5,1.5
			c0,0.5,0.1,0.9,0.4,1.3l-3.3,2.8c-1.7-2.5-5.1-3.2-7.6-1.5c-2.5,1.7-3.2,5.1-1.5,7.6c1.7,2.5,5.1,3.2,7.6,1.5
			c0.6-0.4,1.1-0.9,1.5-1.5l3.3,2.8c-0.3,0.4-0.4,0.8-0.4,1.3c0,1.3,1.1,2.4,2.4,2.4c1.3,0,2.4-1.1,2.4-2.4c0-1.3-1.1-2.4-2.4-2.4
			c-0.5,0-1,0.2-1.5,0.5l-3.4-2.9c0.3-0.6,0.5-1.3,0.5-2H480.9z M483.2,210.2c0.9,0,1.6,0.7,1.6,1.6c0,0.9-0.7,1.6-1.6,1.6
			c-0.9,0-1.6-0.7-1.6-1.6c0,0,0,0,0,0C481.6,210.9,482.3,210.2,483.2,210.2z M482.4,203.1c0.9,0,1.6,0.7,1.6,1.6s-0.7,1.6-1.6,1.6
			s-1.6-0.7-1.6-1.6S481.5,203.1,482.4,203.1z M482.4,217.4c0.9,0,1.6,0.7,1.6,1.6c0,0.9-0.7,1.6-1.6,1.6c-0.9,0-1.6-0.7-1.6-1.6
			c0,0,0,0,0,0C480.8,218.1,481.5,217.4,482.4,217.4z M472.6,216.6c-2.6,0-4.8-2.1-4.8-4.8c0-2.6,2.1-4.8,4.8-4.8
			c2.6,0,4.8,2.1,4.8,4.8C477.3,214.4,475.2,216.6,472.6,216.6z"/>
	</g>
</g>
<g>
	<g>
		<polyline class="st10" points="670.2,533.9 670.2,535.8 668.3,535.8 		"/>
		<line class="st11" x1="665.5" y1="535.8" x2="110.3" y2="535.8"/>
		<polyline class="st10" points="108.9,535.8 107,535.8 107,533.9 		"/>
		<line class="st12" x1="107" y1="531.1" x2="107" y2="73.8"/>
		<polyline class="st10" points="107,72.4 107,70.5 108.9,70.5 		"/>
		<line class="st11" x1="111.7" y1="70.5" x2="666.9" y2="70.5"/>
		<polyline class="st10" points="668.3,70.5 670.2,70.5 670.2,72.4 		"/>
		<line class="st12" x1="670.2" y1="75.3" x2="670.2" y2="532.5"/>
	</g>
</g>
<rect x="73.7" y="108.4" class="st13" width="610.5" height="412.8"/>
<rect x="128.7" y="137.7" class="st14" width="522.3" height="162.4"/>
<g>
	<g>
		<path class="st15" d="M267,194.9V121c0-2,1.6-3.7,3.7-3.7H365"/>
		<g>
			<path class="st4" d="M358.1,122.2c-0.1-0.2-0.1-0.5,0.2-0.7l6.5-4.1l-6.5-4.1c-0.2-0.1-0.3-0.5-0.2-0.7c0.1-0.2,0.5-0.3,0.7-0.2
				l7.1,4.5c0.1,0.1,0.2,0.3,0.2,0.4s-0.1,0.3-0.2,0.4l-7.1,4.5c-0.1,0.1-0.2,0.1-0.3,0.1C358.4,122.4,358.2,122.3,358.1,122.2z"/>
		</g>
	</g>
</g>
<g>
	<g>
		<line class="st15" x1="267" y1="354" x2="267" y2="251.1"/>
		<g>
			<path class="st4" d="M271.8,257.9c-0.2,0.1-0.5,0.1-0.7-0.2l-4.1-6.5l-4.1,6.5c-0.1,0.2-0.5,0.3-0.7,0.2s-0.3-0.5-0.2-0.7
				l4.5-7.1c0.1-0.1,0.3-0.2,0.4-0.2s0.3,0.1,0.4,0.2l4.5,7.1c0.1,0.1,0.1,0.2,0.1,0.3C272,257.6,271.9,257.8,271.8,257.9z"/>
		</g>
	</g>
</g>
<g>
	<g>
		<path class="st16" d="M363.2,211.2h-42.7c-2,0-3.6,1.6-3.6,3.6v131.6"/>
		<g>
			<path class="st17" d="M312.2,339.6c0.2-0.1,0.5-0.1,0.7,0.2l4.1,6.5l4.1-6.5c0.1-0.2,0.5-0.3,0.7-0.2c0.2,0.1,0.3,0.5,0.2,0.7
				l-4.5,7.1c-0.1,0.1-0.3,0.2-0.4,0.2s-0.3-0.1-0.4-0.2l-4.5-7.1c-0.1-0.1-0.1-0.2-0.1-0.3C312,339.9,312,339.7,312.2,339.6z"/>
		</g>
	</g>
</g>
<g>
	<g>
		<line class="st16" x1="421" y1="422.6" x2="347.6" y2="422.6"/>
		<g>
			<path class="st17" d="M414.1,417.8c-0.1,0.2-0.1,0.5,0.2,0.7l6.5,4.1l-6.5,4.1c-0.2,0.1-0.3,0.5-0.2,0.7c0.1,0.2,0.5,0.3,0.7,0.2
				l7.1-4.5c0.1-0.1,0.2-0.3,0.2-0.4s-0.1-0.3-0.2-0.4l-7.1-4.5c-0.1-0.1-0.2-0.1-0.3-0.1C414.4,417.6,414.2,417.7,414.1,417.8z"/>
		</g>
		<g>
			<path class="st17" d="M354.4,417.8c0.1,0.2,0.1,0.5-0.2,0.7l-6.5,4.1l6.5,4.1c0.2,0.1,0.3,0.5,0.2,0.7c-0.1,0.2-0.5,0.3-0.7,0.2
				l-7.1-4.5c-0.1-0.1-0.2-0.3-0.2-0.4s0.1-0.3,0.2-0.4l7.1-4.5c0.1-0.1,0.2-0.1,0.3-0.1C354.2,417.6,354.3,417.7,354.4,417.8z"/>
		</g>
	</g>
</g>
<g>
	<g>
		<path class="st16" d="M406.9,211.2h42.7c2,0,3.6,1.6,3.6,3.6v131.5"/>
		<g>
			<path class="st17" d="M448.3,339.5c0.2-0.1,0.5-0.1,0.7,0.2l4.1,6.5l4.1-6.5c0.1-0.2,0.5-0.3,0.7-0.2s0.3,0.5,0.2,0.7l-4.5,7.1
				c-0.1,0.1-0.3,0.2-0.4,0.2s-0.3-0.1-0.4-0.2l-4.5-7.1c-0.1-0.1-0.1-0.2-0.1-0.3C448.1,339.7,448.2,339.6,448.3,339.5z"/>
		</g>
	</g>
</g>
<g>
	<g>
		<line class="st18" x1="474.8" y1="226.3" x2="474.8" y2="346.3"/>
		<g>
			<path class="st3" d="M470,339.5c0.2-0.1,0.5-0.1,0.7,0.2l4.1,6.5l4.1-6.5c0.1-0.2,0.5-0.3,0.7-0.2s0.3,0.5,0.2,0.7l-4.5,7.1
				c-0.1,0.1-0.3,0.2-0.4,0.2s-0.3-0.1-0.4-0.2l-4.5-7.1c-0.1-0.1-0.1-0.2-0.1-0.3C469.8,339.7,469.9,339.6,470,339.5z"/>
		</g>
	</g>
</g>
<g>
	<g>
		<path class="st18" d="M404.6,118.1h67c2,0,3.6,1.6,3.6,3.6v69.5"/>
		<g>
			<path class="st3" d="M470.4,184.4c0.2-0.1,0.5-0.1,0.7,0.2l4.1,6.5l4.1-6.5c0.1-0.2,0.5-0.3,0.7-0.2s0.3,0.5,0.2,0.7l-4.5,7.1
				c-0.1,0.1-0.3,0.2-0.4,0.2s-0.3-0.1-0.4-0.2l-4.5-7.1c-0.1-0.1-0.1-0.2-0.1-0.3C470.2,184.6,470.3,184.5,470.4,184.4z"/>
		</g>
	</g>
</g>
<g>
	<circle class="st6" cx="385.6" cy="108.5" r="16.7"/>
	<g>
		<path class="st7" d="M385.5,126.3c-9.8,0-17.7-7.9-17.7-17.7s7.9-17.7,17.7-17.7s17.7,7.9,17.7,17.7
			C403.2,118.4,395.3,126.3,385.5,126.3z M385.5,92.4c-8.9,0-16.2,7.3-16.2,16.2s7.3,16.2,16.2,16.2c8.9,0,16.2-7.3,16.2-16.2
			C401.7,99.7,394.4,92.4,385.5,92.4z"/>
		<path class="st7" d="M394,119.3h-2.8c-0.4,0-0.8-0.3-0.8-0.8v-14.6c-1.5-0.8-3.1-1.2-4.7-1.2c-1.8,0-3.5,0.5-5.1,1.4v14.5
			c0,0.4-0.3,0.8-0.8,0.8H377c-0.4,0-0.8-0.3-0.8-0.8v-16.4c0-0.2,0.1-0.4,0.3-0.6c2.6-2.1,5.8-3.2,9.2-3.1c3.1-0.1,6.2,0.9,8.8,2.8
			c0.2,0.1,0.3,0.4,0.3,0.6v16.8C394.7,118.9,394.4,119.3,394,119.3z M391.9,117.8h1.3v-15.6c-2.2-1.5-4.9-2.3-7.5-2.3
			c-2.8-0.1-5.6,0.8-7.9,2.5v15.4h1.3v-14.2c0-0.3,0.2-0.5,0.4-0.7c1.9-1.1,4-1.7,6.2-1.7c2,0.1,3.9,0.6,5.7,1.5h0.1
			c0.3,0.1,0.4,0.4,0.4,0.7V117.8z"/>
	</g>
</g>
<g>
	<path class="st19" d="M495.8,129.7h-10.2c-0.3,0-0.5-0.2-0.5-0.5v-8.7c0-0.3,0.2-0.5,0.5-0.5h10.2c0.3,0,0.5,0.2,0.5,0.5v8.7
		C496.3,129.5,496.1,129.7,495.8,129.7C495.8,129.7,495.8,129.7,495.8,129.7z M486.1,128.6h9.1V121h-9.1V128.6z"/>
	<path class="st19" d="M493.2,120.5v-2.2c0-1.3-1.2-2.4-2.5-2.3c0,0,0,0,0,0l0,0c-1.3-0.1-2.4,1-2.5,2.3v2.2h-1.1v-2.2
		c0.1-1.9,1.7-3.4,3.6-3.4l0,0c1.9,0,3.5,1.5,3.6,3.4v2.2L493.2,120.5z"/>
	<path class="st19" d="M490.7,125.8L490.7,125.8c-1,0-1.8-0.8-1.8-1.8s0.8-1.8,1.8-1.8l0,0c1,0,1.8,0.8,1.8,1.8c0,0,0,0,0,0l0,0
		C492.5,125,491.7,125.8,490.7,125.8C490.7,125.8,490.7,125.8,490.7,125.8z M490.7,123.3c-0.4,0-0.7,0.3-0.7,0.7
		c0,0.4,0.3,0.7,0.7,0.7l0,0c0.4,0,0.7-0.3,0.7-0.7c0,0,0,0,0,0l0,0c0-0.2-0.1-0.4-0.2-0.5C491,123.4,490.9,123.3,490.7,123.3z"/>
	<rect x="490.1" y="125.1" class="st19" width="1.1" height="2.6"/>
	<path class="st19" d="M490.7,135.9c-0.1,0-0.2,0-0.3-0.1c-1.7-1.2-3.7-2.1-5.7-2.6c-4.2-0.8-6.7-3.1-6.7-6.1c0-1.5,0.5-3,1.4-4.2
		c0.5-1,1-1.8,1-2.9c-0.1-1.5-0.7-2.9-1.9-3.9c-0.1-0.1-0.2-0.2-0.2-0.4c0-0.1,0-0.3,0.1-0.4c0,0,3-3.6,3.7-4.6
		c0.2-0.2,0.5-0.3,0.8-0.1c0,0,0.1,0,0.1,0.1c0.9,1.1,2.3,1.8,3.7,1.9c1.4,0,2.5-0.6,3.6-2.1c0.2-0.2,0.5-0.3,0.8-0.1
		c0,0,0.1,0.1,0.1,0.1c1.1,1.4,2.2,2.1,3.6,2.1c1.5-0.1,2.8-0.8,3.7-1.9c0.1-0.1,0.3-0.2,0.4-0.2c0.2,0,0.3,0.1,0.4,0.2
		c0.7,0.9,3.7,4.5,3.7,4.6c0.1,0.1,0.1,0.3,0.1,0.4c0,0.1-0.1,0.3-0.2,0.4c-1.1,1-1.8,2.4-1.9,3.9c0,1.1,0.5,1.9,1,2.9
		c0.8,1.2,1.3,2.7,1.4,4.2c0,3.1-2.5,5.4-6.7,6.1c-2.1,0.4-4,1.3-5.7,2.6C490.9,135.8,490.8,135.9,490.7,135.9z M479.5,115.6
		c1.2,1.2,1.8,2.7,1.9,4.4c-0.1,1.2-0.5,2.4-1.2,3.4c-0.6,1.1-1.2,2.1-1.2,3.7c0,3.7,4.5,4.8,5.8,5.1c2.1,0.4,4.1,1.3,5.9,2.5
		c1.8-1.2,3.8-2.1,5.9-2.5c1.4-0.2,5.8-1.3,5.8-5.1c0-1.6-0.6-2.6-1.2-3.7c-0.7-1-1.1-2.2-1.2-3.4c0-1.6,0.7-3.2,1.9-4.4
		c-0.7-0.8-2.2-2.7-3-3.7c-1.1,1.1-2.6,1.7-4.1,1.8c-1.6,0-3.1-0.7-4.1-2c-1,1.2-2.5,2-4.1,2c-1.5,0-3-0.7-4.1-1.8
		C481.7,112.9,480.2,114.8,479.5,115.6z"/>
</g>
<g>
	<path class="st19" d="M495.8,323.2h-10.2c-0.3,0-0.5-0.2-0.5-0.5v-8.7c0-0.3,0.2-0.5,0.5-0.5h10.2c0.3,0,0.5,0.2,0.5,0.5v8.7
		C496.3,322.9,496.1,323.2,495.8,323.2C495.8,323.2,495.8,323.2,495.8,323.2z M486.1,322.1h9.1v-7.6h-9.1V322.1z"/>
	<path class="st19" d="M493.2,313.9v-2.2c0-1.3-1.2-2.4-2.5-2.3c0,0,0,0,0,0l0,0c-1.3-0.1-2.4,1-2.5,2.3v2.2h-1.1v-2.2
		c0.1-1.9,1.7-3.4,3.6-3.4l0,0c1.9,0,3.5,1.5,3.6,3.4v2.2L493.2,313.9z"/>
	<path class="st19" d="M490.7,319.2L490.7,319.2c-1,0-1.8-0.8-1.8-1.8c0-1,0.8-1.8,1.8-1.8l0,0c1,0,1.8,0.8,1.8,1.8c0,0,0,0,0,0l0,0
		C492.5,318.4,491.7,319.2,490.7,319.2C490.7,319.2,490.7,319.2,490.7,319.2z M490.7,316.7c-0.4,0-0.7,0.3-0.7,0.7s0.3,0.7,0.7,0.7
		l0,0c0.4,0,0.7-0.3,0.7-0.7c0,0,0,0,0,0l0,0c0-0.2-0.1-0.4-0.2-0.5C491,316.8,490.9,316.7,490.7,316.7z"/>
	<rect x="490.1" y="318.5" class="st19" width="1.1" height="2.6"/>
	<path class="st19" d="M490.7,329.3c-0.1,0-0.2,0-0.3-0.1c-1.7-1.2-3.7-2.1-5.7-2.6c-4.2-0.8-6.7-3.1-6.7-6.1c0-1.5,0.5-3,1.4-4.2
		c0.5-1,1-1.8,1-2.9c-0.1-1.5-0.7-2.9-1.9-3.9c-0.1-0.1-0.2-0.2-0.2-0.4c0-0.1,0-0.3,0.1-0.4c0,0,3-3.6,3.7-4.6
		c0.2-0.2,0.5-0.3,0.8-0.1c0,0,0.1,0,0.1,0.1c0.9,1.1,2.3,1.8,3.7,1.9c1.4,0,2.5-0.6,3.6-2.1c0.2-0.2,0.5-0.3,0.8-0.1
		c0,0,0.1,0.1,0.1,0.1c1.1,1.4,2.2,2.1,3.6,2.1c1.5-0.1,2.8-0.8,3.7-1.9c0.1-0.1,0.3-0.2,0.4-0.2c0.2,0,0.3,0.1,0.4,0.2
		c0.7,0.9,3.7,4.5,3.7,4.6c0.1,0.1,0.1,0.3,0.1,0.4c0,0.1-0.1,0.3-0.2,0.4c-1.1,1-1.8,2.4-1.9,3.9c0,1.1,0.5,1.9,1,2.9
		c0.8,1.2,1.3,2.7,1.4,4.2c0,3.1-2.5,5.4-6.7,6.1c-2.1,0.4-4,1.3-5.7,2.6C490.9,329.3,490.8,329.3,490.7,329.3z M479.5,309
		c1.2,1.2,1.8,2.7,1.9,4.4c-0.1,1.2-0.5,2.4-1.2,3.4c-0.6,1.1-1.2,2.1-1.2,3.7c0,3.7,4.5,4.8,5.8,5.1c2.1,0.4,4.1,1.3,5.9,2.5
		c1.8-1.2,3.8-2.1,5.9-2.5c1.4-0.2,5.8-1.3,5.8-5.1c0-1.6-0.6-2.6-1.2-3.7c-0.7-1-1.1-2.2-1.2-3.4c0-1.6,0.7-3.2,1.9-4.4
		c-0.7-0.8-2.2-2.7-3-3.7c-1.1,1.1-2.6,1.7-4.1,1.8c-1.6,0-3.1-0.7-4.1-2c-1,1.2-2.5,2-4.1,2c-1.5,0-3-0.7-4.1-1.8
		C481.7,306.3,480.2,308.2,479.5,309z"/>
</g>
<g>
	<g>
		<line class="st20" x1="385.6" y1="129.2" x2="385.6" y2="188.9"/>
		<g>
			<path class="st17" d="M380.8,136c0.2,0.1,0.5,0.1,0.7-0.2l4.1-6.5l4.1,6.5c0.1,0.2,0.5,0.3,0.7,0.2s0.3-0.5,0.2-0.7l-4.5-7.1
				c-0.1-0.1-0.3-0.2-0.4-0.2s-0.3,0.1-0.4,0.2l-4.5,7.1c-0.1,0.1-0.1,0.2-0.1,0.3C380.5,135.8,380.6,135.9,380.8,136z"/>
		</g>
		<g>
			<path class="st17" d="M380.8,182.1c0.2-0.1,0.5-0.1,0.7,0.2l4.1,6.5l4.1-6.5c0.1-0.2,0.5-0.3,0.7-0.2s0.3,0.5,0.2,0.7l-4.5,7.1
				c-0.1,0.1-0.3,0.2-0.4,0.2s-0.3-0.1-0.4-0.2l-4.5-7.1c-0.1-0.1-0.1-0.2-0.1-0.3C380.5,182.4,380.6,182.2,380.8,182.1z"/>
		</g>
	</g>
</g>
<rect x="423.3" y="353.9" class="st21" width="184.2" height="137.4"/>
<rect x="160.6" y="353.9" class="st21" width="184.2" height="137.4"/>
<line class="st5" x1="430" y1="433" x2="532.8" y2="433"/>
<line class="st5" x1="430" y1="455.6" x2="532.8" y2="455.6"/>
<rect x="27.6" y="23.7" class="st22" width="701.7" height="558"/>
<g>
	<g>
		<path class="st6" d="M43.8,44.3c-3.2,0-5.9-1-8.4-3c-0.2-0.1-0.3-0.3-0.4-0.4c-0.1-0.1-0.2-0.2-0.1-0.3c0.1-0.1,0.2,0,0.3,0
			c1.1,0.7,2.3,1.2,3.5,1.6c1,0.3,1.9,0.5,2.9,0.7c0.9,0.1,1.8,0.2,2.7,0.2c2.2-0.1,4.3-0.5,6.4-1.4c0.1,0,0.1-0.1,0.2-0.1
			c0.2-0.1,0.3,0,0.4,0.1c0.1,0.1,0,0.3-0.1,0.3c-0.5,0.3-0.9,0.6-1.4,0.9c-1.2,0.6-2.5,1-3.9,1.2C45.1,44.3,44.4,44.3,43.8,44.3z"
			/>
		<path class="st6" d="M42.6,37.9c0.1-0.4,0.2-0.7,0.3-1.1c0.2-0.9,0.4-1.9,0.7-2.8c0.1-0.3,0.1-0.3,0.4-0.3c0.1,0,0.3,0,0.4,0
			c0.2,0,0.3,0.1,0.4,0.3c0.1,0.5,0.2,0.9,0.3,1.4c0.2,0.9,0.4,1.7,0.6,2.6c0,0,0-0.1,0-0.1c0.3-1.2,0.6-2.5,1-3.7
			c0.1-0.3,0.1-0.4,0.5-0.4c0.1,0,0.3,0,0.4,0c0.1,0,0.2,0.1,0.2,0.2c0,0.1,0,0.1,0,0.2c-0.5,1.5-1,3.1-1.5,4.6
			c-0.1,0.3-0.1,0.3-0.4,0.3c-0.1,0-0.3,0-0.4,0c-0.2,0-0.3-0.1-0.4-0.3c-0.2-0.9-0.4-1.7-0.6-2.6c-0.1-0.4-0.2-0.8-0.3-1.1
			c0,0,0-0.1,0-0.1c-0.1,0.6-0.3,1.1-0.4,1.7c-0.2,0.7-0.3,1.4-0.5,2.2C43.1,38.9,43,39,42.7,39c-0.1,0-0.3,0-0.4,0
			c-0.2,0-0.3,0-0.4-0.3c-0.3-1-0.6-2-0.9-3c-0.2-0.5-0.3-1.1-0.5-1.6c-0.1-0.3-0.1-0.4,0.3-0.4c0.1,0,0.2,0,0.4,0
			c0.3,0,0.3,0,0.4,0.3c0.1,0.5,0.3,1.1,0.4,1.6c0.2,0.7,0.4,1.4,0.5,2.1C42.5,37.8,42.5,37.8,42.6,37.9
			C42.5,37.9,42.5,37.9,42.6,37.9z"/>
		<path class="st6" d="M50,39.1c-0.5,0-1-0.1-1.4-0.3c-0.4-0.1-0.5-0.4-0.4-0.8c0-0.1,0.1-0.1,0.2-0.1c0.3,0.1,0.5,0.2,0.8,0.3
			c0.4,0.1,0.9,0.1,1.3,0c0.3-0.1,0.5-0.2,0.6-0.5c0.1-0.3,0-0.6-0.3-0.7c-0.2-0.1-0.4-0.2-0.6-0.3c-0.3-0.1-0.7-0.2-1-0.3
			c-0.5-0.2-0.8-0.6-0.9-1.1c-0.1-0.7,0.2-1.2,0.8-1.6c0.5-0.3,1.1-0.3,1.6-0.2c0.3,0,0.5,0.1,0.8,0.2c0.3,0.1,0.4,0.5,0.3,0.8
			c0,0.1-0.1,0.1-0.2,0.1c-0.2-0.1-0.5-0.2-0.7-0.2c-0.4-0.1-0.7-0.1-1.1,0c-0.4,0.1-0.6,0.4-0.5,0.8c0.1,0.2,0.2,0.3,0.3,0.4
			c0.2,0.1,0.5,0.2,0.7,0.3c0.3,0.1,0.6,0.2,0.9,0.3c0.6,0.2,0.9,0.6,1,1.2c0,0.6-0.2,1.1-0.8,1.4C50.9,39.1,50.4,39.1,50,39.1z"/>
		<path class="st6" d="M51,40.9c-0.4,0-0.9,0.1-1.3,0.1c-0.1,0-0.1,0-0.2,0c0-0.1,0-0.1,0.1-0.2c0.3-0.2,0.6-0.3,1-0.4
			c0.6-0.1,1.2-0.2,1.8,0c0,0,0.1,0,0.1,0c0.3,0.1,0.4,0.2,0.4,0.6c-0.1,0.7-0.2,1.3-0.6,1.9c-0.1,0.2-0.3,0.4-0.5,0.6
			c0,0,0,0-0.1,0c-0.1,0-0.1,0-0.2,0c0-0.1,0-0.1,0-0.2c0.1-0.4,0.3-0.7,0.4-1.1c0.1-0.2,0.1-0.5,0.2-0.7c0.1-0.3-0.1-0.5-0.4-0.6
			C51.5,41,51.3,41,51,40.9z"/>
	</g>
	<g>
		<path class="st6" d="M40.1,38.4c-0.2-0.3-0.3-0.7-0.3-1.1c0-0.7,0-1.4,0-2.2c0-0.9-0.6-1.4-1.4-1.5c-0.8-0.1-1.5,0-2.2,0.3
			c-0.2,0.1-0.4,0.2-0.3,0.5c0,0.4,0,0.4,0.4,0.3c0.5-0.2,1-0.3,1.6-0.3c0.5,0,0.8,0.3,0.9,0.7c0.1,0.3,0.1,0.6,0.1,1
			c-0.1,0-0.2,0-0.2,0c-0.5-0.1-1.1-0.2-1.6-0.1c-0.8,0.1-1.4,0.7-1.5,1.5c-0.1,0.9,0.3,1.6,1.2,1.7c0.8,0.2,1.5,0,2.1-0.6
			c0.1-0.1,0.1-0.1,0.2-0.2c0.1,0.1,0.1,0.2,0.2,0.3c0.1,0.1,0.1,0.2,0.2,0.3c0.1,0.1,0.2,0.1,0.3,0c0.1-0.1,0.2-0.2,0.4-0.2
			C40.2,38.6,40.2,38.5,40.1,38.4z M38.5,38c-0.4,0.3-0.9,0.4-1.4,0.3c-0.3-0.1-0.5-0.2-0.5-0.5c-0.2-0.6,0.1-1.1,0.7-1.2
			c0.5-0.1,1,0,1.5,0.1C38.9,37.2,38.9,37.6,38.5,38z"/>
	</g>
</g>
</svg>
