<?xml version="1.0" encoding="utf-8"?>
<!-- Generator: Adobe Illustrator 23.0.6, SVG Export Plug-In . SVG Version: 6.00 Build 0)  -->
<svg version="1.1" id="Layer_1_copy" xmlns="http://www.w3.org/2000/svg" xmlns:xlink="http://www.w3.org/1999/xlink" x="0px"
	 y="0px" viewBox="0 0 790.4 618.2" style="enable-background:new 0 0 790.4 618.2;" xml:space="preserve">
<style type="text/css">
	.st0{opacity:0.1;fill:#66C1E2;}
	.st1{fill:none;stroke:#047CBC;stroke-width:1.0551;stroke-miterlimit:8;}
	.st2{opacity:0.25;fill:#84C665;}
	.st3{fill:#288942;}
	.st4{fill:#047CBC;}
	.st5{fill:none;stroke:#A5A4A4;stroke-linecap:round;stroke-linejoin:round;stroke-miterlimit:8;}
	.st6{fill:#FFFFFF;}
	.st7{fill:#664FA1;}
	.st8{fill:#D76727;}
	.st9{fill:url(#Orange_Gradient_2_);}
	.st10{fill:none;stroke:#047DBC;stroke-width:0.9507;stroke-linecap:round;stroke-linejoin:round;}
	.st11{fill:none;stroke:#047DBC;stroke-width:0.9507;stroke-linecap:round;stroke-linejoin:round;stroke-dasharray:3.7866,2.8399;}
	.st12{fill:none;stroke:#047DBC;stroke-width:0.9507;stroke-linecap:round;stroke-linejoin:round;stroke-dasharray:3.7986,2.8489;}
	.st13{fill:none;stroke:#248A43;stroke-miterlimit:8;}
	.st14{fill:none;stroke:#288942;stroke-width:0.9913;stroke-miterlimit:8;}
	.st15{fill:none;stroke:#047CBC;stroke-linecap:round;stroke-linejoin:round;}
	.st16{fill:none;stroke:#555B65;stroke-linecap:round;stroke-linejoin:round;}
	.st17{fill:#555B65;}
	.st18{fill:none;stroke:#288942;stroke-linecap:round;stroke-linejoin:round;}
	.st19{fill:#24303F;}
	.st20{fill:none;stroke:#555B65;stroke-miterlimit:10;}
	.st21{fill:none;stroke:#D76727;stroke-linecap:round;stroke-linejoin:round;}
	.st22{fill:none;stroke:#D76727;stroke-linecap:round;stroke-linejoin:round;stroke-dasharray:4.0497,3.0373;}
	.st23{fill:none;stroke:#D76727;stroke-linecap:round;stroke-linejoin:round;stroke-dasharray:3.9226,2.942;}
	.st24{fill:none;stroke:#D76727;stroke-linecap:round;stroke-linejoin:round;stroke-dasharray:3.2948,2.4711;}
	.st25{fill:none;stroke:#D76727;stroke-linecap:round;stroke-linejoin:round;stroke-dasharray:3.2695,2.4521;}
	.st26{fill:none;stroke:#000000;stroke-miterlimit:10;}
</style>
<rect x="143.3" y="335.9" class="st0" width="522.4" height="184"/>
<rect x="143.3" y="336.3" class="st1" width="522.3" height="184"/>
<rect x="143.3" y="149.1" class="st2" width="522.4" height="162.4"/>
<g>
	<path class="st3" d="M127.5,135.5L127.5,135.5l2.2-5.8h1.1l-2.8,7.1h-0.9l-2.8-7.1h1.1L127.5,135.5z"/>
	<path class="st3" d="M131.5,129.7h2.2c1.5,0,2.5,0.6,2.5,2c0,1.4-1.1,2-2.6,2h-1.1v3.1h-1V129.7z M132.5,132.8h1
		c1,0,1.6-0.3,1.6-1.2c0-0.8-0.7-1.1-1.6-1.1h-1.1V132.8z"/>
	<path class="st3" d="M143.3,135.7c-0.5,0.8-1.5,1.3-2.7,1.3c-2.2,0-3.7-1.5-3.7-3.7c0-2.2,1.6-3.7,3.8-3.7c1,0,2,0.4,2.5,1.1
		l-0.8,0.6c-0.3-0.5-1-0.8-1.8-0.8c-1.6,0-2.7,1.3-2.7,2.8c0,1.6,1,2.8,2.7,2.8c0.8,0,1.5-0.3,1.9-0.9L143.3,135.7z"/>
</g>
<g>
	<path class="st4" d="M172.4,344.5h2.2c1.5,0,2.5,0.6,2.5,2c0,1.4-1.1,2-2.6,2h-1.1v3.1h-1V344.5z M173.4,347.6h1
		c1,0,1.6-0.3,1.6-1.2c0-0.8-0.7-1.1-1.6-1.1h-1.1V347.6z"/>
	<path class="st4" d="M178.1,346.8h0.9c0,0.2,0,0.6,0,0.8h0c0.3-0.5,0.8-0.9,1.4-0.9c0.1,0,0.3,0,0.4,0l0,0.9c-0.1,0-0.3,0-0.4,0
		c-0.9,0-1.3,0.7-1.3,1.5v2.5h-0.9v-3.7C178.2,347.6,178.1,347.2,178.1,346.8z"/>
	<path class="st4" d="M182.1,345.7c-0.3,0-0.6-0.3-0.6-0.6c0-0.3,0.3-0.6,0.6-0.6c0.3,0,0.6,0.3,0.6,0.6
		C182.7,345.5,182.4,345.7,182.1,345.7z M182.6,351.6h-0.9v-4.7h0.9V351.6z"/>
	<path class="st4" d="M186.3,351.6h-1l-1.9-4.7h1l1.4,3.7h0l1.4-3.7h1L186.3,351.6z"/>
	<path class="st4" d="M191.9,348.5c0-0.7-0.5-1-1.2-1c-0.5,0-1,0.2-1.3,0.5l-0.5-0.6c0.5-0.4,1.2-0.7,1.9-0.7c1.4,0,2,0.8,2,1.9v2.1
		c0,0.3,0,0.7,0.1,0.9H192c0-0.2-0.1-0.5-0.1-0.7h0c-0.3,0.5-0.9,0.8-1.6,0.8c-0.7,0-1.7-0.4-1.7-1.5c0-1.4,1.7-1.6,3.3-1.6V348.5z
		 M191.7,349.3c-0.9,0-2.1,0.1-2.1,0.9c0,0.6,0.5,0.7,1,0.7c0.9,0,1.4-0.6,1.4-1.4v-0.2H191.7z"/>
	<path class="st4" d="M196.5,347.6h-1.3v2.5c0,0.6,0.2,0.8,0.7,0.8c0.2,0,0.4,0,0.5-0.1l0,0.8c-0.2,0.1-0.5,0.1-0.8,0.1
		c-0.9,0-1.4-0.5-1.4-1.5v-2.6h-0.9v-0.8h0.9v-1.4h0.9v1.4h1.3V347.6z"/>
	<path class="st4" d="M201.8,349.5H198c0,0.8,0.7,1.4,1.5,1.4c0.6,0,1.1-0.3,1.4-0.7l0.7,0.5c-0.5,0.7-1.2,1-2,1
		c-1.4,0-2.5-1-2.5-2.5c0-1.5,1.1-2.5,2.4-2.5c1.4,0,2.3,0.9,2.3,2.5C201.8,349.3,201.8,349.4,201.8,349.5z M200.8,348.8
		c0-0.8-0.5-1.3-1.3-1.3c-0.8,0-1.4,0.6-1.5,1.3H200.8z"/>
	<path class="st4" d="M207.9,348c-0.2-0.3-0.6-0.6-1.1-0.6c-0.4,0-0.9,0.2-0.9,0.6c0,0.4,0.4,0.5,1.1,0.7c0.9,0.2,1.6,0.6,1.6,1.4
		c0,1.1-0.9,1.5-1.9,1.5c-0.7,0-1.5-0.3-1.9-0.8l0.7-0.6c0.2,0.4,0.7,0.7,1.3,0.7c0.5,0,0.9-0.2,0.9-0.7c0-0.4-0.4-0.6-1.2-0.8
		c-0.6-0.2-1.4-0.4-1.4-1.3c0-1,0.9-1.4,1.8-1.4c0.7,0,1.4,0.3,1.7,0.8L207.9,348z"/>
	<path class="st4" d="M212.9,351.6c0-0.2,0-0.6,0-0.8h0c-0.2,0.5-0.9,0.9-1.5,0.9c-1.2,0-1.8-0.9-1.8-1.9v-2.9h0.9v2.6
		c0,0.8,0.2,1.5,1.1,1.5c0.7,0,1.3-0.6,1.3-1.6v-2.5h0.9v3.7c0,0.2,0,0.7,0,1H212.9z"/>
	<path class="st4" d="M216.2,350.8v0.7h-0.9V344h0.9v3.5h0c0.3-0.5,0.9-0.8,1.7-0.8c1.4,0,2.4,1.1,2.4,2.5c0,1.4-0.9,2.5-2.4,2.5
		C217.2,351.7,216.6,351.4,216.2,350.8L216.2,350.8z M217.8,347.5c-1,0-1.6,0.8-1.6,1.7c0,0.9,0.6,1.7,1.6,1.7c1,0,1.6-0.8,1.6-1.7
		C219.3,348.3,218.8,347.5,217.8,347.5z"/>
	<path class="st4" d="M222.3,346.8c0,0.2,0,0.6,0,0.8h0c0.2-0.5,0.9-0.9,1.5-0.9c1.2,0,1.8,0.9,1.8,1.9v2.9h-0.9V349
		c0-0.8-0.2-1.4-1.1-1.4c-0.7,0-1.3,0.6-1.3,1.6v2.5h-0.9v-3.7c0-0.2,0-0.7,0-1H222.3z"/>
	<path class="st4" d="M231.5,349.5h-3.8c0,0.8,0.7,1.4,1.5,1.4c0.6,0,1.1-0.3,1.4-0.7l0.7,0.5c-0.5,0.7-1.2,1-2,1
		c-1.4,0-2.5-1-2.5-2.5c0-1.5,1.1-2.5,2.4-2.5c1.4,0,2.3,0.9,2.3,2.5C231.6,349.3,231.6,349.4,231.5,349.5z M230.6,348.8
		c0-0.8-0.5-1.3-1.3-1.3c-0.8,0-1.4,0.6-1.5,1.3H230.6z"/>
	<path class="st4" d="M235,347.6h-1.3v2.5c0,0.6,0.2,0.8,0.7,0.8c0.2,0,0.4,0,0.5-0.1l0,0.8c-0.2,0.1-0.5,0.1-0.8,0.1
		c-0.9,0-1.4-0.5-1.4-1.5v-2.6h-0.9v-0.8h0.9v-1.4h0.9v1.4h1.3V347.6z"/>
</g>
<g>
	<g>
		<path d="M357.3,474.9h3.7v0.9h-4.7v-7.1h4.5v0.9h-3.5v2.1h3.3v0.8h-3.3V474.9z"/>
		<path d="M362.2,468.7h2.4c1.1,0,2.2,0.4,2.2,1.8c0,0.8-0.5,1.3-1.2,1.5v0c0.9,0.1,1.6,0.7,1.6,1.7c0,1.4-1.2,2-2.7,2h-2.3V468.7z
			 M363.2,471.7h1.3c0.8,0,1.4-0.3,1.4-1.1c0-0.8-0.6-1.1-1.5-1.1h-1.1V471.7z M363.2,475h1.2c0.8,0,1.8-0.3,1.8-1.2
			c0-0.8-0.6-1.2-1.7-1.2h-1.3V475z"/>
		<path d="M372,470c-0.3-0.4-0.8-0.7-1.4-0.7c-0.6,0-1.4,0.3-1.4,1.1c0,0.8,0.6,1,1.4,1.2c0.9,0.3,2.1,0.7,2.1,2.1
			c0,1.5-1.2,2.1-2.4,2.1c-0.9,0-1.8-0.3-2.3-1l0.8-0.6c0.3,0.5,0.9,0.8,1.6,0.8c0.7,0,1.4-0.4,1.4-1.2c0-0.9-0.8-1.1-1.7-1.4
			c-0.9-0.3-1.8-0.7-1.8-2c0-1.4,1.3-2,2.4-2c0.8,0,1.6,0.3,2,0.8L372,470z"/>
		<path d="M380.4,469.6h-2.9l-0.1,1.9c0.3-0.1,0.6-0.1,0.9-0.1c1.4,0,2.4,0.9,2.4,2.2c0,1.5-1.1,2.4-2.5,2.4c-1.1,0-1.9-0.6-2.3-1.4
			l0.9-0.3c0.2,0.6,0.7,0.9,1.4,0.9c0.8,0,1.5-0.6,1.5-1.5c0-1.1-0.8-1.5-1.7-1.5c-0.5,0-1.1,0.2-1.6,0.4l0.1-3.8h3.8V469.6z"/>
		<path d="M386.7,472.3c0,2.1-0.7,3.7-2.4,3.7c-1.7,0-2.4-1.6-2.4-3.7c0-2.1,0.7-3.7,2.4-3.7C385.9,468.5,386.7,470.2,386.7,472.3z
			 M382.8,472.3c0,1.2,0.3,2.9,1.4,2.9c1.1,0,1.4-1.7,1.4-2.9c0-1.2-0.3-2.9-1.4-2.9C383.1,469.3,382.8,471.1,382.8,472.3z"/>
		<path d="M395.6,470.2c-0.4-0.5-1.1-0.8-1.9-0.8c-1.7,0-2.7,1.3-2.7,2.8c0,1.6,1,2.8,2.7,2.8c0.7,0,1.2-0.1,1.6-0.4v-2h-1.6v-0.8
			h2.5v3.4c-0.7,0.4-1.6,0.6-2.7,0.6c-2.2,0-3.8-1.5-3.8-3.7c0-2.2,1.6-3.7,3.8-3.7c1.1,0,2,0.4,2.6,0.9L395.6,470.2z"/>
		<path d="M397.9,468.7h2.4c1.1,0,2.2,0.4,2.2,1.8c0,0.8-0.5,1.3-1.2,1.5v0c0.9,0.1,1.6,0.7,1.6,1.7c0,1.4-1.2,2-2.7,2h-2.3V468.7z
			 M398.9,471.7h1.3c0.8,0,1.4-0.3,1.4-1.1c0-0.8-0.6-1.1-1.5-1.1h-1.1V471.7z M398.9,475h1.2c0.8,0,1.8-0.3,1.8-1.2
			c0-0.8-0.6-1.2-1.7-1.2h-1.3V475z"/>
		<path d="M357.2,487.8h-1v-7.1h1V487.8z"/>
		<path d="M359.6,483.1c0,0.2,0,0.6,0,0.8h0c0.2-0.5,0.9-0.9,1.5-0.9c1.2,0,1.8,0.9,1.8,1.9v2.9H362v-2.6c0-0.8-0.2-1.4-1.1-1.4
			c-0.7,0-1.3,0.6-1.3,1.6v2.5h-0.9v-3.7c0-0.2,0-0.7,0-1H359.6z"/>
		<path d="M367,484.3c-0.2-0.3-0.6-0.6-1.1-0.6c-0.4,0-0.9,0.2-0.9,0.6c0,0.4,0.4,0.5,1.1,0.7c0.9,0.2,1.6,0.6,1.6,1.4
			c0,1.1-0.9,1.5-1.9,1.5c-0.7,0-1.5-0.3-1.9-0.8l0.7-0.6c0.2,0.4,0.7,0.7,1.3,0.7c0.5,0,0.9-0.2,0.9-0.7c0-0.4-0.4-0.6-1.2-0.8
			c-0.6-0.2-1.4-0.4-1.4-1.3c0-1,0.9-1.4,1.8-1.4c0.7,0,1.4,0.3,1.7,0.8L367,484.3z"/>
		<path d="M371,483.8h-1.3v2.5c0,0.6,0.2,0.8,0.7,0.8c0.2,0,0.4,0,0.5-0.1l0,0.8c-0.2,0.1-0.5,0.1-0.8,0.1c-0.9,0-1.4-0.5-1.4-1.5
			v-2.6h-0.9v-0.8h0.9v-1.4h0.9v1.4h1.3V483.8z"/>
		<path d="M374.8,484.7c0-0.7-0.5-1-1.2-1c-0.5,0-1,0.2-1.3,0.5l-0.5-0.6c0.5-0.4,1.2-0.7,1.9-0.7c1.4,0,2,0.8,2,1.9v2.1
			c0,0.3,0,0.7,0.1,0.9h-0.8c0-0.2-0.1-0.5-0.1-0.7h0c-0.3,0.5-0.9,0.8-1.6,0.8c-0.7,0-1.7-0.4-1.7-1.5c0-1.4,1.7-1.6,3.3-1.6V484.7
			z M374.6,485.5c-0.9,0-2.1,0.1-2.1,0.9c0,0.6,0.5,0.7,1,0.7c0.9,0,1.4-0.6,1.4-1.4v-0.2H374.6z"/>
		<path d="M378.1,487.8h-0.9v-7.6h0.9V487.8z"/>
		<path d="M380.5,487.8h-0.9v-7.6h0.9V487.8z"/>
		<path d="M386.4,487.9c-1.5,0-2.4-1.1-2.4-2.5c0-1.4,1-2.5,2.4-2.5c0.8,0,1.4,0.4,1.7,0.8h0v-3.5h0.9v7.6h-0.9V487h0
			C387.8,487.6,387.1,487.9,386.4,487.9z M386.6,487.1c1,0,1.6-0.8,1.6-1.7c0-0.9-0.6-1.7-1.6-1.7c-1,0-1.6,0.8-1.6,1.7
			C385,486.3,385.6,487.1,386.6,487.1z"/>
		<path d="M393.5,484.7c0-0.7-0.5-1-1.2-1c-0.5,0-1,0.2-1.3,0.5l-0.5-0.6c0.5-0.4,1.2-0.7,1.9-0.7c1.4,0,2,0.8,2,1.9v2.1
			c0,0.3,0,0.7,0.1,0.9h-0.8c0-0.2-0.1-0.5-0.1-0.7h0c-0.3,0.5-0.9,0.8-1.6,0.8c-0.7,0-1.7-0.4-1.7-1.5c0-1.4,1.7-1.6,3.3-1.6V484.7
			z M393.3,485.5c-0.9,0-2.1,0.1-2.1,0.9c0,0.6,0.5,0.7,1,0.7c0.9,0,1.4-0.6,1.4-1.4v-0.2H393.3z"/>
		<path d="M398.1,483.8h-1.3v2.5c0,0.6,0.2,0.8,0.7,0.8c0.2,0,0.4,0,0.5-0.1l0,0.8c-0.2,0.1-0.5,0.1-0.8,0.1c-0.9,0-1.4-0.5-1.4-1.5
			v-2.6H395v-0.8h0.9v-1.4h0.9v1.4h1.3V483.8z"/>
		<path d="M401.9,484.7c0-0.7-0.5-1-1.2-1c-0.5,0-1,0.2-1.3,0.5l-0.5-0.6c0.5-0.4,1.2-0.7,1.9-0.7c1.4,0,2,0.8,2,1.9v2.1
			c0,0.3,0,0.7,0.1,0.9H402c0-0.2-0.1-0.5-0.1-0.7h0c-0.3,0.5-0.9,0.8-1.6,0.8c-0.7,0-1.7-0.4-1.7-1.5c0-1.4,1.7-1.6,3.3-1.6V484.7z
			 M401.7,485.5c-0.9,0-2.1,0.1-2.1,0.9c0,0.6,0.5,0.7,1,0.7c0.9,0,1.4-0.6,1.4-1.4v-0.2H401.7z"/>
	</g>
</g>
<g>
	<path d="M518.8,380.9L518.8,380.9l2.2-5.8h1.1l-2.8,7.1h-0.9l-2.8-7.1h1.1L518.8,380.9z"/>
	<path d="M523.2,376.4c-0.3,0-0.6-0.3-0.6-0.6c0-0.3,0.3-0.6,0.6-0.6s0.6,0.3,0.6,0.6C523.8,376.1,523.5,376.4,523.2,376.4z
		 M523.6,382.2h-0.9v-4.7h0.9V382.2z"/>
	<path d="M526.9,381.2L526.9,381.2l1.3-3.7h1l-2.3,5.9c-0.3,0.8-0.7,1.3-1.6,1.3c-0.2,0-0.4,0-0.6-0.1l0.1-0.8
		c0.2,0.1,0.3,0.1,0.5,0.1c0.5,0,0.7-0.3,0.9-0.8l0.3-0.8l-2-4.7h1L526.9,381.2z"/>
	<path d="M533,379.2c0-0.7-0.5-1-1.2-1c-0.5,0-1,0.2-1.3,0.5l-0.5-0.6c0.5-0.4,1.2-0.7,1.9-0.7c1.4,0,2,0.8,2,1.9v2.1
		c0,0.3,0,0.7,0.1,0.9h-0.8c0-0.2-0.1-0.5-0.1-0.7h0c-0.3,0.5-0.9,0.8-1.6,0.8c-0.7,0-1.7-0.4-1.7-1.5c0-1.4,1.7-1.6,3.3-1.6V379.2z
		 M532.7,380c-0.9,0-2.1,0.1-2.1,0.9c0,0.6,0.5,0.7,1,0.7c0.9,0,1.4-0.6,1.4-1.4V380H532.7z"/>
	<path d="M540.2,378.7c-0.2-0.3-0.6-0.6-1.1-0.6c-0.4,0-0.9,0.2-0.9,0.6c0,0.4,0.4,0.5,1.1,0.7c0.9,0.2,1.6,0.6,1.6,1.4
		c0,1.1-0.9,1.5-1.9,1.5c-0.7,0-1.5-0.3-1.9-0.8l0.7-0.6c0.2,0.4,0.7,0.7,1.3,0.7c0.5,0,0.9-0.2,0.9-0.7c0-0.4-0.4-0.6-1.2-0.8
		c-0.6-0.2-1.4-0.4-1.4-1.3c0-1,0.9-1.4,1.8-1.4c0.7,0,1.4,0.3,1.7,0.8L540.2,378.7z"/>
	<path d="M546.3,380.1h-3.8c0,0.8,0.7,1.4,1.5,1.4c0.6,0,1.1-0.3,1.4-0.7l0.7,0.5c-0.5,0.7-1.2,1-2,1c-1.4,0-2.5-1-2.5-2.5
		c0-1.5,1.1-2.5,2.4-2.5c1.4,0,2.3,0.9,2.3,2.5C546.3,379.9,546.3,380,546.3,380.1z M545.4,379.4c0-0.8-0.5-1.3-1.3-1.3
		c-0.8,0-1.4,0.6-1.5,1.3H545.4z"/>
	<path d="M547.5,377.5h0.9c0,0.2,0,0.6,0,0.8h0c0.3-0.5,0.8-0.9,1.4-0.9c0.1,0,0.3,0,0.4,0l0,0.9c-0.1,0-0.3,0-0.4,0
		c-0.9,0-1.3,0.7-1.3,1.5v2.5h-0.9v-3.7C547.5,378.3,547.5,377.8,547.5,377.5z"/>
	<path d="M553.2,382.2h-1l-1.9-4.7h1l1.4,3.7h0l1.4-3.7h1L553.2,382.2z"/>
	<path d="M556.3,376.4c-0.3,0-0.6-0.3-0.6-0.6c0-0.3,0.3-0.6,0.6-0.6s0.6,0.3,0.6,0.6C557,376.1,556.7,376.4,556.3,376.4z
		 M556.8,382.2h-0.9v-4.7h0.9V382.2z"/>
	<path d="M561.6,378.7c-0.2-0.3-0.6-0.5-1.1-0.5c-1,0-1.5,0.8-1.5,1.7c0,0.9,0.6,1.7,1.6,1.7c0.5,0,0.9-0.2,1.1-0.5l0.6,0.6
		c-0.4,0.5-1,0.7-1.8,0.7c-1.5,0-2.5-1-2.5-2.5c0-1.5,1.1-2.5,2.5-2.5c0.7,0,1.4,0.3,1.8,0.8L561.6,378.7z"/>
	<path d="M567.5,380.1h-3.8c0,0.8,0.7,1.4,1.5,1.4c0.6,0,1.1-0.3,1.4-0.7l0.7,0.5c-0.5,0.7-1.2,1-2,1c-1.4,0-2.5-1-2.5-2.5
		c0-1.5,1.1-2.5,2.4-2.5c1.4,0,2.3,0.9,2.3,2.5C567.5,379.9,567.5,380,567.5,380.1z M566.6,379.4c0-0.8-0.5-1.3-1.3-1.3
		c-0.8,0-1.4,0.6-1.5,1.3H566.6z"/>
	<path d="M571.2,378.7c-0.2-0.3-0.6-0.6-1.1-0.6c-0.4,0-0.9,0.2-0.9,0.6c0,0.4,0.4,0.5,1.1,0.7c0.9,0.2,1.6,0.6,1.6,1.4
		c0,1.1-0.9,1.5-1.9,1.5c-0.7,0-1.5-0.3-1.9-0.8l0.7-0.6c0.2,0.4,0.7,0.7,1.3,0.7c0.5,0,0.9-0.2,0.9-0.7c0-0.4-0.4-0.6-1.2-0.8
		c-0.6-0.2-1.4-0.4-1.4-1.3c0-1,0.9-1.4,1.8-1.4c0.7,0,1.4,0.3,1.7,0.8L571.2,378.7z"/>
</g>
<g>
	<path d="M370.5,381.1c-0.5,0.8-1.5,1.3-2.7,1.3c-2.2,0-3.7-1.5-3.7-3.7c0-2.2,1.6-3.7,3.8-3.7c1,0,2,0.4,2.5,1.1l-0.8,0.6
		c-0.3-0.5-1-0.8-1.8-0.8c-1.6,0-2.7,1.3-2.7,2.8c0,1.6,1,2.8,2.7,2.8c0.8,0,1.5-0.3,1.9-0.9L370.5,381.1z"/>
	<path d="M371.6,382.2h-1.1l3.1-7.1h0.9l3,7.1h-1.1l-0.7-1.7h-3.4L371.6,382.2z M372.7,379.6h2.6l-1.3-3.3L372.7,379.6z"/>
	<path d="M381.8,376.5c-0.3-0.4-0.8-0.7-1.4-0.7c-0.6,0-1.4,0.3-1.4,1.1c0,0.8,0.6,1,1.4,1.2c0.9,0.3,2.1,0.7,2.1,2.1
		c0,1.5-1.2,2.1-2.4,2.1c-0.9,0-1.8-0.3-2.3-1l0.8-0.6c0.3,0.5,0.9,0.8,1.6,0.8c0.7,0,1.4-0.4,1.4-1.2c0-0.9-0.8-1.1-1.7-1.4
		c-0.9-0.3-1.8-0.7-1.8-2c0-1.4,1.3-2,2.4-2c0.8,0,1.6,0.3,2,0.8L381.8,376.5z"/>
	<path d="M389.4,378.7c-0.2-0.3-0.6-0.5-1.1-0.5c-1,0-1.5,0.8-1.5,1.7c0,0.9,0.6,1.7,1.6,1.7c0.5,0,0.9-0.2,1.1-0.5l0.6,0.6
		c-0.4,0.5-1,0.7-1.8,0.7c-1.5,0-2.5-1-2.5-2.5c0-1.5,1.1-2.5,2.5-2.5c0.7,0,1.4,0.3,1.8,0.8L389.4,378.7z"/>
	<path d="M393.2,382.3c-1.4,0-2.5-1-2.5-2.5c0-1.5,1.1-2.5,2.5-2.5s2.6,1,2.6,2.5C395.7,381.3,394.6,382.3,393.2,382.3z
		 M393.2,378.1c-1,0-1.6,0.8-1.6,1.7c0,0.9,0.6,1.7,1.6,1.7c1,0,1.6-0.8,1.6-1.7C394.7,378.9,394.2,378.1,393.2,378.1z"/>
	<path d="M397.7,377.5c0,0.2,0,0.6,0,0.8h0c0.2-0.5,0.9-0.9,1.5-0.9c1.2,0,1.8,0.9,1.8,1.9v2.9h-0.9v-2.6c0-0.8-0.2-1.4-1.1-1.4
		c-0.7,0-1.3,0.6-1.3,1.6v2.5h-0.9v-3.7c0-0.2,0-0.7,0-1H397.7z"/>
	<path d="M404.9,378.3h-1.3v2.5c0,0.6,0.2,0.8,0.7,0.8c0.2,0,0.4,0,0.5-0.1l0,0.8c-0.2,0.1-0.5,0.1-0.8,0.1c-0.9,0-1.4-0.5-1.4-1.5
		v-2.6h-0.9v-0.8h0.9v-1.4h0.9v1.4h1.3V378.3z"/>
	<path d="M405.6,377.5h0.9c0,0.2,0,0.6,0,0.8h0c0.3-0.5,0.8-0.9,1.4-0.9c0.1,0,0.3,0,0.4,0l0,0.9c-0.1,0-0.3,0-0.4,0
		c-0.9,0-1.3,0.7-1.3,1.5v2.5h-0.9v-3.7C405.7,378.3,405.7,377.8,405.6,377.5z"/>
	<path d="M411.4,382.3c-1.4,0-2.5-1-2.5-2.5c0-1.5,1.1-2.5,2.5-2.5s2.6,1,2.6,2.5C413.9,381.3,412.8,382.3,411.4,382.3z
		 M411.4,378.1c-1,0-1.6,0.8-1.6,1.7c0,0.9,0.6,1.7,1.6,1.7c1,0,1.6-0.8,1.6-1.7C413,378.9,412.4,378.1,411.4,378.1z"/>
	<path d="M416.1,382.2h-0.9v-7.6h0.9V382.2z"/>
	<path d="M418.5,382.2h-0.9v-7.6h0.9V382.2z"/>
	<path d="M424.4,380.1h-3.8c0,0.8,0.7,1.4,1.5,1.4c0.6,0,1.1-0.3,1.4-0.7l0.7,0.5c-0.5,0.7-1.2,1-2,1c-1.4,0-2.5-1-2.5-2.5
		c0-1.5,1.1-2.5,2.4-2.5c1.4,0,2.3,0.9,2.3,2.5C424.4,379.9,424.4,380,424.4,380.1z M423.5,379.4c0-0.8-0.5-1.3-1.3-1.3
		c-0.8,0-1.4,0.6-1.5,1.3H423.5z"/>
	<path d="M425.5,377.5h0.9c0,0.2,0,0.6,0,0.8h0c0.3-0.5,0.8-0.9,1.4-0.9c0.1,0,0.3,0,0.4,0l0,0.9c-0.1,0-0.3,0-0.4,0
		c-0.9,0-1.3,0.7-1.3,1.5v2.5h-0.9v-3.7C425.6,378.3,425.6,377.8,425.5,377.5z"/>
</g>
<g>
	<path d="M518.1,403.5h0.9c0,0.2,0,0.6,0,0.8h0c0.3-0.5,0.8-0.9,1.4-0.9c0.1,0,0.3,0,0.4,0l0,0.9c-0.1,0-0.3,0-0.4,0
		c-0.9,0-1.3,0.7-1.3,1.5v2.5h-0.9v-3.7C518.2,404.3,518.2,403.8,518.1,403.5z"/>
	<path d="M525.7,402h-2.9l-0.1,1.9c0.3-0.1,0.6-0.1,0.9-0.1c1.4,0,2.4,0.9,2.4,2.2c0,1.5-1.1,2.4-2.5,2.4c-1.1,0-1.9-0.6-2.3-1.4
		l0.9-0.3c0.2,0.6,0.8,0.9,1.4,0.9c0.8,0,1.5-0.6,1.5-1.5c0-1.1-0.8-1.5-1.7-1.5c-0.5,0-1.1,0.2-1.6,0.4l0.1-3.8h3.8V402z"/>
	<path d="M527.9,408.3c-0.4,0-0.7-0.3-0.7-0.7c0-0.4,0.3-0.7,0.7-0.7s0.7,0.3,0.7,0.6C528.6,408,528.3,408.3,527.9,408.3z"/>
	<path d="M533.6,405.8h1v0.8h-1v1.6h-0.9v-1.6h-3.3v-0.9l3-4.6h1.2V405.8z M532.7,402.3L532.7,402.3l-2.3,3.5h2.3V402.3z"/>
	<path d="M536.9,405.7l-1.7-2.2h1.2l1.2,1.6l1.2-1.6h1.1l-1.7,2.2l1.9,2.5h-1.2l-1.3-1.8l-1.3,1.8H535L536.9,405.7z"/>
	<path d="M541.6,408.2h-0.9v-7.6h0.9V408.2z"/>
	<path d="M546.1,405.2c0-0.7-0.5-1-1.2-1c-0.5,0-1,0.2-1.3,0.5l-0.5-0.6c0.5-0.4,1.2-0.7,1.9-0.7c1.4,0,2,0.8,2,1.9v2.1
		c0,0.3,0,0.7,0.1,0.9h-0.8c0-0.2-0.1-0.5-0.1-0.7h0c-0.3,0.5-0.9,0.8-1.6,0.8c-0.8,0-1.7-0.4-1.7-1.5c0-1.4,1.7-1.6,3.3-1.6V405.2z
		 M545.8,406c-0.9,0-2.1,0.1-2.1,0.9c0,0.6,0.5,0.7,1,0.7c0.9,0,1.4-0.6,1.4-1.4V406H545.8z"/>
	<path d="M548.3,403.5h0.9c0,0.2,0,0.6,0,0.8h0c0.3-0.5,0.8-0.9,1.4-0.9c0.1,0,0.3,0,0.4,0l0,0.9c-0.1,0-0.3,0-0.4,0
		c-0.9,0-1.3,0.7-1.3,1.5v2.5h-0.9v-3.7C548.4,404.3,548.4,403.8,548.3,403.5z"/>
	<path d="M552.2,409c0.4,0.5,1.1,0.8,1.7,0.8c1.2,0,1.7-0.8,1.7-1.7v-0.6h0c-0.4,0.5-1,0.8-1.7,0.8c-1.4,0-2.4-1.1-2.4-2.4
		s0.9-2.5,2.4-2.5c0.7,0,1.3,0.3,1.7,0.9h0v-0.8h0.9v4.5c0,1.4-0.7,2.6-2.6,2.6c-0.8,0-1.7-0.3-2.3-0.9L552.2,409z M554.1,407.5
		c1,0,1.6-0.7,1.6-1.7c0-0.9-0.7-1.7-1.6-1.7c-1,0-1.6,0.8-1.6,1.7C552.5,406.7,553.1,407.5,554.1,407.5z"/>
	<path d="M562.4,406.1h-3.8c0,0.8,0.7,1.4,1.5,1.4c0.6,0,1.1-0.3,1.4-0.7l0.7,0.5c-0.5,0.7-1.2,1-2,1c-1.4,0-2.5-1-2.5-2.5
		c0-1.5,1.1-2.5,2.4-2.5c1.4,0,2.3,0.9,2.3,2.5C562.4,405.9,562.4,406,562.4,406.1z M561.5,405.4c0-0.8-0.5-1.3-1.3-1.3
		c-0.8,0-1.4,0.6-1.5,1.3H561.5z"/>
</g>
<g>
	<path d="M366.6,403.4c0.6,0,1.2,0.3,1.5,0.9c0.3-0.6,0.9-0.9,1.6-0.9c1.2,0,1.8,0.9,1.8,1.9v2.9h-0.9v-2.6c0-0.8-0.2-1.4-1-1.4
		c-0.9,0-1.2,0.8-1.2,1.5v2.6h-0.9v-2.8c0-0.7-0.2-1.3-1-1.3c-0.7,0-1.2,0.6-1.2,1.6v2.5h-0.9v-3.7c0-0.2,0-0.7,0-1h0.9
		c0,0.2,0,0.6,0,0.8h0C365.3,403.8,365.8,403.4,366.6,403.4z"/>
	<path d="M376.9,402H374l-0.1,1.9c0.3-0.1,0.6-0.1,0.9-0.1c1.4,0,2.4,0.9,2.4,2.2c0,1.5-1.1,2.4-2.5,2.4c-1.1,0-1.9-0.6-2.3-1.4
		l0.9-0.3c0.2,0.6,0.7,0.9,1.4,0.9c0.8,0,1.5-0.6,1.5-1.5c0-1.1-0.8-1.5-1.7-1.5c-0.5,0-1.1,0.2-1.6,0.4l0.1-3.8h3.8V402z"/>
	<path d="M379.1,408.3c-0.4,0-0.7-0.3-0.7-0.7c0-0.4,0.3-0.7,0.7-0.7s0.7,0.3,0.7,0.6C379.8,408,379.5,408.3,379.1,408.3z"/>
	<path d="M382.1,408.2h-0.9v-7.6h0.9V408.2z"/>
	<path d="M386.5,405.2c0-0.7-0.5-1-1.2-1c-0.5,0-1,0.2-1.3,0.5l-0.5-0.6c0.5-0.4,1.2-0.7,1.9-0.7c1.4,0,2,0.8,2,1.9v2.1
		c0,0.3,0,0.7,0.1,0.9h-0.8c0-0.2-0.1-0.5-0.1-0.7h0c-0.3,0.5-0.9,0.8-1.6,0.8c-0.7,0-1.7-0.4-1.7-1.5c0-1.4,1.7-1.6,3.3-1.6V405.2z
		 M386.3,406c-0.9,0-2.1,0.1-2.1,0.9c0,0.6,0.5,0.7,1,0.7c0.9,0,1.4-0.6,1.4-1.4V406H386.3z"/>
	<path d="M388.8,403.5h0.9c0,0.2,0,0.6,0,0.8h0c0.3-0.5,0.8-0.9,1.4-0.9c0.1,0,0.3,0,0.4,0l0,0.9c-0.1,0-0.3,0-0.4,0
		c-0.9,0-1.3,0.7-1.3,1.5v2.5h-0.9v-3.7C388.8,404.3,388.8,403.8,388.8,403.5z"/>
	<path d="M392.7,409c0.4,0.5,1.1,0.8,1.7,0.8c1.2,0,1.7-0.8,1.7-1.7v-0.6h0c-0.4,0.5-1,0.8-1.7,0.8c-1.4,0-2.4-1.1-2.4-2.4
		s0.9-2.5,2.4-2.5c0.7,0,1.3,0.3,1.7,0.9h0v-0.8h0.9v4.5c0,1.4-0.6,2.6-2.6,2.6c-0.8,0-1.7-0.3-2.3-0.9L392.7,409z M394.5,407.5
		c1,0,1.6-0.7,1.6-1.7c0-0.9-0.6-1.7-1.6-1.7c-1,0-1.6,0.8-1.6,1.7C392.9,406.7,393.5,407.5,394.5,407.5z"/>
	<path d="M402.9,406.1h-3.8c0,0.8,0.7,1.4,1.5,1.4c0.6,0,1.1-0.3,1.4-0.7l0.7,0.5c-0.5,0.7-1.2,1-2,1c-1.4,0-2.5-1-2.5-2.5
		c0-1.5,1.1-2.5,2.4-2.5c1.4,0,2.3,0.9,2.3,2.5C402.9,405.9,402.9,406,402.9,406.1z M401.9,405.4c0-0.8-0.5-1.3-1.3-1.3
		c-0.8,0-1.4,0.6-1.5,1.3H401.9z"/>
</g>
<g>
	<path d="M587.7,463.8h3.7v0.9h-4.7v-7.1h4.5v0.9h-3.5v2.1h3.3v0.8h-3.3V463.8z"/>
	<path d="M592.5,457.6h2.4c1.1,0,2.2,0.4,2.2,1.8c0,0.8-0.5,1.3-1.2,1.5v0c0.9,0.1,1.6,0.7,1.6,1.7c0,1.4-1.2,2-2.7,2h-2.3V457.6z
		 M593.5,460.6h1.3c0.8,0,1.4-0.3,1.4-1.1c0-0.8-0.6-1.1-1.5-1.1h-1.1V460.6z M593.5,463.8h1.2c0.8,0,1.8-0.3,1.8-1.2
		c0-0.8-0.6-1.2-1.7-1.2h-1.3V463.8z"/>
	<path d="M602.3,458.9c-0.3-0.4-0.8-0.7-1.4-0.7c-0.6,0-1.4,0.3-1.4,1.1c0,0.8,0.6,1,1.4,1.2c0.9,0.3,2.1,0.7,2.1,2.1
		c0,1.5-1.2,2.1-2.4,2.1c-0.9,0-1.8-0.3-2.3-1l0.8-0.6c0.3,0.5,0.9,0.8,1.6,0.8c0.7,0,1.4-0.4,1.4-1.2c0-0.9-0.8-1.1-1.7-1.4
		c-0.9-0.3-1.8-0.7-1.8-2c0-1.4,1.3-2,2.4-2c0.8,0,1.6,0.3,2,0.8L602.3,458.9z"/>
	<path d="M609.6,464.7h-1v-5.9l-1.3,1.1l-0.6-0.7l2-1.6h0.9V464.7z"/>
	<path d="M615.8,461.1c0,2.1-0.7,3.7-2.4,3.7c-1.7,0-2.4-1.6-2.4-3.7c0-2.1,0.7-3.7,2.4-3.7C615.1,457.4,615.8,459.1,615.8,461.1z
		 M612,461.1c0,1.2,0.3,2.9,1.4,2.9c1.1,0,1.4-1.7,1.4-2.9c0-1.2-0.3-2.9-1.4-2.9C612.3,458.2,612,459.9,612,461.1z"/>
	<path d="M621.6,461.1c0,2.1-0.7,3.7-2.4,3.7c-1.7,0-2.4-1.6-2.4-3.7c0-2.1,0.7-3.7,2.4-3.7C620.9,457.4,621.6,459.1,621.6,461.1z
		 M617.8,461.1c0,1.2,0.3,2.9,1.4,2.9c1.1,0,1.4-1.7,1.4-2.9c0-1.2-0.3-2.9-1.4-2.9C618.1,458.2,617.8,459.9,617.8,461.1z"/>
	<path d="M630.6,459c-0.4-0.5-1.1-0.8-1.9-0.8c-1.7,0-2.7,1.3-2.7,2.8c0,1.6,1,2.8,2.7,2.8c0.7,0,1.2-0.1,1.6-0.4v-2h-1.6v-0.8h2.5
		v3.4c-0.7,0.4-1.6,0.6-2.7,0.6c-2.2,0-3.8-1.5-3.8-3.7c0-2.2,1.6-3.7,3.8-3.7c1.1,0,2,0.4,2.6,0.9L630.6,459z"/>
	<path d="M632.9,457.6h2.4c1.1,0,2.2,0.4,2.2,1.8c0,0.8-0.5,1.3-1.2,1.5v0c0.9,0.1,1.6,0.7,1.6,1.7c0,1.4-1.2,2-2.7,2h-2.3V457.6z
		 M633.9,460.6h1.3c0.8,0,1.4-0.3,1.4-1.1c0-0.8-0.6-1.1-1.5-1.1h-1.1V460.6z M633.9,463.8h1.2c0.8,0,1.8-0.3,1.8-1.2
		c0-0.8-0.6-1.2-1.7-1.2h-1.3V463.8z"/>
	<path d="M591.6,474v-4.5h1v4.4c0,1,0.4,2,1.8,2s1.8-1,1.8-2v-4.4h1v4.5c0,1.4-0.9,2.8-2.7,2.8S591.6,475.5,591.6,474z"/>
	<path d="M601.1,473.1c-0.2-0.3-0.6-0.6-1.1-0.6c-0.4,0-0.9,0.2-0.9,0.6c0,0.4,0.4,0.5,1.1,0.7c0.9,0.2,1.6,0.6,1.6,1.4
		c0,1.1-0.9,1.5-1.9,1.5c-0.7,0-1.5-0.3-1.9-0.8l0.7-0.6c0.2,0.4,0.7,0.7,1.3,0.7c0.5,0,0.9-0.2,0.9-0.7c0-0.4-0.4-0.6-1.2-0.8
		c-0.6-0.2-1.4-0.4-1.4-1.3c0-1,0.9-1.4,1.8-1.4c0.7,0,1.4,0.3,1.7,0.8L601.1,473.1z"/>
	<path d="M607.3,474.6h-3.8c0,0.8,0.7,1.4,1.5,1.4c0.6,0,1.1-0.3,1.4-0.7l0.7,0.5c-0.5,0.7-1.2,1-2,1c-1.4,0-2.5-1-2.5-2.5
		c0-1.5,1.1-2.5,2.4-2.5c1.4,0,2.3,0.9,2.3,2.5C607.3,474.4,607.3,474.5,607.3,474.6z M606.3,473.9c0-0.8-0.5-1.3-1.3-1.3
		c-0.8,0-1.4,0.6-1.5,1.3H606.3z"/>
	<path d="M608.4,471.9h0.9c0,0.2,0,0.6,0,0.8h0c0.3-0.5,0.8-0.9,1.4-0.9c0.1,0,0.3,0,0.4,0l0,0.9c-0.1,0-0.3,0-0.4,0
		c-0.9,0-1.3,0.7-1.3,1.5v2.5h-0.9v-3.7C608.4,472.7,608.4,472.2,608.4,471.9z"/>
	<path d="M616.3,476.8c-1.5,0-2.4-1.1-2.4-2.5c0-1.4,1-2.5,2.4-2.5c0.8,0,1.4,0.4,1.7,0.8h0v-3.5h0.9v7.6h-0.9v-0.7h0
		C617.7,476.5,617,476.8,616.3,476.8z M616.5,476c1,0,1.6-0.8,1.6-1.7c0-0.9-0.6-1.7-1.6-1.7c-1,0-1.6,0.8-1.6,1.7
		C614.9,475.2,615.5,476,616.5,476z"/>
	<path d="M623.4,473.6c0-0.7-0.5-1-1.2-1c-0.5,0-1,0.2-1.3,0.5l-0.5-0.6c0.5-0.4,1.2-0.7,1.9-0.7c1.4,0,2,0.8,2,1.9v2.1
		c0,0.3,0,0.7,0.1,0.9h-0.8c0-0.2-0.1-0.5-0.1-0.7h0c-0.3,0.5-0.9,0.8-1.6,0.8c-0.8,0-1.7-0.4-1.7-1.5c0-1.4,1.7-1.6,3.3-1.6V473.6z
		 M623.2,474.4c-0.9,0-2.1,0.1-2.1,0.9c0,0.6,0.5,0.7,1,0.7c0.9,0,1.4-0.6,1.4-1.4v-0.2H623.2z"/>
	<path d="M628.1,472.7h-1.3v2.5c0,0.6,0.2,0.8,0.7,0.8c0.2,0,0.4,0,0.5-0.1l0,0.8c-0.2,0.1-0.5,0.1-0.8,0.1c-0.9,0-1.4-0.5-1.4-1.5
		v-2.6H625v-0.8h0.9v-1.4h0.9v1.4h1.3V472.7z"/>
	<path d="M631.8,473.6c0-0.7-0.5-1-1.2-1c-0.5,0-1,0.2-1.3,0.5l-0.5-0.6c0.5-0.4,1.2-0.7,1.9-0.7c1.4,0,2,0.8,2,1.9v2.1
		c0,0.3,0,0.7,0.1,0.9h-0.8c0-0.2-0.1-0.5-0.1-0.7h0c-0.3,0.5-0.9,0.8-1.6,0.8c-0.7,0-1.7-0.4-1.7-1.5c0-1.4,1.7-1.6,3.3-1.6V473.6z
		 M631.6,474.4c-0.9,0-2.1,0.1-2.1,0.9c0,0.6,0.5,0.7,1,0.7c0.9,0,1.4-0.6,1.4-1.4v-0.2H631.6z"/>
	<path d="M589.9,488.7h-1v-7.1h1V488.7z"/>
	<path d="M592.3,483.9c0,0.2,0,0.6,0,0.8h0c0.2-0.5,0.9-0.9,1.5-0.9c1.2,0,1.8,0.9,1.8,1.9v2.9h-0.9V486c0-0.8-0.2-1.4-1.1-1.4
		c-0.7,0-1.3,0.6-1.3,1.6v2.5h-0.9v-3.7c0-0.2,0-0.7,0-1H592.3z"/>
	<path d="M599.6,485.1c-0.2-0.3-0.6-0.6-1.1-0.6c-0.4,0-0.9,0.2-0.9,0.6c0,0.4,0.4,0.5,1.1,0.7c0.9,0.2,1.6,0.6,1.6,1.4
		c0,1.1-0.9,1.5-1.9,1.5c-0.7,0-1.5-0.3-1.9-0.8l0.7-0.6c0.2,0.4,0.7,0.7,1.3,0.7c0.5,0,0.9-0.2,0.9-0.7c0-0.4-0.4-0.6-1.2-0.8
		c-0.6-0.2-1.4-0.4-1.4-1.3c0-1,0.9-1.4,1.8-1.4c0.7,0,1.4,0.3,1.7,0.8L599.6,485.1z"/>
	<path d="M603.7,484.7h-1.3v2.5c0,0.6,0.2,0.8,0.7,0.8c0.2,0,0.4,0,0.5-0.1l0,0.8c-0.2,0.1-0.5,0.1-0.8,0.1c-0.9,0-1.4-0.5-1.4-1.5
		v-2.6h-0.9v-0.8h0.9v-1.4h0.9v1.4h1.3V484.7z"/>
	<path d="M607.5,485.6c0-0.7-0.5-1-1.2-1c-0.5,0-1,0.2-1.3,0.5l-0.5-0.6c0.5-0.4,1.2-0.7,1.9-0.7c1.4,0,2,0.8,2,1.9v2.1
		c0,0.3,0,0.7,0.1,0.9h-0.8c0-0.2-0.1-0.5-0.1-0.7h0c-0.3,0.5-0.9,0.8-1.6,0.8c-0.7,0-1.7-0.4-1.7-1.5c0-1.4,1.7-1.6,3.3-1.6V485.6z
		 M607.2,486.4c-0.9,0-2.1,0.1-2.1,0.9c0,0.6,0.5,0.7,1,0.7c0.9,0,1.4-0.6,1.4-1.4v-0.2H607.2z"/>
	<path d="M610.7,488.7h-0.9v-7.6h0.9V488.7z"/>
	<path d="M613.2,488.7h-0.9v-7.6h0.9V488.7z"/>
	<path d="M619.1,488.8c-1.5,0-2.4-1.1-2.4-2.5c0-1.4,1-2.5,2.4-2.5c0.8,0,1.4,0.4,1.7,0.8h0v-3.5h0.9v7.6h-0.9v-0.7h0
		C620.4,488.5,619.8,488.8,619.1,488.8z M619.3,488c1,0,1.6-0.8,1.6-1.7c0-0.9-0.6-1.7-1.6-1.7c-1,0-1.6,0.8-1.6,1.7
		C617.7,487.2,618.2,488,619.3,488z"/>
	<path d="M626.2,485.6c0-0.7-0.5-1-1.2-1c-0.5,0-1,0.2-1.3,0.5l-0.5-0.6c0.5-0.4,1.2-0.7,1.9-0.7c1.4,0,2,0.8,2,1.9v2.1
		c0,0.3,0,0.7,0.1,0.9h-0.8c0-0.2-0.1-0.5-0.1-0.7h0c-0.3,0.5-0.9,0.8-1.6,0.8c-0.8,0-1.7-0.4-1.7-1.5c0-1.4,1.7-1.6,3.3-1.6V485.6z
		 M625.9,486.4c-0.9,0-2.1,0.1-2.1,0.9c0,0.6,0.5,0.7,1,0.7c0.9,0,1.4-0.6,1.4-1.4v-0.2H625.9z"/>
	<path d="M630.8,484.7h-1.3v2.5c0,0.6,0.2,0.8,0.7,0.8c0.2,0,0.4,0,0.5-0.1l0,0.8c-0.2,0.1-0.5,0.1-0.8,0.1c-0.9,0-1.4-0.5-1.4-1.5
		v-2.6h-0.9v-0.8h0.9v-1.4h0.9v1.4h1.3V484.7z"/>
	<path d="M634.6,485.6c0-0.7-0.5-1-1.2-1c-0.5,0-1,0.2-1.3,0.5l-0.5-0.6c0.5-0.4,1.2-0.7,1.9-0.7c1.4,0,2,0.8,2,1.9v2.1
		c0,0.3,0,0.7,0.1,0.9h-0.8c0-0.2-0.1-0.5-0.1-0.7h0c-0.3,0.5-0.9,0.8-1.6,0.8c-0.8,0-1.7-0.4-1.7-1.5c0-1.4,1.7-1.6,3.3-1.6V485.6z
		 M634.4,486.4c-0.9,0-2.1,0.1-2.1,0.9c0,0.6,0.5,0.7,1,0.7c0.9,0,1.4-0.6,1.4-1.4v-0.2H634.4z"/>
</g>
<g>
	<path d="M414.9,324.8c-0.2-0.3-0.6-0.6-1.1-0.6c-0.4,0-0.9,0.2-0.9,0.6c0,0.4,0.4,0.5,1.1,0.7c0.9,0.2,1.6,0.6,1.6,1.4
		c0,1.1-0.9,1.5-1.9,1.5c-0.7,0-1.5-0.3-1.9-0.8l0.7-0.6c0.2,0.4,0.7,0.7,1.3,0.7c0.5,0,0.9-0.2,0.9-0.7c0-0.4-0.4-0.6-1.2-0.8
		c-0.6-0.1-1.4-0.4-1.4-1.3c0-1,0.9-1.4,1.8-1.4c0.7,0,1.4,0.3,1.7,0.8L414.9,324.8z"/>
	<path d="M419.2,324.8c-0.2-0.3-0.6-0.6-1.1-0.6c-0.4,0-0.9,0.2-0.9,0.6c0,0.4,0.4,0.5,1.1,0.7c0.9,0.2,1.6,0.6,1.6,1.4
		c0,1.1-0.9,1.5-1.9,1.5c-0.7,0-1.5-0.3-1.9-0.8l0.7-0.6c0.2,0.4,0.7,0.7,1.3,0.7c0.5,0,0.9-0.2,0.9-0.7c0-0.4-0.4-0.6-1.2-0.8
		c-0.6-0.1-1.4-0.4-1.4-1.3c0-1,0.9-1.4,1.8-1.4c0.7,0,1.4,0.3,1.7,0.8L419.2,324.8z"/>
	<path d="M421.9,324.3c0.2-0.5,0.8-0.8,1.5-0.8c1.2,0,1.8,0.9,1.8,1.9v2.9h-0.9v-2.6c0-0.8-0.2-1.4-1.1-1.4c-0.7,0-1.3,0.6-1.3,1.6
		v2.5H421v-7.6h0.9L421.9,324.3L421.9,324.3z"/>
</g>
<g>
	<path class="st3" d="M173.8,157.1h2.2c1.5,0,2.5,0.6,2.5,2c0,1.4-1.1,2-2.6,2h-1.1v3.1h-1V157.1z M174.8,160.3h1
		c1,0,1.6-0.3,1.6-1.2c0-0.8-0.7-1.1-1.6-1.1h-1.1V160.3z"/>
	<path class="st3" d="M182.9,164.2c0-0.2,0-0.6,0-0.8h0c-0.2,0.5-0.9,0.9-1.5,0.9c-1.2,0-1.8-0.9-1.8-1.9v-2.9h0.9v2.6
		c0,0.8,0.2,1.5,1.1,1.5c0.7,0,1.3-0.6,1.3-1.6v-2.5h0.9v3.7c0,0.2,0,0.7,0,1H182.9z"/>
	<path class="st3" d="M186.1,163.5v0.7h-0.9v-7.6h0.9v3.5h0c0.3-0.5,0.9-0.8,1.7-0.8c1.4,0,2.4,1.1,2.4,2.5c0,1.4-0.9,2.5-2.4,2.5
		C187.2,164.3,186.5,164,186.1,163.5L186.1,163.5z M187.7,160.1c-1,0-1.6,0.8-1.6,1.7s0.6,1.7,1.6,1.7c1,0,1.6-0.8,1.6-1.7
		C189.3,161,188.7,160.1,187.7,160.1z"/>
	<path class="st3" d="M192.4,164.2h-0.9v-7.6h0.9V164.2z"/>
	<path class="st3" d="M194.3,158.4c-0.3,0-0.6-0.3-0.6-0.6c0-0.3,0.3-0.6,0.6-0.6c0.3,0,0.6,0.3,0.6,0.6
		C195,158.1,194.7,158.4,194.3,158.4z M194.8,164.2h-0.9v-4.7h0.9V164.2z"/>
	<path class="st3" d="M199.6,160.7c-0.2-0.3-0.6-0.5-1.1-0.5c-1,0-1.5,0.8-1.5,1.7c0,0.9,0.6,1.7,1.6,1.7c0.5,0,0.9-0.2,1.1-0.5
		l0.6,0.6c-0.4,0.5-1,0.7-1.8,0.7c-1.5,0-2.5-1-2.5-2.5c0-1.5,1.1-2.5,2.5-2.5c0.7,0,1.4,0.3,1.8,0.8L199.6,160.7z"/>
	<path class="st3" d="M206,160.7c-0.2-0.3-0.6-0.6-1.1-0.6c-0.4,0-0.9,0.2-0.9,0.6c0,0.4,0.4,0.5,1.1,0.7c0.9,0.2,1.6,0.6,1.6,1.4
		c0,1.1-0.9,1.5-1.9,1.5c-0.7,0-1.5-0.3-1.9-0.8l0.7-0.6c0.2,0.4,0.7,0.7,1.3,0.7c0.5,0,0.9-0.2,0.9-0.7c0-0.4-0.4-0.6-1.2-0.8
		c-0.6-0.1-1.4-0.4-1.4-1.3c0-1,0.9-1.4,1.8-1.4c0.7,0,1.4,0.3,1.7,0.8L206,160.7z"/>
	<path class="st3" d="M211.1,164.2c0-0.2,0-0.6,0-0.8h0c-0.2,0.5-0.9,0.9-1.5,0.9c-1.2,0-1.8-0.9-1.8-1.9v-2.9h0.9v2.6
		c0,0.8,0.2,1.5,1.1,1.5c0.7,0,1.3-0.6,1.3-1.6v-2.5h0.9v3.7c0,0.2,0,0.7,0,1H211.1z"/>
	<path class="st3" d="M214.3,163.5v0.7h-0.9v-7.6h0.9v3.5h0c0.3-0.5,0.9-0.8,1.7-0.8c1.4,0,2.4,1.1,2.4,2.5c0,1.4-0.9,2.5-2.4,2.5
		C215.4,164.3,214.7,164,214.3,163.5L214.3,163.5z M215.9,160.1c-1,0-1.6,0.8-1.6,1.7s0.6,1.7,1.6,1.7c1,0,1.6-0.8,1.6-1.7
		C217.5,161,216.9,160.1,215.9,160.1z"/>
	<path class="st3" d="M222.2,160.7c-0.2-0.3-0.6-0.6-1.1-0.6c-0.4,0-0.9,0.2-0.9,0.6c0,0.4,0.4,0.5,1.1,0.7c0.9,0.2,1.6,0.6,1.6,1.4
		c0,1.1-0.9,1.5-1.9,1.5c-0.7,0-1.5-0.3-1.9-0.8l0.7-0.6c0.2,0.4,0.7,0.7,1.3,0.7c0.5,0,0.9-0.2,0.9-0.7c0-0.4-0.4-0.6-1.2-0.8
		c-0.6-0.1-1.4-0.4-1.4-1.3c0-1,0.9-1.4,1.8-1.4c0.7,0,1.4,0.3,1.7,0.8L222.2,160.7z"/>
	<path class="st3" d="M228.3,162.1h-3.8c0,0.8,0.7,1.4,1.5,1.4c0.6,0,1.1-0.3,1.4-0.7l0.7,0.5c-0.5,0.7-1.2,1-2,1
		c-1.4,0-2.5-1-2.5-2.5c0-1.5,1.1-2.5,2.4-2.5c1.4,0,2.3,0.9,2.3,2.5C228.3,161.9,228.3,162,228.3,162.1z M227.4,161.4
		c0-0.7-0.5-1.3-1.3-1.3c-0.8,0-1.4,0.6-1.5,1.3H227.4z"/>
	<path class="st3" d="M231.8,160.3h-1.3v2.5c0,0.6,0.2,0.8,0.7,0.8c0.2,0,0.4,0,0.5-0.1l0,0.8c-0.2,0.1-0.5,0.1-0.8,0.1
		c-0.9,0-1.4-0.5-1.4-1.5v-2.6h-0.9v-0.8h0.9v-1.4h0.9v1.4h1.3V160.3z"/>
</g>
<g>
	<g>
		<path d="M299.7,254.2L299.7,254.2l0-5.7h1v7.1h-1.2l-3.7-5.8h0v5.8h-1v-7.1h1.3L299.7,254.2z"/>
		<path d="M302.6,255.6h-1.1l3.1-7.1h0.9l3,7.1h-1.1l-0.7-1.7h-3.4L302.6,255.6z M303.7,253h2.6l-1.3-3.3L303.7,253z"/>
		<path d="M311.8,255.6h-1v-6.2h-2.3v-0.9h5.5v0.9h-2.3V255.6z"/>
		<path d="M317.5,256.4c0.4,0.5,1.1,0.8,1.7,0.8c1.2,0,1.7-0.8,1.7-1.7v-0.6h0c-0.4,0.5-1,0.8-1.7,0.8c-1.4,0-2.4-1.1-2.4-2.4
			c0-1.4,0.9-2.5,2.4-2.5c0.7,0,1.3,0.3,1.7,0.9h0v-0.8h0.9v4.5c0,1.4-0.6,2.6-2.6,2.6c-0.8,0-1.7-0.3-2.3-0.9L317.5,256.4z
			 M319.4,254.9c1,0,1.6-0.7,1.6-1.7c0-0.9-0.6-1.7-1.6-1.7c-1,0-1.6,0.8-1.6,1.7C317.8,254.1,318.4,254.9,319.4,254.9z"/>
		<path d="M326.2,252.5c0-0.7-0.5-1-1.2-1c-0.5,0-1,0.2-1.3,0.5l-0.5-0.6c0.5-0.4,1.2-0.7,1.9-0.7c1.4,0,2,0.8,2,1.9v2.1
			c0,0.3,0,0.7,0.1,0.9h-0.8c0-0.2-0.1-0.5-0.1-0.7h0c-0.3,0.5-0.9,0.8-1.6,0.8c-0.7,0-1.7-0.4-1.7-1.5c0-1.4,1.7-1.6,3.3-1.6V252.5
			z M326,253.3c-0.9,0-2.1,0.1-2.1,0.9c0,0.6,0.5,0.7,1,0.7c0.9,0,1.4-0.6,1.4-1.4v-0.2H326z"/>
		<path d="M330.9,251.6h-1.3v2.5c0,0.6,0.2,0.8,0.7,0.8c0.2,0,0.4,0,0.5-0.1l0,0.8c-0.2,0.1-0.5,0.1-0.8,0.1c-0.9,0-1.4-0.5-1.4-1.5
			v-2.6h-0.9v-0.8h0.9v-1.4h0.9v1.4h1.3V251.6z"/>
		<path d="M336.1,253.5h-3.8c0,0.8,0.7,1.4,1.5,1.4c0.6,0,1.1-0.3,1.4-0.7l0.7,0.5c-0.5,0.7-1.2,1-2,1c-1.4,0-2.5-1-2.5-2.5
			c0-1.5,1.1-2.5,2.4-2.5c1.4,0,2.3,0.9,2.3,2.5C336.1,253.3,336.1,253.4,336.1,253.5z M335.2,252.8c0-0.7-0.5-1.3-1.3-1.3
			c-0.8,0-1.4,0.6-1.5,1.3H335.2z"/>
		<path d="M337.6,250.9l1.1,3.6h0l1.1-3.6h1l1.1,3.6h0l1.1-3.6h1l-1.6,4.7h-1l-1.2-3.6h0l-1.2,3.6h-1l-1.6-4.7H337.6z"/>
		<path d="M347.8,252.5c0-0.7-0.5-1-1.2-1c-0.5,0-1,0.2-1.3,0.5l-0.5-0.6c0.5-0.4,1.2-0.7,1.9-0.7c1.4,0,2,0.8,2,1.9v2.1
			c0,0.3,0,0.7,0.1,0.9h-0.8c0-0.2-0.1-0.5-0.1-0.7h0c-0.3,0.5-0.9,0.8-1.6,0.8c-0.7,0-1.7-0.4-1.7-1.5c0-1.4,1.7-1.6,3.3-1.6V252.5
			z M347.6,253.3c-0.9,0-2.1,0.1-2.1,0.9c0,0.6,0.5,0.7,1,0.7c0.9,0,1.4-0.6,1.4-1.4v-0.2H347.6z"/>
		<path d="M351.9,254.6L351.9,254.6l1.3-3.7h1l-2.3,5.9c-0.3,0.8-0.7,1.3-1.6,1.3c-0.2,0-0.4,0-0.6-0.1l0.1-0.8
			c0.1,0.1,0.3,0.1,0.5,0.1c0.5,0,0.7-0.3,0.9-0.8l0.3-0.8l-2-4.7h1L351.9,254.6z"/>
	</g>
</g>
<g>
	<path d="M374.8,257.5h-1.1l3.1-7.1h0.9l3,7.1h-1.1l-0.7-1.7h-3.4L374.8,257.5z M375.8,254.9h2.6l-1.3-3.3L375.8,254.9z"/>
	<path d="M382.3,252.8c0,0.2,0,0.6,0,0.8h0c0.2-0.5,0.9-0.9,1.5-0.9c1.2,0,1.8,0.9,1.8,1.9v2.9h-0.9v-2.6c0-0.8-0.2-1.4-1.1-1.4
		c-0.7,0-1.3,0.6-1.3,1.6v2.5h-0.9v-3.7c0-0.2,0-0.7,0-1H382.3z"/>
	<path d="M389.6,254c-0.2-0.3-0.6-0.6-1.1-0.6c-0.4,0-0.9,0.2-0.9,0.6c0,0.4,0.4,0.5,1.1,0.7c0.9,0.2,1.6,0.6,1.6,1.4
		c0,1.1-0.9,1.5-1.9,1.5c-0.7,0-1.5-0.3-1.9-0.8l0.7-0.6c0.2,0.4,0.7,0.7,1.3,0.7c0.5,0,0.9-0.2,0.9-0.7c0-0.4-0.4-0.6-1.2-0.8
		c-0.6-0.1-1.4-0.4-1.4-1.3c0-1,0.9-1.4,1.8-1.4c0.7,0,1.4,0.3,1.7,0.8L389.6,254z"/>
	<path d="M391.8,251.7c-0.3,0-0.6-0.3-0.6-0.6c0-0.3,0.3-0.6,0.6-0.6c0.3,0,0.6,0.3,0.6,0.6C392.5,251.4,392.2,251.7,391.8,251.7z
		 M392.3,257.5h-0.9v-4.7h0.9V257.5z"/>
	<path d="M394.7,256.8v0.7h-0.9V250h0.9v3.5h0c0.3-0.5,0.9-0.8,1.7-0.8c1.4,0,2.4,1.1,2.4,2.5c0,1.4-0.9,2.5-2.4,2.5
		C395.8,257.7,395.1,257.4,394.7,256.8L394.7,256.8z M396.3,253.4c-1,0-1.6,0.8-1.6,1.7s0.6,1.7,1.6,1.7c1,0,1.6-0.8,1.6-1.7
		C397.9,254.3,397.3,253.4,396.3,253.4z"/>
	<path d="M401,257.5H400V250h0.9V257.5z"/>
	<path d="M406.9,255.4h-3.8c0,0.8,0.7,1.4,1.5,1.4c0.6,0,1.1-0.3,1.4-0.7l0.7,0.5c-0.5,0.7-1.2,1-2,1c-1.4,0-2.5-1-2.5-2.5
		c0-1.5,1.1-2.5,2.4-2.5c1.4,0,2.3,0.9,2.3,2.5C406.9,255.2,406.9,255.3,406.9,255.4z M405.9,254.7c0-0.7-0.5-1.3-1.3-1.3
		c-0.8,0-1.4,0.6-1.5,1.3H405.9z"/>
	<path d="M413.7,254c-0.2-0.3-0.6-0.5-1.1-0.5c-1,0-1.5,0.8-1.5,1.7c0,0.9,0.6,1.7,1.6,1.7c0.5,0,0.9-0.2,1.1-0.5l0.6,0.6
		c-0.4,0.5-1,0.7-1.8,0.7c-1.5,0-2.5-1-2.5-2.5c0-1.5,1.1-2.5,2.5-2.5c0.7,0,1.4,0.3,1.8,0.8L413.7,254z"/>
	<path d="M417.4,257.7c-1.4,0-2.5-1-2.5-2.5c0-1.5,1.1-2.5,2.5-2.5s2.6,1,2.6,2.5C420,256.6,418.9,257.7,417.4,257.7z M417.4,253.4
		c-1,0-1.6,0.8-1.6,1.7c0,0.9,0.6,1.7,1.6,1.7c1,0,1.6-0.8,1.6-1.7C419,254.3,418.4,253.4,417.4,253.4z"/>
	<path d="M422,252.8c0,0.2,0,0.6,0,0.8h0c0.2-0.5,0.9-0.9,1.5-0.9c1.2,0,1.8,0.9,1.8,1.9v2.9h-0.9v-2.6c0-0.8-0.2-1.4-1.1-1.4
		c-0.7,0-1.3,0.6-1.3,1.6v2.5h-0.9v-3.7c0-0.2,0-0.7,0-1H422z"/>
	<path d="M429.1,253.6h-1.3v2.5c0,0.6,0.2,0.8,0.7,0.8c0.2,0,0.4,0,0.5-0.1l0,0.8c-0.2,0.1-0.5,0.1-0.8,0.1c-0.9,0-1.4-0.5-1.4-1.5
		v-2.6H426v-0.8h0.9v-1.4h0.9v1.4h1.3V253.6z"/>
	<path d="M429.9,252.8h0.9c0,0.2,0,0.6,0,0.8h0c0.3-0.5,0.8-0.9,1.4-0.9c0.1,0,0.3,0,0.4,0l0,0.9c-0.1,0-0.3,0-0.4,0
		c-0.9,0-1.3,0.7-1.3,1.5v2.5h-0.9v-3.7C429.9,253.6,429.9,253.1,429.9,252.8z"/>
	<path d="M435.7,257.7c-1.4,0-2.5-1-2.5-2.5c0-1.5,1.1-2.5,2.5-2.5s2.6,1,2.6,2.5C438.2,256.6,437.1,257.7,435.7,257.7z
		 M435.7,253.4c-1,0-1.6,0.8-1.6,1.7c0,0.9,0.6,1.7,1.6,1.7c1,0,1.6-0.8,1.6-1.7C437.2,254.3,436.7,253.4,435.7,253.4z"/>
	<path d="M440.3,257.5h-0.9V250h0.9V257.5z"/>
	<path d="M442.8,257.5h-0.9V250h0.9V257.5z"/>
	<path d="M448.7,255.4h-3.8c0,0.8,0.7,1.4,1.5,1.4c0.6,0,1.1-0.3,1.4-0.7l0.7,0.5c-0.5,0.7-1.2,1-2,1c-1.4,0-2.5-1-2.5-2.5
		c0-1.5,1.1-2.5,2.4-2.5c1.4,0,2.3,0.9,2.3,2.5C448.7,255.2,448.7,255.3,448.7,255.4z M447.7,254.7c0-0.7-0.5-1.3-1.3-1.3
		c-0.8,0-1.4,0.6-1.5,1.3H447.7z"/>
	<path d="M449.8,252.8h0.9c0,0.2,0,0.6,0,0.8h0c0.3-0.5,0.8-0.9,1.4-0.9c0.1,0,0.3,0,0.4,0l0,0.9c-0.1,0-0.3,0-0.4,0
		c-0.9,0-1.3,0.7-1.3,1.5v2.5h-0.9v-3.7C449.8,253.6,449.8,253.1,449.8,252.8z"/>
</g>
<g>
	<path class="st4" d="M364.4,94.8h-1.1l3.1-7.1h0.9l3,7.1h-1.1l-0.7-1.7h-3.4L364.4,94.8z M365.4,92.2h2.6l-1.3-3.3L365.4,92.2z"/>
	<path class="st4" d="M373.2,94.8h-1l-1.9-4.7h1l1.4,3.7h0l1.4-3.7h1L373.2,94.8z"/>
	<path class="st4" d="M378.8,91.7c0-0.7-0.5-1-1.2-1c-0.5,0-1,0.2-1.3,0.5l-0.5-0.6c0.5-0.4,1.2-0.7,1.9-0.7c1.4,0,2,0.8,2,1.9v2.1
		c0,0.3,0,0.7,0.1,0.9H379c0-0.2-0.1-0.5-0.1-0.7h0c-0.3,0.5-0.9,0.8-1.6,0.8c-0.7,0-1.7-0.4-1.7-1.5c0-1.4,1.7-1.6,3.3-1.6V91.7z
		 M378.6,92.5c-0.9,0-2.1,0.1-2.1,0.9c0,0.6,0.5,0.7,1,0.7c0.9,0,1.4-0.6,1.4-1.4v-0.2H378.6z"/>
	<path class="st4" d="M381.6,88.9c-0.3,0-0.6-0.3-0.6-0.6c0-0.3,0.3-0.6,0.6-0.6c0.3,0,0.6,0.3,0.6,0.6
		C382.3,88.7,382,88.9,381.6,88.9z M382.1,94.8h-0.9v-4.7h0.9V94.8z"/>
	<path class="st4" d="M384.6,94.8h-0.9v-7.6h0.9V94.8z"/>
	<path class="st4" d="M389,91.7c0-0.7-0.5-1-1.2-1c-0.5,0-1,0.2-1.3,0.5l-0.5-0.6c0.5-0.4,1.2-0.7,1.9-0.7c1.4,0,2,0.8,2,1.9v2.1
		c0,0.3,0,0.7,0.1,0.9h-0.8c0-0.2-0.1-0.5-0.1-0.7h0c-0.3,0.5-0.9,0.8-1.6,0.8c-0.7,0-1.7-0.4-1.7-1.5c0-1.4,1.7-1.6,3.3-1.6V91.7z
		 M388.8,92.5c-0.9,0-2.1,0.1-2.1,0.9c0,0.6,0.5,0.7,1,0.7c0.9,0,1.4-0.6,1.4-1.4v-0.2H388.8z"/>
	<path class="st4" d="M392.3,94v0.7h-0.9v-7.6h0.9v3.5h0c0.3-0.5,0.9-0.8,1.7-0.8c1.4,0,2.4,1.1,2.4,2.5c0,1.4-0.9,2.5-2.4,2.5
		C393.3,94.9,392.6,94.6,392.3,94L392.3,94z M393.8,90.7c-1,0-1.6,0.8-1.6,1.7s0.6,1.7,1.6,1.7c1,0,1.6-0.8,1.6-1.7
		C395.4,91.5,394.9,90.7,393.8,90.7z"/>
	<path class="st4" d="M398,88.9c-0.3,0-0.6-0.3-0.6-0.6c0-0.3,0.3-0.6,0.6-0.6c0.3,0,0.6,0.3,0.6,0.6
		C398.6,88.7,398.4,88.9,398,88.9z M398.5,94.8h-0.9v-4.7h0.9V94.8z"/>
	<path class="st4" d="M400.9,94.8H400v-7.6h0.9V94.8z"/>
	<path class="st4" d="M402.9,88.9c-0.3,0-0.6-0.3-0.6-0.6c0-0.3,0.3-0.6,0.6-0.6c0.3,0,0.6,0.3,0.6,0.6
		C403.5,88.7,403.2,88.9,402.9,88.9z M403.4,94.8h-0.9v-4.7h0.9V94.8z"/>
	<path class="st4" d="M407.2,90.8h-1.3v2.5c0,0.6,0.2,0.8,0.7,0.8c0.2,0,0.4,0,0.5-0.1l0,0.8c-0.2,0.1-0.5,0.1-0.8,0.1
		c-0.9,0-1.4-0.5-1.4-1.5v-2.6h-0.9v-0.8h0.9v-1.4h0.9v1.4h1.3V90.8z"/>
	<path class="st4" d="M409.8,93.8L409.8,93.8l1.3-3.7h1l-2.3,5.9c-0.3,0.8-0.7,1.3-1.6,1.3c-0.2,0-0.4,0-0.6-0.1l0.1-0.8
		c0.1,0.1,0.3,0.1,0.5,0.1c0.5,0,0.7-0.3,0.9-0.8l0.3-0.8l-2-4.7h1L409.8,93.8z"/>
	<path class="st4" d="M420,88.6l-4,5.3h4.1v0.9h-5.3v-0.9l4-5.3h-3.9v-0.9h5.1V88.6z"/>
	<path class="st4" d="M423.3,94.9c-1.4,0-2.5-1-2.5-2.5c0-1.5,1.1-2.5,2.5-2.5s2.6,1,2.6,2.5C425.8,93.9,424.7,94.9,423.3,94.9z
		 M423.3,90.7c-1,0-1.6,0.8-1.6,1.7c0,0.9,0.6,1.7,1.6,1.7c1,0,1.6-0.8,1.6-1.7C424.8,91.5,424.3,90.7,423.3,90.7z"/>
	<path class="st4" d="M427.8,90.1c0,0.2,0,0.6,0,0.8h0c0.2-0.5,0.9-0.9,1.5-0.9c1.2,0,1.8,0.9,1.8,1.9v2.9h-0.9v-2.6
		c0-0.8-0.2-1.4-1.1-1.4c-0.7,0-1.3,0.6-1.3,1.6v2.5H427v-3.7c0-0.2,0-0.7,0-1H427.8z"/>
	<path class="st4" d="M437,92.7h-3.8c0,0.8,0.7,1.4,1.5,1.4c0.6,0,1.1-0.3,1.4-0.7l0.7,0.5c-0.5,0.7-1.2,1-2,1c-1.4,0-2.5-1-2.5-2.5
		c0-1.5,1.1-2.5,2.4-2.5c1.4,0,2.3,0.9,2.3,2.5C437.1,92.5,437.1,92.6,437,92.7z M436.1,92c0-0.7-0.5-1.3-1.3-1.3
		c-0.8,0-1.4,0.6-1.5,1.3H436.1z"/>
</g>
<rect x="472.2" y="424.7" class="st5" width="103" height="64"/>
<g>
	<g>
		<path d="M483.6,436.6L483.6,436.6l2.1-5.4h1.5v7.1h-1v-5.9h0l-2.3,5.9h-0.6l-2.3-5.9h0v5.9h-1v-7.1h1.5L483.6,436.6z"/>
		<path d="M489.3,432.4c-0.3,0-0.6-0.3-0.6-0.6c0-0.3,0.3-0.6,0.6-0.6s0.6,0.3,0.6,0.6C489.9,432.1,489.6,432.4,489.3,432.4z
			 M489.7,438.2h-0.9v-4.7h0.9V438.2z"/>
		<path d="M494.6,434.7c-0.2-0.3-0.6-0.5-1.1-0.5c-1,0-1.5,0.8-1.5,1.7c0,0.9,0.6,1.7,1.6,1.7c0.5,0,0.9-0.2,1.1-0.5l0.6,0.6
			c-0.4,0.5-1,0.7-1.8,0.7c-1.5,0-2.5-1-2.5-2.5c0-1.5,1.1-2.5,2.5-2.5c0.7,0,1.4,0.3,1.8,0.8L494.6,434.7z"/>
		<path d="M496,433.5h0.9c0,0.2,0,0.6,0,0.8h0c0.3-0.5,0.8-0.9,1.4-0.9c0.1,0,0.3,0,0.4,0l0,0.9c-0.1,0-0.3,0-0.4,0
			c-0.9,0-1.3,0.7-1.3,1.5v2.5H496v-3.7C496,434.3,496,433.8,496,433.5z"/>
		<path d="M501.7,438.4c-1.4,0-2.5-1-2.5-2.5c0-1.5,1.1-2.5,2.5-2.5s2.6,1,2.6,2.5C504.3,437.3,503.2,438.4,501.7,438.4z
			 M501.7,434.1c-1,0-1.6,0.8-1.6,1.7c0,0.9,0.6,1.7,1.6,1.7c1,0,1.6-0.8,1.6-1.7C503.3,435,502.8,434.1,501.7,434.1z"/>
		<path d="M508,434.7c-0.2-0.3-0.6-0.6-1.1-0.6c-0.4,0-0.9,0.2-0.9,0.6c0,0.4,0.4,0.5,1.1,0.7c0.9,0.2,1.6,0.6,1.6,1.4
			c0,1.1-0.9,1.5-1.9,1.5c-0.7,0-1.5-0.3-1.9-0.8l0.7-0.6c0.2,0.4,0.7,0.7,1.3,0.7c0.5,0,0.9-0.2,0.9-0.7c0-0.4-0.4-0.6-1.2-0.8
			c-0.6-0.2-1.4-0.4-1.4-1.3c0-1,0.9-1.4,1.8-1.4c0.7,0,1.4,0.3,1.7,0.8L508,434.7z"/>
		<path d="M514.1,436.1h-3.8c0,0.8,0.7,1.4,1.5,1.4c0.6,0,1.1-0.3,1.4-0.7l0.7,0.5c-0.5,0.7-1.2,1-2,1c-1.4,0-2.5-1-2.5-2.5
			c0-1.5,1.1-2.5,2.4-2.5c1.4,0,2.3,0.9,2.3,2.5C514.2,435.9,514.2,436,514.1,436.1z M513.2,435.4c0-0.8-0.5-1.3-1.3-1.3
			c-0.8,0-1.4,0.6-1.5,1.3H513.2z"/>
		<path d="M515.3,433.5h0.9c0,0.2,0,0.6,0,0.8h0c0.3-0.5,0.8-0.9,1.4-0.9c0.1,0,0.3,0,0.4,0l0,0.9c-0.1,0-0.3,0-0.4,0
			c-0.9,0-1.3,0.7-1.3,1.5v2.5h-0.9v-3.7C515.3,434.3,515.3,433.8,515.3,433.5z"/>
		<path d="M521,438.2h-1l-1.9-4.7h1l1.4,3.7h0l1.4-3.7h1L521,438.2z"/>
		<path d="M524.2,432.4c-0.3,0-0.6-0.3-0.6-0.6c0-0.3,0.3-0.6,0.6-0.6c0.3,0,0.6,0.3,0.6,0.6C524.8,432.1,524.5,432.4,524.2,432.4z
			 M524.6,438.2h-0.9v-4.7h0.9V438.2z"/>
		<path d="M529.4,434.7c-0.2-0.3-0.6-0.5-1.1-0.5c-1,0-1.5,0.8-1.5,1.7c0,0.9,0.6,1.7,1.6,1.7c0.5,0,0.9-0.2,1.1-0.5l0.6,0.6
			c-0.4,0.5-1,0.7-1.8,0.7c-1.5,0-2.5-1-2.5-2.5c0-1.5,1.1-2.5,2.5-2.5c0.7,0,1.4,0.3,1.8,0.8L529.4,434.7z"/>
		<path d="M535.3,436.1h-3.8c0,0.8,0.7,1.4,1.5,1.4c0.6,0,1.1-0.3,1.4-0.7l0.7,0.5c-0.5,0.7-1.2,1-2,1c-1.4,0-2.5-1-2.5-2.5
			c0-1.5,1.1-2.5,2.4-2.5c1.4,0,2.3,0.9,2.3,2.5C535.3,435.9,535.3,436,535.3,436.1z M534.4,435.4c0-0.8-0.5-1.3-1.3-1.3
			c-0.8,0-1.4,0.6-1.5,1.3H534.4z"/>
		<path d="M539,434.7c-0.2-0.3-0.6-0.6-1.1-0.6c-0.4,0-0.9,0.2-0.9,0.6c0,0.4,0.4,0.5,1.1,0.7c0.9,0.2,1.6,0.6,1.6,1.4
			c0,1.1-0.9,1.5-1.9,1.5c-0.7,0-1.5-0.3-1.9-0.8l0.7-0.6c0.2,0.4,0.7,0.7,1.3,0.7c0.5,0,0.9-0.2,0.9-0.7c0-0.4-0.4-0.6-1.2-0.8
			c-0.6-0.2-1.4-0.4-1.4-1.3c0-1,0.9-1.4,1.8-1.4c0.7,0,1.4,0.3,1.7,0.8L539,434.7z"/>
	</g>
</g>
<g>
	<g>
		<path d="M483.5,453.3c-0.3-0.4-0.8-0.7-1.4-0.7c-0.6,0-1.4,0.3-1.4,1.1c0,0.8,0.6,1,1.4,1.2c0.9,0.3,2.1,0.7,2.1,2.1
			c0,1.5-1.2,2.1-2.4,2.1c-0.9,0-1.8-0.3-2.3-1l0.8-0.6c0.3,0.5,0.9,0.8,1.6,0.8c0.7,0,1.4-0.4,1.4-1.2c0-0.9-0.8-1.1-1.7-1.4
			c-0.9-0.3-1.8-0.7-1.8-2c0-1.4,1.3-2,2.4-2c0.8,0,1.6,0.3,2,0.8L483.5,453.3z"/>
		<path d="M487.8,455.1h-1.3v2.5c0,0.6,0.2,0.8,0.7,0.8c0.2,0,0.4,0,0.5-0.1l0,0.8c-0.2,0.1-0.5,0.1-0.8,0.1c-0.9,0-1.4-0.5-1.4-1.5
			v-2.6h-0.9v-0.8h0.9V453h0.9v1.4h1.3V455.1z"/>
		<path d="M491.5,456c0-0.7-0.5-1-1.2-1c-0.5,0-1,0.2-1.3,0.5l-0.5-0.6c0.5-0.4,1.2-0.7,1.9-0.7c1.4,0,2,0.8,2,1.9v2.1
			c0,0.3,0,0.7,0.1,0.9h-0.8c0-0.2-0.1-0.5-0.1-0.7h0c-0.3,0.5-0.9,0.8-1.6,0.8c-0.7,0-1.7-0.4-1.7-1.5c0-1.4,1.7-1.6,3.3-1.6V456z
			 M491.3,456.9c-0.9,0-2.1,0.1-2.1,0.9c0,0.6,0.5,0.7,1,0.7c0.9,0,1.4-0.6,1.4-1.4v-0.2H491.3z"/>
		<path d="M496.2,455.1h-1.3v2.5c0,0.6,0.2,0.8,0.7,0.8c0.2,0,0.4,0,0.5-0.1l0,0.8c-0.2,0.1-0.5,0.1-0.8,0.1c-0.9,0-1.4-0.5-1.4-1.5
			v-2.6h-0.9v-0.8h0.9V453h0.9v1.4h1.3V455.1z"/>
		<path d="M501.4,457h-3.8c0,0.8,0.7,1.4,1.5,1.4c0.6,0,1.1-0.3,1.4-0.7l0.7,0.5c-0.5,0.7-1.2,1-2,1c-1.4,0-2.5-1-2.5-2.5
			c0-1.5,1.1-2.5,2.4-2.5c1.4,0,2.3,0.9,2.3,2.5C501.4,456.8,501.4,456.9,501.4,457z M500.5,456.3c0-0.8-0.5-1.3-1.3-1.3
			c-0.8,0-1.4,0.6-1.5,1.3H500.5z"/>
		<path d="M504.8,455.1h-1.1v4h-0.9v-4h-0.9v-0.8h0.9v-1c0-1.1,0.5-1.9,1.8-1.9c0.2,0,0.4,0,0.6,0.1l-0.1,0.8
			c-0.1,0-0.3-0.1-0.5-0.1c-0.7,0-0.8,0.6-0.8,1.1v1h1.1V455.1z"/>
		<path d="M508.9,459.1c0-0.2,0-0.6,0-0.8h0c-0.2,0.5-0.9,0.9-1.5,0.9c-1.2,0-1.8-0.9-1.8-1.9v-2.9h0.9v2.6c0,0.8,0.2,1.5,1.1,1.5
			c0.8,0,1.3-0.6,1.3-1.6v-2.5h0.9v3.7c0,0.2,0,0.7,0,1H508.9z"/>
		<path d="M512.2,459.1h-0.9v-7.6h0.9V459.1z"/>
		<path d="M518.6,455.6c-0.2-0.3-0.6-0.6-1.1-0.6c-0.4,0-0.9,0.2-0.9,0.6c0,0.4,0.4,0.5,1.1,0.7c0.9,0.2,1.6,0.6,1.6,1.4
			c0,1.1-0.9,1.5-1.9,1.5c-0.7,0-1.5-0.3-1.9-0.8l0.7-0.6c0.2,0.4,0.7,0.7,1.3,0.7c0.5,0,0.9-0.2,0.9-0.7c0-0.4-0.4-0.6-1.2-0.8
			c-0.6-0.2-1.4-0.4-1.4-1.3c0-1,0.9-1.4,1.8-1.4c0.7,0,1.4,0.3,1.7,0.8L518.6,455.6z"/>
		<path d="M524.7,457h-3.8c0,0.8,0.7,1.4,1.5,1.4c0.6,0,1.1-0.3,1.4-0.7l0.7,0.5c-0.5,0.7-1.2,1-2,1c-1.4,0-2.5-1-2.5-2.5
			c0-1.5,1.1-2.5,2.4-2.5c1.4,0,2.3,0.9,2.3,2.5C524.7,456.8,524.7,456.9,524.7,457z M523.8,456.3c0-0.8-0.5-1.3-1.3-1.3
			c-0.8,0-1.4,0.6-1.5,1.3H523.8z"/>
		<path d="M525.8,454.4h0.9c0,0.2,0,0.6,0,0.8h0c0.3-0.5,0.8-0.9,1.4-0.9c0.1,0,0.3,0,0.4,0l0,0.9c-0.1,0-0.3,0-0.4,0
			c-0.9,0-1.3,0.7-1.3,1.5v2.5h-0.9v-3.7C525.9,455.1,525.9,454.7,525.8,454.4z"/>
		<path d="M531.6,459.1h-1l-1.9-4.7h1l1.4,3.7h0l1.4-3.7h1L531.6,459.1z"/>
		<path d="M534.7,453.3c-0.3,0-0.6-0.3-0.6-0.6c0-0.3,0.3-0.6,0.6-0.6c0.3,0,0.6,0.3,0.6,0.6C535.3,453,535.1,453.3,534.7,453.3z
			 M535.2,459.1h-0.9v-4.7h0.9V459.1z"/>
		<path d="M540,455.6c-0.2-0.3-0.6-0.5-1.1-0.5c-1,0-1.5,0.8-1.5,1.7c0,0.9,0.6,1.7,1.6,1.7c0.5,0,0.9-0.2,1.1-0.5l0.6,0.6
			c-0.4,0.5-1,0.7-1.8,0.7c-1.5,0-2.5-1-2.5-2.5c0-1.5,1.1-2.5,2.5-2.5c0.7,0,1.4,0.3,1.8,0.8L540,455.6z"/>
		<path d="M545.9,457h-3.8c0,0.8,0.7,1.4,1.5,1.4c0.6,0,1.1-0.3,1.4-0.7l0.7,0.5c-0.5,0.7-1.2,1-2,1c-1.4,0-2.5-1-2.5-2.5
			c0-1.5,1.1-2.5,2.4-2.5c1.4,0,2.3,0.9,2.3,2.5C545.9,456.8,545.9,456.9,545.9,457z M544.9,456.3c0-0.8-0.5-1.3-1.3-1.3
			c-0.8,0-1.4,0.6-1.5,1.3H544.9z"/>
		<path d="M549.6,455.6c-0.2-0.3-0.6-0.6-1.1-0.6c-0.4,0-0.9,0.2-0.9,0.6c0,0.4,0.4,0.5,1.1,0.7c0.9,0.2,1.6,0.6,1.6,1.4
			c0,1.1-0.9,1.5-1.9,1.5c-0.7,0-1.5-0.3-1.9-0.8l0.7-0.6c0.2,0.4,0.7,0.7,1.3,0.7c0.5,0,0.9-0.2,0.9-0.7c0-0.4-0.4-0.6-1.2-0.8
			c-0.6-0.2-1.4-0.4-1.4-1.3c0-1,0.9-1.4,1.8-1.4c0.7,0,1.4,0.3,1.7,0.8L549.6,455.6z"/>
	</g>
</g>
<g>
	<g>
		<path d="M483.8,480.6c-2.1,0-3.7-1.5-3.7-3.7c0-2.2,1.6-3.7,3.7-3.7c2.2,0,3.8,1.5,3.8,3.7C487.5,479.1,485.9,480.6,483.8,480.6z
			 M483.8,474c-1.6,0-2.7,1.3-2.7,2.8c0,1.6,1,2.8,2.7,2.8c1.6,0,2.7-1.3,2.7-2.8C486.5,475.3,485.4,474,483.8,474z"/>
		<path d="M489.6,482.8h-0.9v-7.1h0.9v0.7h0c0.3-0.5,0.9-0.9,1.7-0.9c1.4,0,2.4,1.1,2.4,2.5c0,1.4-0.9,2.5-2.4,2.5
			c-0.7,0-1.3-0.3-1.7-0.8h0V482.8z M491.2,476.3c-1,0-1.6,0.8-1.6,1.7c0,0.9,0.6,1.7,1.6,1.7c1,0,1.6-0.8,1.6-1.7
			S492.2,476.3,491.2,476.3z"/>
		<path d="M499.3,478.3h-3.8c0,0.8,0.7,1.4,1.5,1.4c0.6,0,1.1-0.3,1.4-0.7l0.7,0.5c-0.5,0.7-1.2,1-2,1c-1.4,0-2.5-1-2.5-2.5
			c0-1.5,1.1-2.5,2.4-2.5c1.4,0,2.3,0.9,2.3,2.5C499.3,478.1,499.3,478.2,499.3,478.3z M498.3,477.6c0-0.7-0.5-1.3-1.3-1.3
			c-0.8,0-1.4,0.6-1.5,1.3H498.3z"/>
		<path d="M501.3,475.7c0,0.2,0,0.6,0,0.8h0c0.2-0.5,0.9-0.9,1.5-0.9c1.2,0,1.8,0.9,1.8,1.9v2.9h-0.9v-2.6c0-0.8-0.2-1.4-1.1-1.4
			c-0.7,0-1.3,0.6-1.3,1.6v2.5h-0.9v-3.7c0-0.2,0-0.7,0-1H501.3z"/>
		<path d="M507.2,479.5h3.2v0.9h-4.1v-7.1h1V479.5z"/>
		<path d="M511.1,473.3h2.4c1.8,0,3.8,1,3.8,3.5c0,2.4-2,3.5-3.8,3.5h-2.4V473.3z M512.1,479.6h1.2c1.7,0,3-1,3-2.7
			c0-1.7-1.2-2.7-3-2.7h-1.2V479.6z"/>
		<path d="M518.9,480.4h-1.1l3.1-7.1h0.9l3,7.1h-1.1l-0.7-1.7h-3.4L518.9,480.4z M519.9,477.8h2.6l-1.3-3.3L519.9,477.8z"/>
		<path d="M525.5,473.3h2.2c1.5,0,2.5,0.6,2.5,2c0,1.4-1.1,2-2.6,2h-1.1v3.1h-1V473.3z M526.5,476.5h1c1,0,1.6-0.3,1.6-1.2
			c0-0.8-0.7-1.1-1.6-1.1h-1.1V476.5z"/>
		<path d="M536.2,476.9c-0.2-0.3-0.6-0.6-1.1-0.6c-0.4,0-0.9,0.2-0.9,0.6c0,0.4,0.4,0.5,1.1,0.7c0.9,0.2,1.6,0.6,1.6,1.4
			c0,1.1-0.9,1.5-1.9,1.5c-0.7,0-1.5-0.3-1.9-0.8l0.7-0.6c0.2,0.4,0.7,0.7,1.3,0.7c0.5,0,0.9-0.2,0.9-0.7c0-0.4-0.4-0.6-1.2-0.8
			c-0.6-0.1-1.4-0.4-1.4-1.3c0-1,0.9-1.4,1.8-1.4c0.7,0,1.4,0.3,1.7,0.8L536.2,476.9z"/>
		<path d="M542.3,478.3h-3.8c0,0.8,0.7,1.4,1.5,1.4c0.6,0,1.1-0.3,1.4-0.7l0.7,0.5c-0.5,0.7-1.2,1-2,1c-1.4,0-2.5-1-2.5-2.5
			c0-1.5,1.1-2.5,2.4-2.5c1.4,0,2.3,0.9,2.3,2.5C542.4,478.1,542.4,478.2,542.3,478.3z M541.4,477.6c0-0.7-0.5-1.3-1.3-1.3
			c-0.8,0-1.4,0.6-1.5,1.3H541.4z"/>
		<path d="M543.5,475.7h0.9c0,0.2,0,0.6,0,0.8h0c0.3-0.5,0.8-0.9,1.4-0.9c0.1,0,0.3,0,0.4,0l0,0.9c-0.1,0-0.3,0-0.4,0
			c-0.9,0-1.3,0.7-1.3,1.5v2.5h-0.9v-3.7C543.5,476.5,543.5,476,543.5,475.7z"/>
		<path d="M549.2,480.4h-1l-1.9-4.7h1l1.4,3.7h0l1.4-3.7h1L549.2,480.4z"/>
		<path d="M556.3,478.3h-3.8c0,0.8,0.7,1.4,1.5,1.4c0.6,0,1.1-0.3,1.4-0.7l0.7,0.5c-0.5,0.7-1.2,1-2,1c-1.4,0-2.5-1-2.5-2.5
			c0-1.5,1.1-2.5,2.4-2.5c1.4,0,2.3,0.9,2.3,2.5C556.3,478.1,556.3,478.2,556.3,478.3z M555.3,477.6c0-0.7-0.5-1.3-1.3-1.3
			c-0.8,0-1.4,0.6-1.5,1.3H555.3z"/>
		<path d="M557.4,475.7h0.9c0,0.2,0,0.6,0,0.8h0c0.3-0.5,0.8-0.9,1.4-0.9c0.1,0,0.3,0,0.4,0l0,0.9c-0.1,0-0.3,0-0.4,0
			c-0.9,0-1.3,0.7-1.3,1.5v2.5h-0.9v-3.7C557.5,476.5,557.4,476,557.4,475.7z"/>
	</g>
</g>
<g>
	<path d="M316.6,114.8h-1v-7.1h1V114.8z"/>
	<path d="M319,110.1c0,0.2,0,0.6,0,0.8h0c0.2-0.5,0.9-0.9,1.5-0.9c1.2,0,1.8,0.9,1.8,1.9v2.9h-0.9v-2.6c0-0.8-0.2-1.4-1.1-1.4
		c-0.7,0-1.3,0.6-1.3,1.6v2.5h-0.9v-3.7c0-0.2,0-0.7,0-1H319z"/>
	<path d="M326.1,110.8h-1.3v2.5c0,0.6,0.2,0.8,0.7,0.8c0.2,0,0.4,0,0.5-0.1l0,0.8c-0.2,0.1-0.5,0.1-0.8,0.1c-0.9,0-1.4-0.5-1.4-1.5
		v-2.6H323v-0.8h0.9v-1.4h0.9v1.4h1.3V110.8z"/>
	<path d="M331.3,112.7h-3.8c0,0.8,0.7,1.4,1.5,1.4c0.6,0,1.1-0.3,1.4-0.7l0.7,0.5c-0.5,0.7-1.2,1-2,1c-1.4,0-2.5-1-2.5-2.5
		c0-1.5,1.1-2.5,2.4-2.5c1.4,0,2.3,0.9,2.3,2.5C331.4,112.5,331.4,112.6,331.3,112.7z M330.4,112c0-0.7-0.5-1.3-1.3-1.3
		c-0.8,0-1.4,0.6-1.5,1.3H330.4z"/>
	<path d="M332.5,110.1h0.9c0,0.2,0,0.6,0,0.8h0c0.3-0.5,0.8-0.9,1.4-0.9c0.1,0,0.3,0,0.4,0l0,0.9c-0.1,0-0.3,0-0.4,0
		c-0.9,0-1.3,0.7-1.3,1.5v2.5h-0.9v-3.7C332.5,110.8,332.5,110.4,332.5,110.1z"/>
	<path d="M336.8,110.1c0,0.2,0,0.6,0,0.8h0c0.2-0.5,0.9-0.9,1.5-0.9c1.2,0,1.8,0.9,1.8,1.9v2.9h-0.9v-2.6c0-0.8-0.2-1.4-1.1-1.4
		c-0.7,0-1.3,0.6-1.3,1.6v2.5H336v-3.7c0-0.2,0-0.7,0-1H336.8z"/>
	<path d="M346.1,112.7h-3.8c0,0.8,0.7,1.4,1.5,1.4c0.6,0,1.1-0.3,1.4-0.7l0.7,0.5c-0.5,0.7-1.2,1-2,1c-1.4,0-2.5-1-2.5-2.5
		c0-1.5,1.1-2.5,2.4-2.5c1.4,0,2.3,0.9,2.3,2.5C346.1,112.5,346.1,112.6,346.1,112.7z M345.1,112c0-0.7-0.5-1.3-1.3-1.3
		c-0.8,0-1.4,0.6-1.5,1.3H345.1z"/>
	<path d="M349.6,110.8h-1.3v2.5c0,0.6,0.2,0.8,0.7,0.8c0.2,0,0.4,0,0.5-0.1l0,0.8c-0.2,0.1-0.5,0.1-0.8,0.1c-0.9,0-1.4-0.5-1.4-1.5
		v-2.6h-0.9v-0.8h0.9v-1.4h0.9v1.4h1.3V110.8z"/>
	<path d="M353.1,115.6c0.4,0.5,1.1,0.8,1.7,0.8c1.2,0,1.7-0.8,1.7-1.7V114h0c-0.4,0.5-1,0.8-1.7,0.8c-1.4,0-2.4-1.1-2.4-2.4
		c0-1.4,0.9-2.5,2.4-2.5c0.7,0,1.3,0.3,1.7,0.9h0v-0.8h0.9v4.5c0,1.4-0.6,2.6-2.6,2.6c-0.8,0-1.7-0.3-2.3-0.9L353.1,115.6z M355,114
		c1,0,1.6-0.7,1.6-1.7c0-0.9-0.6-1.7-1.6-1.7c-1,0-1.6,0.8-1.6,1.7C353.4,113.2,354,114,355,114z"/>
	<path d="M361.8,111.7c0-0.7-0.5-1-1.2-1c-0.5,0-1,0.2-1.3,0.5l-0.5-0.6c0.5-0.4,1.2-0.7,1.9-0.7c1.4,0,2,0.8,2,1.9v2.1
		c0,0.3,0,0.7,0.1,0.9H362c0-0.2-0.1-0.5-0.1-0.7h0c-0.3,0.5-0.9,0.8-1.6,0.8c-0.7,0-1.7-0.4-1.7-1.5c0-1.4,1.7-1.6,3.3-1.6V111.7z
		 M361.6,112.5c-0.9,0-2.1,0.1-2.1,0.9c0,0.6,0.5,0.7,1,0.7c0.9,0,1.4-0.6,1.4-1.4v-0.2H361.6z"/>
	<path d="M366.5,110.8h-1.3v2.5c0,0.6,0.2,0.8,0.7,0.8c0.2,0,0.4,0,0.5-0.1l0,0.8c-0.2,0.1-0.5,0.1-0.8,0.1c-0.9,0-1.4-0.5-1.4-1.5
		v-2.6h-0.9v-0.8h0.9v-1.4h0.9v1.4h1.3V110.8z"/>
	<path d="M371.7,112.7H368c0,0.8,0.7,1.4,1.5,1.4c0.6,0,1.1-0.3,1.4-0.7l0.7,0.5c-0.5,0.7-1.2,1-2,1c-1.4,0-2.5-1-2.5-2.5
		c0-1.5,1.1-2.5,2.4-2.5c1.4,0,2.3,0.9,2.3,2.5C371.7,112.5,371.7,112.6,371.7,112.7z M370.8,112c0-0.7-0.5-1.3-1.3-1.3
		c-0.8,0-1.4,0.6-1.5,1.3H370.8z"/>
	<path d="M373.2,110.1l1.1,3.6h0l1.1-3.6h1l1.1,3.6h0l1.1-3.6h1l-1.6,4.7h-1l-1.2-3.6h0l-1.2,3.6h-1l-1.6-4.7H373.2z"/>
	<path d="M383.4,111.7c0-0.7-0.5-1-1.2-1c-0.5,0-1,0.2-1.3,0.5l-0.5-0.6c0.5-0.4,1.2-0.7,1.9-0.7c1.4,0,2,0.8,2,1.9v2.1
		c0,0.3,0,0.7,0.1,0.9h-0.8c0-0.2-0.1-0.5-0.1-0.7h0c-0.3,0.5-0.9,0.8-1.6,0.8c-0.7,0-1.7-0.4-1.7-1.5c0-1.4,1.7-1.6,3.3-1.6V111.7z
		 M383.2,112.5c-0.9,0-2.1,0.1-2.1,0.9c0,0.6,0.5,0.7,1,0.7c0.9,0,1.4-0.6,1.4-1.4v-0.2H383.2z"/>
	<path d="M387.5,113.8L387.5,113.8l1.3-3.7h1l-2.3,5.9c-0.3,0.8-0.7,1.3-1.6,1.3c-0.2,0-0.4,0-0.6-0.1l0.1-0.8
		c0.1,0.1,0.3,0.1,0.5,0.1c0.5,0,0.7-0.3,0.9-0.8l0.3-0.8l-2-4.7h1L387.5,113.8z"/>
</g>
<g>
	<path d="M524.3,221.4h3.7v0.9h-4.7v-7.1h4.5v0.9h-3.5v2.1h3.3v0.8h-3.3V221.4z"/>
	<path d="M530.1,222.3h-0.9v-7.6h0.9V222.3z"/>
	<path d="M534.5,219.2c0-0.7-0.5-1-1.2-1c-0.5,0-1,0.2-1.3,0.5l-0.5-0.6c0.5-0.4,1.2-0.7,1.9-0.7c1.4,0,2,0.8,2,1.9v2.1
		c0,0.3,0,0.7,0.1,0.9h-0.8c0-0.2-0.1-0.5-0.1-0.7h0c-0.3,0.5-0.9,0.8-1.6,0.8c-0.7,0-1.7-0.4-1.7-1.5c0-1.4,1.7-1.6,3.3-1.6V219.2z
		 M534.3,220.1c-0.9,0-2.1,0.1-2.1,0.9c0,0.6,0.5,0.7,1,0.7c0.9,0,1.4-0.6,1.4-1.4v-0.2H534.3z"/>
	<path d="M539.4,218.8c-0.2-0.3-0.6-0.6-1.1-0.6c-0.4,0-0.9,0.2-0.9,0.6c0,0.4,0.4,0.5,1.1,0.7c0.9,0.2,1.6,0.6,1.6,1.4
		c0,1.1-0.9,1.5-1.9,1.5c-0.7,0-1.5-0.3-1.9-0.8l0.7-0.6c0.2,0.4,0.7,0.7,1.3,0.7c0.5,0,0.9-0.2,0.9-0.7c0-0.4-0.4-0.6-1.2-0.8
		c-0.6-0.1-1.4-0.4-1.4-1.3c0-1,0.9-1.4,1.8-1.4c0.7,0,1.4,0.3,1.7,0.8L539.4,218.8z"/>
	<path d="M543.4,218.3h-1.3v2.5c0,0.6,0.2,0.8,0.7,0.8c0.2,0,0.4,0,0.5-0.1l0,0.8c-0.2,0.1-0.5,0.1-0.8,0.1c-0.9,0-1.4-0.5-1.4-1.5
		v-2.6h-0.9v-0.8h0.9v-1.4h0.9v1.4h1.3V218.3z"/>
	<path d="M544.7,216.5c-0.3,0-0.6-0.3-0.6-0.6c0-0.3,0.3-0.6,0.6-0.6s0.6,0.3,0.6,0.6C545.4,216.2,545.1,216.5,544.7,216.5z
		 M545.2,222.3h-0.9v-4.7h0.9V222.3z"/>
	<path d="M550,218.8c-0.2-0.3-0.6-0.5-1.1-0.5c-1,0-1.5,0.8-1.5,1.7c0,0.9,0.6,1.7,1.6,1.7c0.5,0,0.9-0.2,1.1-0.5l0.6,0.6
		c-0.4,0.5-1,0.7-1.8,0.7c-1.5,0-2.5-1-2.5-2.5c0-1.5,1.1-2.5,2.5-2.5c0.7,0,1.4,0.3,1.8,0.8L550,218.8z"/>
	<path d="M554.9,221.4h3.2v0.9h-4.1v-7.1h1V221.4z"/>
	<path d="M561,222.4c-1.4,0-2.5-1-2.5-2.5c0-1.5,1.1-2.5,2.5-2.5s2.6,1,2.6,2.5C563.6,221.4,562.5,222.4,561,222.4z M561,218.2
		c-1,0-1.6,0.8-1.6,1.7c0,0.9,0.6,1.7,1.6,1.7c1,0,1.6-0.8,1.6-1.7C562.6,219,562,218.2,561,218.2z"/>
	<path d="M567.7,219.2c0-0.7-0.5-1-1.2-1c-0.5,0-1,0.2-1.3,0.5l-0.5-0.6c0.5-0.4,1.2-0.7,1.9-0.7c1.4,0,2,0.8,2,1.9v2.1
		c0,0.3,0,0.7,0.1,0.9h-0.8c0-0.2-0.1-0.5-0.1-0.7h0c-0.3,0.5-0.9,0.8-1.6,0.8c-0.7,0-1.7-0.4-1.7-1.5c0-1.4,1.7-1.6,3.3-1.6V219.2z
		 M567.5,220.1c-0.9,0-2.1,0.1-2.1,0.9c0,0.6,0.5,0.7,1,0.7c0.9,0,1.4-0.6,1.4-1.4v-0.2H567.5z"/>
	<path d="M572.1,222.4c-1.5,0-2.4-1.1-2.4-2.5c0-1.4,1-2.5,2.4-2.5c0.8,0,1.4,0.4,1.7,0.8h0v-3.5h0.9v7.6h-0.9v-0.7h0
		C573.4,222.1,572.7,222.4,572.1,222.4z M572.2,221.7c1,0,1.6-0.8,1.6-1.7s-0.6-1.7-1.6-1.7c-1,0-1.6,0.8-1.6,1.7
		C570.7,220.8,571.2,221.7,572.2,221.7z"/>
	<path d="M578.6,215.2h2.4c1.1,0,2.2,0.4,2.2,1.8c0,0.8-0.5,1.3-1.2,1.5v0c0.9,0.1,1.6,0.7,1.6,1.7c0,1.4-1.2,2-2.7,2h-2.3V215.2z
		 M579.6,218.2h1.3c0.8,0,1.4-0.3,1.4-1.1c0-0.8-0.6-1.1-1.5-1.1h-1.1V218.2z M579.6,221.5h1.2c0.8,0,1.8-0.3,1.8-1.2
		c0-0.8-0.6-1.2-1.7-1.2h-1.3V221.5z"/>
	<path d="M587.8,219.2c0-0.7-0.5-1-1.2-1c-0.5,0-1,0.2-1.3,0.5l-0.5-0.6c0.5-0.4,1.2-0.7,1.9-0.7c1.4,0,2,0.8,2,1.9v2.1
		c0,0.3,0,0.7,0.1,0.9h-0.8c0-0.2-0.1-0.5-0.1-0.7h0c-0.3,0.5-0.9,0.8-1.6,0.8c-0.7,0-1.7-0.4-1.7-1.5c0-1.4,1.7-1.6,3.3-1.6V219.2z
		 M587.5,220.1c-0.9,0-2.1,0.1-2.1,0.9c0,0.6,0.5,0.7,1,0.7c0.9,0,1.4-0.6,1.4-1.4v-0.2H587.5z"/>
	<path d="M591.1,222.3h-0.9v-7.6h0.9V222.3z"/>
	<path d="M595.5,219.2c0-0.7-0.5-1-1.2-1c-0.5,0-1,0.2-1.3,0.5l-0.5-0.6c0.5-0.4,1.2-0.7,1.9-0.7c1.4,0,2,0.8,2,1.9v2.1
		c0,0.3,0,0.7,0.1,0.9h-0.8c0-0.2-0.1-0.5-0.1-0.7h0c-0.3,0.5-0.9,0.8-1.6,0.8c-0.8,0-1.7-0.4-1.7-1.5c0-1.4,1.7-1.6,3.3-1.6V219.2z
		 M595.3,220.1c-0.9,0-2.1,0.1-2.1,0.9c0,0.6,0.5,0.7,1,0.7c0.9,0,1.4-0.6,1.4-1.4v-0.2H595.3z"/>
	<path d="M598.7,217.6c0,0.2,0,0.6,0,0.8h0c0.2-0.5,0.9-0.9,1.5-0.9c1.2,0,1.8,0.9,1.8,1.9v2.9h-0.9v-2.6c0-0.8-0.2-1.4-1.1-1.4
		c-0.7,0-1.3,0.6-1.3,1.6v2.5h-0.9v-3.7c0-0.2,0-0.7,0-1H598.7z"/>
	<path d="M606.8,218.8c-0.2-0.3-0.6-0.5-1.1-0.5c-1,0-1.5,0.8-1.5,1.7c0,0.9,0.6,1.7,1.6,1.7c0.5,0,0.9-0.2,1.1-0.5l0.6,0.6
		c-0.4,0.5-1,0.7-1.8,0.7c-1.5,0-2.5-1-2.5-2.5c0-1.5,1.1-2.5,2.5-2.5c0.7,0,1.4,0.3,1.8,0.8L606.8,218.8z"/>
	<path d="M608.8,216.5c-0.3,0-0.6-0.3-0.6-0.6c0-0.3,0.3-0.6,0.6-0.6s0.6,0.3,0.6,0.6C609.4,216.2,609.1,216.5,608.8,216.5z
		 M609.2,222.3h-0.9v-4.7h0.9V222.3z"/>
	<path d="M611.6,217.6c0,0.2,0,0.6,0,0.8h0c0.2-0.5,0.9-0.9,1.5-0.9c1.2,0,1.8,0.9,1.8,1.9v2.9H614v-2.6c0-0.8-0.2-1.4-1.1-1.4
		c-0.7,0-1.3,0.6-1.3,1.6v2.5h-0.9v-3.7c0-0.2,0-0.7,0-1H611.6z"/>
	<path d="M616.8,223.1c0.4,0.5,1.1,0.8,1.7,0.8c1.2,0,1.7-0.8,1.7-1.7v-0.6h0c-0.3,0.5-1,0.8-1.7,0.8c-1.4,0-2.4-1.1-2.4-2.4
		c0-1.4,0.9-2.5,2.4-2.5c0.7,0,1.3,0.3,1.7,0.9h0v-0.8h0.9v4.5c0,1.4-0.7,2.6-2.6,2.6c-0.8,0-1.7-0.3-2.3-0.9L616.8,223.1z
		 M618.6,221.6c1,0,1.6-0.7,1.6-1.7c0-0.9-0.6-1.7-1.6-1.7c-1,0-1.6,0.8-1.6,1.7C617,220.8,617.6,221.6,618.6,221.6z"/>
	<path d="M563,235.4l-0.7,0.4c-0.9-1.2-1.5-2.8-1.5-4.4s0.6-3.3,1.5-4.4l0.7,0.4c-0.8,1.1-1.3,2.5-1.3,4S562.2,234.4,563,235.4z"/>
	<path d="M565.4,233.4h3.7v0.9h-4.7v-7.1h4.5v0.9h-3.5v2.1h3.3v0.8h-3.3V233.4z"/>
	<path d="M571.2,233.4h3.2v0.9h-4.1v-7.1h1V233.4z"/>
	<path d="M575.2,227.2h2.4c1.1,0,2.2,0.4,2.2,1.8c0,0.8-0.5,1.3-1.2,1.5v0c0.9,0.1,1.6,0.7,1.6,1.7c0,1.4-1.2,2-2.7,2h-2.3V227.2z
		 M576.2,230.2h1.3c0.8,0,1.4-0.3,1.4-1.1c0-0.8-0.6-1.1-1.5-1.1h-1.1V230.2z M576.2,233.5h1.2c0.8,0,1.8-0.3,1.8-1.2
		c0-0.8-0.6-1.2-1.7-1.2h-1.3V233.5z"/>
	<path d="M581.3,227.4l0.7-0.4c0.9,1.2,1.5,2.8,1.5,4.4s-0.6,3.3-1.5,4.4l-0.7-0.4c0.8-1.1,1.3-2.5,1.3-4S582.1,228.5,581.3,227.4z"
		/>
</g>
<g id="Working_11_">
	<rect x="143.6" y="149.5" class="st3" width="21.3" height="21.3"/>
	<path class="st6" d="M154.3,160.3c-0.8,0-1.4,0.7-1.4,1.5c0,0.7,0.5,1.2,1.1,1.4v2h0.6v-2c0.8-0.2,1.3-1,1.1-1.7
		C155.5,160.8,154.9,160.4,154.3,160.3z M154.3,162.6c-0.5,0-0.8-0.4-0.9-0.8c0-0.5,0.4-0.8,0.8-0.9c0.5,0,0.8,0.4,0.9,0.8
		c0,0,0,0,0,0C155.1,162.3,154.7,162.6,154.3,162.6z"/>
	<path class="st6" d="M157.4,158.2v-1.6c0-1.8-1.4-3.2-3.2-3.2c-1.8,0-3.2,1.4-3.2,3.2c0,0,0,0,0,0v1.6h-1.9v8.7h10.2v-8.7H157.4z
		 M151.7,156.6c0-1.4,1.1-2.6,2.6-2.6c1.4,0,2.6,1.1,2.6,2.6v1.6h-5.1V156.6z M158.7,166.3h-9v-7.5h9V166.3z"/>
</g>
<g id="Working_10_">
	<rect x="143.6" y="336.8" class="st4" width="21.3" height="21.3"/>
	<path class="st6" d="M154.3,347.6c-0.8,0-1.4,0.7-1.4,1.5c0,0.7,0.5,1.2,1.1,1.4v2h0.6v-2c0.8-0.2,1.3-1,1.1-1.7
		C155.5,348.1,154.9,347.6,154.3,347.6z M154.3,349.9c-0.5,0-0.8-0.4-0.9-0.8c0-0.5,0.4-0.8,0.8-0.9c0.5,0,0.8,0.4,0.9,0.8
		c0,0,0,0,0,0C155.1,349.5,154.7,349.9,154.3,349.9z"/>
	<path class="st6" d="M157.4,345.5v-1.6c0-1.8-1.4-3.2-3.2-3.2c-1.8,0-3.2,1.4-3.2,3.2c0,0,0,0,0,0v1.6h-1.9v8.7h10.2v-8.7H157.4z
		 M151.7,343.9c0-1.4,1.1-2.6,2.6-2.6c1.4,0,2.6,1.1,2.6,2.6v1.6h-5.1V343.9z M158.7,353.6h-9v-7.5h9V353.6z"/>
</g>
<g id="Working_9_">
	<rect x="88.3" y="120.2" class="st3" width="24.3" height="24.3"/>
	<path class="st6" d="M102.1,132.5h-0.5V132c-0.1-0.8-0.8-1.4-1.6-1.4c-0.7,0.1-1.3,0.6-1.4,1.4v0.5h-0.5c-0.2,0-0.3,0.2-0.3,0.3
		v2.7c0,0.2,0.2,0.3,0.3,0.3h4c0.2,0,0.3-0.2,0.3-0.3v-2.6C102.5,132.7,102.3,132.5,102.1,132.5z M99.3,132c0-0.4,0.4-0.8,0.9-0.7
		c0.4,0,0.7,0.3,0.7,0.7v0.5h-1.6L99.3,132z M101.8,135.1h-3.3v-1.9h3.3L101.8,135.1z"/>
	<path class="st6" d="M106.7,131.4c0-1-0.7-2-1.7-2.3c-0.7-0.2-1.4,0-1.9,0.4c-0.3-0.6-0.6-1.2-1.1-1.6c-1.4-1.4-3.5-1.8-5.3-1
		c-1.7,0.8-2.8,2.5-2.8,4.4c0,0.1,0,0.2,0,0.3c-1.5,0.4-2.5,1.8-2.4,3.3c0,0.1,0,0.2,0,0.3c0.1,1.8,1.7,3.3,3.5,3.2h11.3
		c0,0,3.2-0.3,3.2-3.5C109.5,133.1,108.3,131.7,106.7,131.4z M106.3,137.7H95c-1.5,0-2.7-1.1-2.9-2.6c0-0.1,0-0.2,0-0.2
		c-0.1-1.3,0.8-2.5,2.1-2.7c0.2,0,0.3-0.2,0.3-0.4c0-0.2,0-0.3,0-0.5c0-1.6,1-3,2.4-3.7c0.5-0.2,1.1-0.4,1.7-0.4
		c1.1,0,2.1,0.5,2.9,1.3c0.5,0.5,0.9,1.2,1.1,1.9c0.1,0.2,0.3,0.3,0.4,0.2c0.1,0,0.1-0.1,0.2-0.1c0.3-0.5,1-0.7,1.6-0.6
		c0.8,0.3,1.2,1.1,1.2,1.9c0,0.2,0.1,0.4,0.3,0.4c1.6,0.2,2.7,1.5,2.5,3.1C108.7,136.5,107.7,137.5,106.3,137.7L106.3,137.7z"/>
</g>
<g>
	<path class="st7" d="M324.9,210.7c-9.6,0-17.3,7.8-17.3,17.3c0,9.6,7.8,17.3,17.3,17.3c9.6,0,17.3-7.8,17.3-17.3
		C342.2,218.5,334.4,210.7,324.9,210.7z M324.9,243.9c-8.8,0-15.9-7.1-15.9-15.9s7.1-15.9,15.9-15.9c8.8,0,15.8,7.1,15.9,15.9
		C340.7,236.8,333.6,243.9,324.9,243.9z"/>
	<path class="st7" d="M316.3,217.1c-0.2-0.2-0.5-0.2-0.8-0.1c-0.3,0.1-0.4,0.4-0.4,0.7v5.5c0,0.3,0.2,0.5,0.4,0.7
		c0.1,0,0.2,0.1,0.3,0.1c0.2,0,0.3-0.1,0.5-0.2l3.5-2.8c0.2-0.1,0.3-0.4,0.3-0.6c0-0.2-0.1-0.4-0.3-0.6L316.3,217.1z M316.6,221.7
		v-2.5l1.5,1.2L316.6,221.7z"/>
	<path class="st7" d="M316.3,225.4c-0.2-0.2-0.5-0.2-0.8-0.1c-0.3,0.1-0.4,0.4-0.4,0.7v5.5c0,0.3,0.2,0.5,0.4,0.7
		c0.1,0,0.2,0.1,0.3,0.1c0.2,0,0.3-0.1,0.5-0.2l3.5-2.8c0.2-0.1,0.3-0.4,0.3-0.6c0-0.2-0.1-0.4-0.3-0.6L316.3,225.4z M316.6,230
		v-2.5l1.5,1.2L316.6,230z"/>
	<path class="st7" d="M338.5,228.2l-3.5-3.5c-0.1-0.1-0.3-0.2-0.5-0.2c-0.4,0-0.7,0.3-0.7,0.7v2.7h-6.1v-7.6c0-0.4-0.3-0.7-0.7-0.7
		h-6.1v1.5h5.3v6.8h-5.5v1.5h5.5v6.8h-5.3v1.5h6.1c0.4,0,0.7-0.3,0.7-0.7v-7.6h6.1v2.7c0,0.3,0.2,0.6,0.5,0.7c0.1,0,0.2,0.1,0.3,0.1
		c0.2,0,0.4-0.1,0.5-0.2l3.5-3.5C338.8,229,338.8,228.5,338.5,228.2z M335.3,230.4v-3.4l1.7,1.7L335.3,230.4z"/>
	<path class="st7" d="M316.3,233c-0.1-0.1-0.3-0.2-0.5-0.2c-0.4,0-0.7,0.3-0.7,0.7v5.5c0,0.3,0.2,0.5,0.4,0.7c0.1,0,0.2,0.1,0.3,0.1
		c0.2,0,0.3-0.1,0.5-0.2l3.5-2.8c0,0,0.1-0.1,0.1-0.1c0.3-0.3,0.2-0.8-0.1-1L316.3,233z M316.6,237.6v-2.5l1.5,1.2L316.6,237.6z"/>
</g>
<path class="st8" d="M430.7,213.9v-1.5h-3.5v-4.3h-4.5v-3.5h-1.5v3.5h-3.2v-3.5h-1.5v3.5h-3.2v-3.5h-1.5v3.5h-3.2v-3.5h-1.5v3.5
	h-3.2v-3.5h-1.5v3.5h-4.1v4.3h-3.5v1.5h3.5v3.2h-3.5v1.5h3.5v3.2h-3.5v1.5h3.5v3.2h-3.5v1.5h3.5v3.2h-3.5v1.5h3.5v4.3h4.1v3.5h1.5
	v-3.5h3.2v3.5h1.5v-3.5h3.2v3.5h1.5v-3.5h3.2v3.5h1.5v-3.5h3.2v3.5h1.5v-3.5h4.5v-4.3h3.5v-1.5h-3.5V228h3.5v-1.5h-3.5v-3.2h3.5
	v-1.5h-3.5v-3.2h3.5v-1.5h-3.5v-3.2H430.7z M425.8,235.4h-25.8v-25.8h25.8V235.4z"/>
<path class="st8" d="M508,380.5V379h-3.5v-4.3H500v-3.5h-1.5v3.5h-3.2v-3.5h-1.5v3.5h-3.2v-3.5h-1.5v3.5h-3.2v-3.5h-1.5v3.5h-3.2
	v-3.5h-1.5v3.5h-4.1v4.3h-3.5v1.5h3.5v3.2h-3.5v1.5h3.5v3.2h-3.5v1.5h3.5v3.2h-3.5v1.5h3.5v3.2h-3.5v1.5h3.5v4.3h4.1v3.5h1.5v-3.5
	h3.2v3.5h1.5v-3.5h3.2v3.5h1.5v-3.5h3.2v3.5h1.5v-3.5h3.2v3.5h1.5v-3.5h4.5v-4.3h3.5v-1.5h-3.5v-3.2h3.5v-1.5h-3.5v-3.2h3.5v-1.5
	h-3.5v-3.2h3.5v-1.5h-3.5v-3.2H508z M503,402h-25.8v-25.8H503V402z"/>
<path class="st8" d="M358.5,380.5V379h-3.5v-4.3h-4.5v-3.5h-1.5v3.5h-3.2v-3.5h-1.5v3.5h-3.2v-3.5h-1.5v3.5h-3.2v-3.5H335v3.5h-3.2
	v-3.5h-1.5v3.5h-4.1v4.3h-3.5v1.5h3.5v3.2h-3.5v1.5h3.5v3.2h-3.5v1.5h3.5v3.2h-3.5v1.5h3.5v3.2h-3.5v1.5h3.5v4.3h4.1v3.5h1.5v-3.5
	h3.2v3.5h1.5v-3.5h3.2v3.5h1.5v-3.5h3.2v3.5h1.5v-3.5h3.2v3.5h1.5v-3.5h4.5v-4.3h3.5v-1.5h-3.5v-3.2h3.5v-1.5h-3.5v-3.2h3.5v-1.5
	h-3.5v-3.2h3.5v-1.5h-3.5v-3.2H358.5z M353.6,402h-25.8v-25.8h25.8V402z"/>
<g id="Working_8_">
	<path class="st3" d="M625.5,450.2h-26.7c-0.4,0-0.7-0.3-0.7-0.7v-24.6c0-0.4,0.3-0.7,0.7-0.7h26.7c0.4,0,0.7,0.3,0.7,0.7v24.6
		C626.3,449.9,625.9,450.2,625.5,450.2z M599.6,448.7h25.2v-23.1h-25.2V448.7z"/>
	<path class="st3" d="M625.5,422.8h-26.7c-0.3,0-0.5-0.2-0.7-0.4c-0.1-0.2-0.1-0.5,0.1-0.7l4.7-6.3c0.1-0.2,0.4-0.3,0.6-0.3h17.2
		c0.2,0,0.5,0.1,0.6,0.3l4.7,6.3c0.2,0.2,0.2,0.5,0.1,0.7C626.1,422.6,625.8,422.8,625.5,422.8z M600.3,421.3H624l-3.6-4.8h-16.5
		L600.3,421.3z"/>
</g>
<g id="Working_1_">
	<path class="st3" d="M392.3,459.9h-26.7c-0.4,0-0.7-0.3-0.7-0.7v-24.6c0-0.4,0.3-0.7,0.7-0.7h26.7c0.4,0,0.7,0.3,0.7,0.7v24.6
		C393.1,459.5,392.7,459.9,392.3,459.9z M366.4,458.4h25.2v-23.1h-25.2V458.4z"/>
	<path class="st3" d="M392.3,432.5h-26.7c-0.3,0-0.5-0.2-0.7-0.4c-0.1-0.2-0.1-0.5,0.1-0.7l4.7-6.3c0.1-0.2,0.4-0.3,0.6-0.3h17.2
		c0.2,0,0.5,0.1,0.6,0.3l4.7,6.3c0.2,0.2,0.2,0.5,0.1,0.7C392.9,432.3,392.6,432.5,392.3,432.5z M367.1,431h23.7l-3.6-4.8h-16.5
		L367.1,431z"/>
</g>
<g id="Reference_1_">
	
		<linearGradient id="Orange_Gradient_2_" gradientUnits="userSpaceOnUse" x1="-1790.8077" y1="-1432.141" x2="-1750.5024" y2="-1472.4463" gradientTransform="matrix(0 -1 -1 0 -948.4238 -1547.4238)">
		<stop  offset="0" style="stop-color:#D54C27"/>
		<stop  offset="0.3683" style="stop-color:#D65F27"/>
		<stop  offset="1" style="stop-color:#FAB960"/>
	</linearGradient>
	<rect id="Orange_Gradient_1_" x="489.6" y="209" class="st9" width="28.5" height="28.5"/>
	<g id="Icon_Test_1_">
		<path class="st6" d="M508.4,223.6c0.2,1.3,1.4,2.2,2.7,2c1.3-0.2,2.2-1.4,2-2.7s-1.4-2.2-2.7-2c-1,0.2-1.8,0.9-2,2h-2.8
			c0-0.7-0.2-1.4-0.5-2l3.4-2.9c1,0.8,2.5,0.6,3.3-0.4c0.8-1,0.6-2.5-0.4-3.3c-1-0.8-2.5-0.6-3.3,0.4c-0.3,0.4-0.5,0.9-0.5,1.5
			c0,0.5,0.1,0.9,0.4,1.3l-3.3,2.8c-1.7-2.5-5.1-3.2-7.6-1.5c-2.5,1.7-3.2,5.1-1.5,7.6c1.7,2.5,5.1,3.2,7.6,1.5
			c0.6-0.4,1.1-0.9,1.5-1.5l3.3,2.8c-0.3,0.4-0.4,0.8-0.4,1.3c0,1.3,1.1,2.4,2.4,2.4s2.4-1.1,2.4-2.4c0-1.3-1.1-2.4-2.4-2.4
			c-0.5,0-1,0.2-1.5,0.5l-3.4-2.9c0.3-0.6,0.5-1.3,0.5-2H508.4z M510.8,221.6c0.9,0,1.6,0.7,1.6,1.6c0,0.9-0.7,1.6-1.6,1.6
			s-1.6-0.7-1.6-1.6c0,0,0,0,0,0C509.2,222.3,509.9,221.6,510.8,221.6z M510,214.5c0.9,0,1.6,0.7,1.6,1.6s-0.7,1.6-1.6,1.6
			s-1.6-0.7-1.6-1.6S509.1,214.5,510,214.5z M510,228.8c0.9,0,1.6,0.7,1.6,1.6c0,0.9-0.7,1.6-1.6,1.6c-0.9,0-1.6-0.7-1.6-1.6
			c0,0,0,0,0,0C508.4,229.5,509.1,228.8,510,228.8z M500.1,228c-2.6,0-4.8-2.1-4.8-4.8c0-2.6,2.1-4.8,4.8-4.8c2.6,0,4.8,2.1,4.8,4.8
			C504.9,225.9,502.7,228,500.1,228z"/>
	</g>
</g>
<g>
	<g>
		<polyline class="st10" points="684.8,545.3 684.8,547.2 682.9,547.2 		"/>
		<line class="st11" x1="680.1" y1="547.2" x2="124.9" y2="547.2"/>
		<polyline class="st10" points="123.5,547.2 121.6,547.2 121.6,545.3 		"/>
		<line class="st12" x1="121.6" y1="542.5" x2="121.6" y2="85.2"/>
		<polyline class="st10" points="121.6,83.8 121.6,81.9 123.5,81.9 		"/>
		<line class="st11" x1="126.3" y1="81.9" x2="681.5" y2="81.9"/>
		<polyline class="st10" points="682.9,81.9 684.8,81.9 684.8,83.8 		"/>
		<line class="st12" x1="684.8" y1="86.7" x2="684.8" y2="543.9"/>
	</g>
</g>
<rect x="88.3" y="119.8" class="st13" width="610.5" height="412.8"/>
<rect x="143.3" y="149.1" class="st14" width="522.3" height="162.4"/>
<g>
	<g>
		<path class="st15" d="M324.2,206.3v-73.9c0-2,1.6-3.7,3.7-3.7h64.6"/>
		<g>
			<path class="st4" d="M385.7,133.6c-0.1-0.2-0.1-0.5,0.2-0.7l6.5-4.1l-6.5-4.1c-0.2-0.1-0.3-0.5-0.2-0.7c0.1-0.2,0.5-0.3,0.7-0.2
				l7.1,4.5c0.1,0.1,0.2,0.3,0.2,0.4s-0.1,0.3-0.2,0.4l-7.1,4.5c-0.1,0.1-0.2,0.1-0.3,0.1C386,133.8,385.8,133.7,385.7,133.6z"/>
		</g>
	</g>
</g>
<g>
	<g>
		<line class="st15" x1="324.5" y1="365.4" x2="324.5" y2="262.5"/>
		<g>
			<path class="st4" d="M329.3,269.3c-0.2,0.1-0.5,0.1-0.7-0.2l-4.1-6.5l-4.1,6.5c-0.1,0.2-0.5,0.3-0.7,0.2s-0.3-0.5-0.2-0.7
				l4.5-7.1c0.1-0.1,0.3-0.2,0.4-0.2s0.3,0.1,0.4,0.2l4.5,7.1c0.1,0.1,0.1,0.2,0.1,0.3C329.5,269,329.5,269.2,329.3,269.3z"/>
		</g>
	</g>
</g>
<g>
	<g>
		<path class="st16" d="M391,222.6h-28.1c-2,0-3.6,1.6-3.6,3.6v131.6"/>
		<g>
			<path class="st17" d="M354.5,351c0.2-0.1,0.5-0.1,0.7,0.2l4.1,6.5l4.1-6.5c0.1-0.2,0.5-0.3,0.7-0.2c0.2,0.1,0.3,0.5,0.2,0.7
				l-4.5,7.1c-0.1,0.1-0.3,0.2-0.4,0.2s-0.3-0.1-0.4-0.2l-4.5-7.1c-0.1-0.1-0.1-0.2-0.1-0.3C354.2,351.3,354.3,351.1,354.5,351z"/>
		</g>
	</g>
</g>
<g>
	<g>
		<path class="st16" d="M434.4,222.6h42.7c2,0,3.6,1.6,3.6,3.6v131.5"/>
		<g>
			<path class="st17" d="M475.9,350.9c0.2-0.1,0.5-0.1,0.7,0.2l4.1,6.5l4.1-6.5c0.1-0.2,0.5-0.3,0.7-0.2s0.3,0.5,0.2,0.7l-4.5,7.1
				c-0.1,0.1-0.3,0.2-0.4,0.2s-0.3-0.1-0.4-0.2l-4.5-7.1c-0.1-0.1-0.1-0.2-0.1-0.3C475.6,351.2,475.7,351,475.9,350.9z"/>
		</g>
	</g>
</g>
<g>
	<g>
		<line class="st18" x1="502.4" y1="237.7" x2="502.4" y2="357.7"/>
		<g>
			<path class="st3" d="M497.6,350.9c0.2-0.1,0.5-0.1,0.7,0.2l4.1,6.5l4.1-6.5c0.1-0.2,0.5-0.3,0.7-0.2s0.3,0.5,0.2,0.7l-4.5,7.1
				c-0.1,0.1-0.3,0.2-0.4,0.2s-0.3-0.1-0.4-0.2l-4.5-7.1c-0.1-0.1-0.1-0.2-0.1-0.3C497.4,351.2,497.4,351,497.6,350.9z"/>
		</g>
	</g>
</g>
<g>
	<g>
		<path class="st18" d="M432.2,129.5h67c2,0,3.6,1.6,3.6,3.6v69.5"/>
		<g>
			<path class="st3" d="M498,195.8c0.2-0.1,0.5-0.1,0.7,0.2l4.1,6.5l4.1-6.5c0.1-0.2,0.5-0.3,0.7-0.2s0.3,0.5,0.2,0.7l-4.5,7.1
				c-0.1,0.1-0.3,0.2-0.4,0.2s-0.3-0.1-0.4-0.2l-4.5-7.1c-0.1-0.1-0.1-0.2-0.1-0.3C497.7,196.1,497.8,195.9,498,195.8z"/>
		</g>
	</g>
</g>
<g>
	<circle class="st6" cx="413.2" cy="119.9" r="16.7"/>
	<g>
		<path class="st7" d="M413.1,137.7c-9.8,0-17.7-7.9-17.7-17.7c0-9.8,7.9-17.7,17.7-17.7s17.7,7.9,17.7,17.7
			C430.8,129.8,422.8,137.7,413.1,137.7z M413.1,103.8c-8.9,0-16.2,7.3-16.2,16.2s7.3,16.2,16.2,16.2c8.9,0,16.2-7.3,16.2-16.2
			C429.2,111.1,422,103.8,413.1,103.8z"/>
		<path class="st7" d="M421.5,130.7h-2.8c-0.4,0-0.8-0.3-0.8-0.8v-14.6c-1.5-0.8-3.1-1.2-4.7-1.2c-1.8,0-3.5,0.5-5.1,1.4v14.5
			c0,0.4-0.3,0.8-0.8,0.8h-2.8c-0.4,0-0.8-0.3-0.8-0.8v-16.4c0-0.2,0.1-0.4,0.3-0.6c2.6-2.1,5.8-3.2,9.2-3.1
			c3.1-0.1,6.2,0.9,8.8,2.8c0.2,0.1,0.3,0.4,0.3,0.6v16.8C422.3,130.3,421.9,130.7,421.5,130.7z M419.4,129.2h1.3v-15.6
			c-2.2-1.5-4.9-2.3-7.5-2.3c-2.8-0.1-5.6,0.8-7.9,2.5v15.4h1.3V115c0-0.3,0.2-0.5,0.4-0.7c1.9-1.1,4-1.7,6.2-1.7
			c2,0.1,3.9,0.6,5.7,1.5h0.1c0.3,0.1,0.4,0.4,0.4,0.7V129.2z"/>
	</g>
</g>
<g>
	<path class="st19" d="M523.3,141.1h-10.2c-0.3,0-0.5-0.2-0.5-0.5v-8.7c0-0.3,0.2-0.5,0.5-0.5h10.2c0.3,0,0.5,0.2,0.5,0.5v8.7
		C523.9,140.9,523.6,141.1,523.3,141.1C523.3,141.1,523.3,141.1,523.3,141.1z M513.7,140h9.1v-7.6h-9.1V140z"/>
	<path class="st19" d="M520.7,131.9v-2.2c0-1.3-1.2-2.4-2.5-2.3c0,0,0,0,0,0l0,0c-1.3-0.1-2.4,1-2.5,2.3v2.2h-1.1v-2.2
		c0.1-1.9,1.7-3.4,3.6-3.4l0,0c1.9,0,3.5,1.5,3.6,3.4v2.2L520.7,131.9z"/>
	<path class="st19" d="M518.2,137.2L518.2,137.2c-1,0-1.8-0.8-1.8-1.8s0.8-1.8,1.8-1.8l0,0c1,0,1.8,0.8,1.8,1.8c0,0,0,0,0,0l0,0
		C520,136.4,519.2,137.2,518.2,137.2C518.2,137.2,518.2,137.2,518.2,137.2z M518.2,134.7c-0.4,0-0.7,0.3-0.7,0.7s0.3,0.7,0.7,0.7
		l0,0c0.4,0,0.7-0.3,0.7-0.7c0,0,0,0,0,0l0,0c0-0.2-0.1-0.4-0.2-0.5C518.6,134.8,518.4,134.7,518.2,134.7z"/>
	<rect x="517.7" y="136.5" class="st19" width="1.1" height="2.6"/>
	<path class="st19" d="M518.2,147.3c-0.1,0-0.2,0-0.3-0.1c-1.7-1.2-3.7-2.1-5.7-2.6c-4.2-0.8-6.7-3.1-6.7-6.1c0-1.5,0.5-3,1.4-4.2
		c0.5-1,1-1.8,1-2.9c-0.1-1.5-0.7-2.9-1.9-3.9c-0.1-0.1-0.2-0.2-0.2-0.4c0-0.1,0-0.3,0.1-0.4c0,0,3-3.6,3.7-4.6
		c0.2-0.2,0.5-0.3,0.8-0.1c0,0,0.1,0,0.1,0.1c0.9,1.1,2.3,1.8,3.7,1.9c1.4,0,2.5-0.6,3.6-2.1c0.2-0.2,0.5-0.3,0.8-0.1
		c0,0,0.1,0.1,0.1,0.1c1.1,1.4,2.2,2.1,3.6,2.1c1.5-0.1,2.8-0.8,3.7-1.9c0.1-0.1,0.3-0.2,0.4-0.2c0.2,0,0.3,0.1,0.4,0.2
		c0.7,0.9,3.7,4.5,3.7,4.6c0.1,0.1,0.1,0.3,0.1,0.4c0,0.1-0.1,0.3-0.2,0.4c-1.1,1-1.8,2.4-1.9,3.9c0,1.1,0.5,1.9,1,2.9
		c0.8,1.2,1.3,2.7,1.4,4.2c0,3.1-2.5,5.4-6.7,6.1c-2.1,0.4-4,1.3-5.7,2.6C518.5,147.2,518.4,147.3,518.2,147.3z M507.1,127
		c1.2,1.2,1.8,2.7,1.9,4.4c-0.1,1.2-0.5,2.4-1.2,3.4c-0.6,1.1-1.2,2.1-1.2,3.7c0,3.7,4.5,4.8,5.8,5.1c2.1,0.4,4.1,1.3,5.9,2.5
		c1.8-1.2,3.8-2.1,5.9-2.5c1.4-0.2,5.8-1.3,5.8-5.1c0-1.6-0.6-2.6-1.2-3.7c-0.7-1-1.1-2.2-1.2-3.4c0-1.6,0.7-3.2,1.9-4.4
		c-0.7-0.8-2.2-2.7-3-3.7c-1.1,1.1-2.6,1.7-4.1,1.8c-1.6,0-3.1-0.7-4.1-2c-1,1.2-2.5,2-4.1,2c-1.5,0-3-0.7-4.1-1.8
		C509.3,124.3,507.7,126.2,507.1,127z"/>
</g>
<g>
	<path class="st19" d="M525.5,329.6h-8.6c-0.3,0-0.5-0.2-0.5-0.5v-7.4c0-0.3,0.2-0.5,0.5-0.5h8.6c0.3,0,0.5,0.2,0.5,0.5v7.4
		C526,329.4,525.8,329.6,525.5,329.6C525.5,329.6,525.5,329.6,525.5,329.6z M517.4,328.7h7.7v-6.5h-7.7V328.7z"/>
	<path class="st19" d="M523.3,321.8v-1.9c0-1.1-1-2-2.1-2c0,0,0,0,0,0l0,0c-1.1,0-2.1,0.8-2.1,1.9v1.9h-0.9v-1.9
		c0.1-1.6,1.4-2.9,3.1-2.9l0,0c1.6,0,3,1.3,3,2.9v1.8L523.3,321.8z"/>
	<path class="st19" d="M521.2,326.3L521.2,326.3c-0.8,0-1.5-0.7-1.5-1.5s0.7-1.5,1.5-1.5l0,0c0.8,0,1.5,0.7,1.5,1.5c0,0,0,0,0,0l0,0
		C522.7,325.6,522.1,326.3,521.2,326.3C521.2,326.3,521.2,326.3,521.2,326.3z M521.2,324.2c-0.3,0-0.6,0.3-0.6,0.6
		c0,0.3,0.3,0.6,0.6,0.6l0,0c0.3,0,0.6-0.3,0.6-0.6c0,0,0,0,0,0l0,0c0-0.2-0.1-0.3-0.2-0.4C521.5,324.2,521.4,324.2,521.2,324.2z"/>
	<rect x="520.8" y="325.7" class="st19" width="0.9" height="2.2"/>
	<path class="st19" d="M521.2,334.8c-0.1,0-0.2,0-0.3-0.1c-1.5-1-3.1-1.8-4.9-2.2c-3.6-0.6-5.7-2.6-5.7-5.2c0-1.3,0.4-2.5,1.2-3.5
		c0.5-0.8,0.9-1.5,0.9-2.4c0-1.3-0.6-2.5-1.6-3.3c-0.1-0.1-0.2-0.2-0.2-0.3c0-0.1,0-0.2,0.1-0.3c0,0,2.5-3.1,3.1-3.9
		c0.1-0.2,0.4-0.3,0.6-0.1c0,0,0,0,0.1,0.1c0.8,0.9,1.9,1.5,3.2,1.6c1.2,0,2.2-0.5,3.1-1.7c0.2-0.2,0.4-0.2,0.6-0.1
		c0,0,0.1,0.1,0.1,0.1c0.9,1.2,1.9,1.7,3.1,1.7c1.2-0.1,2.4-0.6,3.2-1.6c0.1-0.1,0.2-0.2,0.4-0.1c0.1,0,0.3,0.1,0.3,0.2
		c0.6,0.8,3.1,3.8,3.1,3.9c0.1,0.1,0.1,0.2,0.1,0.3c0,0.1-0.1,0.2-0.2,0.3c-0.9,0.8-1.5,2-1.6,3.3c0,0.9,0.4,1.6,0.9,2.4
		c0.7,1,1.1,2.3,1.2,3.5c0,2.6-2.1,4.6-5.7,5.2c-1.8,0.4-3.4,1.1-4.9,2.2C521.4,334.8,521.3,334.8,521.2,334.8z M511.8,317.7
		c1,1,1.5,2.3,1.6,3.7c-0.1,1-0.4,2.1-1,2.9c-0.5,0.9-1,1.8-1,3.1c0,3.2,3.8,4.1,4.9,4.3c1.8,0.4,3.5,1.1,5,2.1c1.5-1,3.2-1.8,5-2.1
		c1.2-0.2,4.9-1.1,4.9-4.3c0-1.3-0.5-2.2-1-3.1c-0.6-0.9-0.9-1.9-1-2.9c0-1.4,0.6-2.7,1.6-3.7c-0.6-0.7-1.9-2.3-2.5-3.2
		c-0.9,0.9-2.2,1.4-3.5,1.5c-1.3,0-2.6-0.6-3.5-1.7c-0.8,1.1-2.1,1.7-3.4,1.7c-1.3,0-2.5-0.6-3.5-1.5
		C513.6,315.4,512.3,317,511.8,317.7z"/>
</g>
<g>
	<g>
		<line class="st20" x1="413.1" y1="140.6" x2="413.1" y2="200.4"/>
		<g>
			<path class="st17" d="M408.3,147.5c0.2,0.1,0.5,0.1,0.7-0.2l4.1-6.5l4.1,6.5c0.1,0.2,0.5,0.3,0.7,0.2c0.2-0.1,0.3-0.5,0.2-0.7
				l-4.5-7.1c-0.1-0.1-0.3-0.2-0.4-0.2s-0.3,0.1-0.4,0.2l-4.5,7.1c-0.1,0.1-0.1,0.2-0.1,0.3C408.1,147.2,408.2,147.4,408.3,147.5z"
				/>
		</g>
		<g>
			<path class="st17" d="M408.3,193.5c0.2-0.1,0.5-0.1,0.7,0.2l4.1,6.5l4.1-6.5c0.1-0.2,0.5-0.3,0.7-0.2c0.2,0.1,0.3,0.5,0.2,0.7
				l-4.5,7.1c-0.1,0.1-0.3,0.2-0.4,0.2s-0.3-0.1-0.4-0.2l-4.5-7.1c-0.1-0.1-0.1-0.2-0.1-0.3C408.1,193.8,408.2,193.6,408.3,193.5z"
				/>
		</g>
	</g>
</g>
<g>
	<g>
		<polyline class="st21" points="649.5,500.6 649.5,502.6 647.5,502.6 		"/>
		<line class="st22" x1="644.5" y1="502.6" x2="468.8" y2="502.6"/>
		<polyline class="st21" points="467.3,502.6 465.3,502.6 465.3,500.6 		"/>
		<line class="st23" x1="465.3" y1="497.7" x2="465.3" y2="368.7"/>
		<polyline class="st21" points="465.3,367.3 465.3,365.3 467.3,365.3 		"/>
		<line class="st22" x1="470.3" y1="365.3" x2="646" y2="365.3"/>
		<polyline class="st21" points="647.5,365.3 649.5,365.3 649.5,367.3 		"/>
		<line class="st23" x1="649.5" y1="370.2" x2="649.5" y2="499.2"/>
	</g>
</g>
<g>
	<g>
		<polyline class="st21" points="440.5,501 440.5,502.6 438.9,502.6 		"/>
		<line class="st24" x1="436.4" y1="502.6" x2="316.5" y2="502.6"/>
		<polyline class="st21" points="315.3,502.6 313.6,502.6 313.6,501 		"/>
		<line class="st25" x1="313.6" y1="498.5" x2="313.6" y2="368.2"/>
		<polyline class="st21" points="313.6,366.9 313.6,365.3 315.3,365.3 		"/>
		<line class="st24" x1="317.8" y1="365.3" x2="437.6" y2="365.3"/>
		<polyline class="st21" points="438.9,365.3 440.5,365.3 440.5,366.9 		"/>
		<line class="st25" x1="440.5" y1="369.4" x2="440.5" y2="499.8"/>
	</g>
</g>
<g>
	<g>
		<polyline class="st21" points="283.7,501 283.7,502.6 282,502.6 		"/>
		<line class="st24" x1="279.5" y1="502.6" x2="159.7" y2="502.6"/>
		<polyline class="st21" points="158.4,502.6 156.8,502.6 156.8,501 		"/>
		<line class="st25" x1="156.8" y1="498.5" x2="156.8" y2="368.2"/>
		<polyline class="st21" points="156.8,366.9 156.8,365.3 158.4,365.3 		"/>
		<line class="st24" x1="160.9" y1="365.3" x2="280.8" y2="365.3"/>
		<polyline class="st21" points="282,365.3 283.7,365.3 283.7,366.9 		"/>
		<line class="st25" x1="283.7" y1="369.4" x2="283.7" y2="499.8"/>
	</g>
</g>
<g>
	<g>
		<line class="st21" x1="289.8" y1="376.8" x2="291.4" y2="376.8"/>
		<polyline class="st21" points="293.5,376.8 295.2,376.8 295.2,378.4 		"/>
		<line class="st25" x1="295.2" y1="380.9" x2="295.2" y2="511.3"/>
		<polyline class="st21" points="295.2,512.5 295.2,514.1 293.5,514.1 		"/>
		<line class="st24" x1="291" y1="514.1" x2="171.2" y2="514.1"/>
		<polyline class="st21" points="169.9,514.1 168.3,514.1 168.3,512.5 		"/>
		<line class="st21" x1="168.3" y1="510.5" x2="168.3" y2="508.9"/>
	</g>
</g>
<g>
	<g>
		<line class="st21" x1="283.9" y1="371" x2="285.6" y2="371"/>
		<polyline class="st21" points="287.7,371 289.3,371 289.3,372.6 		"/>
		<line class="st25" x1="289.3" y1="375.1" x2="289.3" y2="505.4"/>
		<polyline class="st21" points="289.3,506.7 289.3,508.3 287.7,508.3 		"/>
		<line class="st24" x1="285.2" y1="508.3" x2="165.4" y2="508.3"/>
		<polyline class="st21" points="164.1,508.3 162.5,508.3 162.5,506.7 		"/>
		<line class="st21" x1="162.5" y1="504.4" x2="162.5" y2="502.8"/>
	</g>
</g>
<g>
	<g>
		<path d="M167,479.2h3.5v0.8H166v-6.7h4.3v0.8H167v2h3.2v0.8H167V479.2z"/>
		<path d="M171.6,473.3h2.3c1,0,2.1,0.4,2.1,1.7c0,0.7-0.5,1.3-1.2,1.5v0c0.9,0.1,1.5,0.7,1.5,1.6c0,1.3-1.1,1.9-2.5,1.9h-2.2V473.3
			z M172.5,476.2h1.2c0.7,0,1.3-0.3,1.3-1c0-0.7-0.6-1-1.5-1h-1.1V476.2z M172.5,479.2h1.2c0.8,0,1.7-0.2,1.7-1.2
			c0-0.8-0.6-1.1-1.6-1.1h-1.3V479.2z"/>
		<path d="M180.9,474.6c-0.3-0.4-0.8-0.6-1.3-0.6c-0.6,0-1.3,0.3-1.3,1.1c0,0.7,0.6,0.9,1.4,1.2c0.9,0.3,2,0.6,2,2
			c0,1.4-1.1,2-2.3,2c-0.8,0-1.7-0.3-2.2-1l0.7-0.6c0.3,0.5,0.9,0.8,1.5,0.8c0.6,0,1.3-0.4,1.3-1.2c0-0.8-0.7-1-1.6-1.3
			c-0.9-0.3-1.7-0.7-1.7-1.9c0-1.3,1.2-1.9,2.3-1.9c0.8,0,1.5,0.3,1.9,0.8L180.9,474.6z"/>
		<path d="M188.9,474.1h-2.8l-0.1,1.8c0.2-0.1,0.6-0.1,0.9-0.1c1.3,0,2.3,0.8,2.3,2.1c0,1.4-1,2.3-2.3,2.3c-1,0-1.8-0.5-2.1-1.3
			l0.8-0.3c0.2,0.5,0.7,0.9,1.3,0.9c0.8,0,1.4-0.6,1.4-1.4c0-1-0.7-1.5-1.6-1.5c-0.5,0-1.1,0.2-1.5,0.4l0.1-3.6h3.6V474.1z"/>
		<path d="M194.8,476.7c0,2-0.7,3.5-2.3,3.5c-1.6,0-2.3-1.6-2.3-3.5c0-2,0.7-3.5,2.3-3.5C194.2,473.1,194.8,474.7,194.8,476.7z
			 M191.2,476.7c0,1.1,0.2,2.8,1.4,2.8c1.1,0,1.3-1.6,1.3-2.8c0-1.1-0.3-2.8-1.3-2.8C191.4,473.9,191.2,475.5,191.2,476.7z"/>
		<path d="M200.4,476.7c0,2-0.7,3.5-2.3,3.5c-1.6,0-2.3-1.6-2.3-3.5c0-2,0.7-3.5,2.3-3.5C199.7,473.1,200.4,474.7,200.4,476.7z
			 M196.7,476.7c0,1.1,0.2,2.8,1.4,2.8c1.1,0,1.3-1.6,1.3-2.8c0-1.1-0.3-2.8-1.3-2.8C197,473.9,196.7,475.5,196.7,476.7z"/>
		<path d="M208.9,474.7c-0.4-0.4-1.1-0.7-1.8-0.7c-1.6,0-2.6,1.2-2.6,2.7c0,1.5,1,2.7,2.6,2.7c0.6,0,1.2-0.1,1.6-0.3v-1.9h-1.5v-0.8
			h2.4v3.3c-0.7,0.4-1.5,0.6-2.5,0.6c-2.1,0-3.6-1.5-3.6-3.5c0-2.1,1.5-3.5,3.6-3.5c1.1,0,1.9,0.3,2.5,0.9L208.9,474.7z"/>
		<path d="M211,473.3h2.3c1,0,2.1,0.4,2.1,1.7c0,0.7-0.5,1.3-1.2,1.5v0c0.9,0.1,1.5,0.7,1.5,1.6c0,1.3-1.1,1.9-2.5,1.9H211V473.3z
			 M212,476.2h1.2c0.7,0,1.3-0.3,1.3-1c0-0.7-0.6-1-1.5-1H212V476.2z M212,479.2h1.2c0.8,0,1.7-0.2,1.7-1.2c0-0.8-0.6-1.1-1.6-1.1
			H212V479.2z"/>
		<path d="M219.7,476.8h2.1v0.8h-2.1v2.1H219v-2.1h-2.1v-0.8h2.1v-2.1h0.8V476.8z"/>
		<path d="M174.3,489v-4.2h0.9v4.2c0,0.9,0.4,1.9,1.7,1.9s1.7-1,1.7-1.9v-4.2h0.9v4.2c0,1.4-0.8,2.7-2.6,2.7S174.3,490.3,174.3,489z
			"/>
		<path d="M183.4,488.1c-0.2-0.3-0.6-0.6-1-0.6c-0.4,0-0.8,0.2-0.8,0.6c0,0.4,0.3,0.5,1,0.7c0.9,0.2,1.5,0.5,1.5,1.3
			c0,1.1-0.9,1.5-1.8,1.5c-0.7,0-1.4-0.3-1.8-0.8l0.6-0.5c0.2,0.4,0.7,0.6,1.2,0.6c0.4,0,0.9-0.2,0.9-0.7c0-0.4-0.4-0.6-1.2-0.8
			c-0.6-0.1-1.3-0.4-1.3-1.2c0-1,0.8-1.4,1.7-1.4c0.6,0,1.3,0.3,1.6,0.7L183.4,488.1z"/>
		<path d="M189.2,489.5h-3.6c0,0.8,0.7,1.4,1.5,1.4c0.6,0,1.1-0.3,1.3-0.7l0.6,0.5c-0.5,0.6-1.1,0.9-1.9,0.9c-1.4,0-2.4-1-2.4-2.4
			c0-1.4,1-2.4,2.3-2.4c1.3,0,2.2,0.9,2.2,2.3C189.2,489.2,189.2,489.4,189.2,489.5z M188.3,488.8c0-0.7-0.4-1.3-1.3-1.3
			c-0.8,0-1.4,0.6-1.4,1.3H188.3z"/>
		<path d="M190.3,486.9h0.8c0,0.2,0,0.6,0,0.8h0c0.2-0.5,0.8-0.9,1.4-0.9c0.1,0,0.2,0,0.4,0l0,0.8c-0.1,0-0.3,0-0.4,0
			c-0.9,0-1.3,0.7-1.3,1.4v2.4h-0.9v-3.5C190.3,487.7,190.3,487.2,190.3,486.9z"/>
		<path d="M197.8,491.6c-1.4,0-2.3-1.1-2.3-2.4c0-1.3,0.9-2.4,2.3-2.4c0.7,0,1.3,0.4,1.6,0.8h0v-3.4h0.9v7.2h-0.9v-0.7h0
			C199.1,491.3,198.5,491.6,197.8,491.6z M198,490.8c0.9,0,1.5-0.8,1.5-1.6s-0.6-1.6-1.5-1.6c-1,0-1.5,0.8-1.5,1.6
			S197,490.8,198,490.8z"/>
		<path d="M204.6,488.5c0-0.7-0.4-1-1.1-1c-0.5,0-1,0.2-1.3,0.5l-0.5-0.6c0.4-0.4,1.1-0.7,1.8-0.7c1.3,0,1.9,0.8,1.9,1.8v2
			c0,0.3,0,0.7,0.1,0.9h-0.8c0-0.2-0.1-0.4-0.1-0.6h0c-0.3,0.5-0.8,0.8-1.5,0.8c-0.7,0-1.6-0.4-1.6-1.4c0-1.4,1.6-1.5,3.1-1.5V488.5
			z M204.3,489.3c-0.9,0-2,0.1-2,0.9c0,0.5,0.5,0.7,0.9,0.7c0.8,0,1.3-0.6,1.3-1.3v-0.2H204.3z"/>
		<path d="M209,487.7h-1.2v2.3c0,0.5,0.2,0.8,0.6,0.8c0.2,0,0.4,0,0.5-0.1l0,0.7c-0.2,0.1-0.5,0.1-0.8,0.1c-0.8,0-1.3-0.5-1.3-1.4
			v-2.4H206v-0.7h0.9v-1.3h0.9v1.3h1.2V487.7z"/>
		<path d="M212.6,488.5c0-0.7-0.4-1-1.1-1c-0.5,0-1,0.2-1.3,0.5l-0.5-0.6c0.4-0.4,1.1-0.7,1.8-0.7c1.3,0,1.9,0.8,1.9,1.8v2
			c0,0.3,0,0.7,0.1,0.9h-0.8c0-0.2-0.1-0.4-0.1-0.6h0c-0.3,0.5-0.8,0.8-1.5,0.8c-0.7,0-1.6-0.4-1.6-1.4c0-1.4,1.6-1.5,3.1-1.5V488.5
			z M212.3,489.3c-0.9,0-2,0.1-2,0.9c0,0.5,0.5,0.7,0.9,0.7c0.8,0,1.3-0.6,1.3-1.3v-0.2H212.3z"/>
	</g>
</g>
<g>
	<g>
		<path d="M231.7,480.2h3.5v0.8h-4.5v-6.7h4.3v0.8h-3.4v2h3.2v0.8h-3.2V480.2z"/>
		<path d="M236.3,474.3h2.3c1,0,2.1,0.4,2.1,1.7c0,0.7-0.5,1.3-1.2,1.5v0c0.9,0.1,1.5,0.7,1.5,1.6c0,1.3-1.1,1.9-2.5,1.9h-2.2V474.3
			z M237.3,477.2h1.2c0.7,0,1.3-0.3,1.3-1c0-0.7-0.6-1-1.5-1h-1.1V477.2z M237.3,480.2h1.2c0.8,0,1.7-0.2,1.7-1.2
			c0-0.8-0.6-1.1-1.6-1.1h-1.3V480.2z"/>
		<path d="M245.6,475.6c-0.3-0.4-0.8-0.6-1.3-0.6c-0.6,0-1.3,0.3-1.3,1.1c0,0.7,0.6,0.9,1.4,1.2c0.9,0.3,2,0.6,2,2
			c0,1.4-1.1,2-2.3,2c-0.8,0-1.7-0.3-2.2-1l0.7-0.6c0.3,0.5,0.9,0.8,1.5,0.8c0.6,0,1.4-0.4,1.4-1.2c0-0.8-0.7-1-1.6-1.3
			c-0.9-0.3-1.7-0.7-1.7-1.9c0-1.3,1.2-1.9,2.3-1.9c0.8,0,1.5,0.3,1.9,0.8L245.6,475.6z"/>
		<path d="M253.6,475.1h-2.8l-0.1,1.8c0.2-0.1,0.6-0.1,0.9-0.1c1.3,0,2.3,0.8,2.3,2.1c0,1.4-1,2.3-2.3,2.3c-1,0-1.8-0.5-2.1-1.3
			l0.8-0.3c0.2,0.5,0.7,0.9,1.3,0.9c0.8,0,1.4-0.6,1.4-1.4c0-1-0.7-1.5-1.6-1.5c-0.5,0-1.1,0.2-1.5,0.4l0.1-3.6h3.6V475.1z"/>
		<path d="M259.6,477.7c0,2-0.7,3.5-2.3,3.5c-1.6,0-2.3-1.6-2.3-3.5c0-2,0.7-3.5,2.3-3.5C258.9,474.1,259.6,475.7,259.6,477.7z
			 M255.9,477.7c0,1.1,0.2,2.8,1.4,2.8c1.1,0,1.3-1.6,1.3-2.8c0-1.1-0.3-2.8-1.3-2.8C256.2,474.9,255.9,476.5,255.9,477.7z"/>
		<path d="M268.1,475.7c-0.4-0.4-1.1-0.7-1.8-0.7c-1.6,0-2.6,1.2-2.6,2.7c0,1.5,1,2.7,2.6,2.7c0.6,0,1.2-0.1,1.6-0.3v-1.9h-1.5v-0.8
			h2.4v3.3c-0.7,0.4-1.5,0.6-2.5,0.6c-2.1,0-3.6-1.5-3.6-3.5c0-2.1,1.5-3.5,3.6-3.5c1.1,0,1.9,0.3,2.5,0.9L268.1,475.7z"/>
		<path d="M270.3,474.3h2.3c1,0,2.1,0.4,2.1,1.7c0,0.7-0.5,1.3-1.2,1.5v0c0.9,0.1,1.5,0.7,1.5,1.6c0,1.3-1.1,1.9-2.5,1.9h-2.2V474.3
			z M271.2,477.2h1.2c0.7,0,1.3-0.3,1.3-1c0-0.7-0.6-1-1.5-1h-1.1V477.2z M271.2,480.2h1.2c0.8,0,1.7-0.2,1.7-1.2
			c0-0.8-0.6-1.1-1.6-1.1h-1.3V480.2z"/>
		<path d="M231.6,492.4h-0.9v-6.7h0.9V492.4z"/>
		<path d="M233.9,487.9c0,0.2,0,0.6,0,0.7h0c0.2-0.5,0.8-0.9,1.5-0.9c1.2,0,1.7,0.8,1.7,1.8v2.8h-0.9v-2.5c0-0.7-0.2-1.4-1-1.4
			c-0.7,0-1.2,0.6-1.2,1.5v2.4h-0.9v-3.5c0-0.2,0-0.7,0-1H233.9z"/>
		<path d="M240.9,489.1c-0.2-0.3-0.6-0.6-1-0.6c-0.4,0-0.8,0.2-0.8,0.6c0,0.4,0.3,0.5,1,0.7c0.9,0.2,1.5,0.5,1.5,1.3
			c0,1.1-0.9,1.5-1.8,1.5c-0.7,0-1.4-0.3-1.8-0.8l0.6-0.5c0.2,0.4,0.7,0.6,1.2,0.6c0.4,0,0.9-0.2,0.9-0.7c0-0.4-0.4-0.6-1.2-0.8
			c-0.6-0.1-1.3-0.4-1.3-1.2c0-1,0.8-1.4,1.7-1.4c0.6,0,1.3,0.3,1.6,0.7L240.9,489.1z"/>
		<path d="M244.7,488.7h-1.2v2.3c0,0.5,0.2,0.8,0.6,0.8c0.2,0,0.4,0,0.5-0.1l0,0.7c-0.2,0.1-0.5,0.1-0.8,0.1c-0.8,0-1.3-0.5-1.3-1.4
			v-2.4h-0.9v-0.7h0.9v-1.3h0.9v1.3h1.2V488.7z"/>
		<path d="M248.3,489.5c0-0.7-0.4-1-1.1-1c-0.5,0-1,0.2-1.3,0.5l-0.5-0.6c0.4-0.4,1.1-0.7,1.8-0.7c1.3,0,1.9,0.8,1.9,1.8v2
			c0,0.3,0,0.7,0.1,0.9h-0.8c0-0.2-0.1-0.4-0.1-0.6h0c-0.3,0.5-0.8,0.8-1.5,0.8c-0.7,0-1.6-0.4-1.6-1.4c0-1.4,1.6-1.5,3.1-1.5V489.5
			z M248.1,490.3c-0.9,0-2,0.1-2,0.9c0,0.5,0.5,0.7,0.9,0.7c0.8,0,1.3-0.6,1.3-1.3v-0.2H248.1z"/>
		<path d="M251.4,492.4h-0.9v-7.2h0.9V492.4z"/>
		<path d="M253.7,492.4h-0.9v-7.2h0.9V492.4z"/>
		<path d="M259.4,492.6c-1.4,0-2.3-1.1-2.3-2.4c0-1.3,0.9-2.4,2.3-2.4c0.7,0,1.3,0.4,1.6,0.8h0v-3.4h0.9v7.2H261v-0.7h0
			C260.6,492.3,260,492.6,259.4,492.6z M259.5,491.8c0.9,0,1.5-0.8,1.5-1.6s-0.6-1.6-1.5-1.6c-1,0-1.5,0.8-1.5,1.6
			C258,491,258.5,491.8,259.5,491.8z"/>
		<path d="M266.1,489.5c0-0.7-0.4-1-1.1-1c-0.5,0-1,0.2-1.3,0.5l-0.5-0.6c0.4-0.4,1.1-0.7,1.8-0.7c1.3,0,1.9,0.8,1.9,1.8v2
			c0,0.3,0,0.7,0.1,0.9h-0.8c0-0.2-0.1-0.4-0.1-0.6h0c-0.3,0.5-0.8,0.8-1.5,0.8c-0.7,0-1.6-0.4-1.6-1.4c0-1.4,1.6-1.5,3.1-1.5V489.5
			z M265.9,490.3c-0.9,0-2,0.1-2,0.9c0,0.5,0.5,0.7,0.9,0.7c0.8,0,1.3-0.6,1.3-1.3v-0.2H265.9z"/>
		<path d="M270.5,488.7h-1.2v2.3c0,0.5,0.2,0.8,0.6,0.8c0.2,0,0.4,0,0.5-0.1l0,0.7c-0.2,0.1-0.5,0.1-0.8,0.1c-0.8,0-1.3-0.5-1.3-1.4
			v-2.4h-0.9v-0.7h0.9v-1.3h0.9v1.3h1.2V488.7z"/>
		<path d="M274.1,489.5c0-0.7-0.4-1-1.1-1c-0.5,0-1,0.2-1.3,0.5l-0.5-0.6c0.4-0.4,1.1-0.7,1.8-0.7c1.3,0,1.9,0.8,1.9,1.8v2
			c0,0.3,0,0.7,0.1,0.9h-0.8c0-0.2-0.1-0.4-0.1-0.6h0c-0.3,0.5-0.8,0.8-1.5,0.8c-0.7,0-1.6-0.4-1.6-1.4c0-1.4,1.6-1.5,3.1-1.5V489.5
			z M273.9,490.3c-0.9,0-2,0.1-2,0.9c0,0.5,0.5,0.7,0.9,0.7c0.8,0,1.3-0.6,1.3-1.3v-0.2H273.9z"/>
	</g>
</g>
<g>
	<path d="M209.8,383.7c-0.5,0.8-1.5,1.3-2.7,1.3c-2.2,0-3.7-1.5-3.7-3.7c0-2.2,1.6-3.7,3.8-3.7c1,0,2,0.4,2.5,1.1l-0.8,0.6
		c-0.3-0.5-1-0.8-1.8-0.8c-1.6,0-2.7,1.3-2.7,2.8c0,1.6,1,2.8,2.7,2.8c0.8,0,1.5-0.3,1.9-0.9L209.8,383.7z"/>
	<path d="M211,384.8h-1.1l3.1-7.1h0.9l3,7.1h-1.1l-0.7-1.7h-3.4L211,384.8z M212,382.2h2.6l-1.3-3.3L212,382.2z"/>
	<path d="M221.2,379c-0.3-0.4-0.8-0.7-1.4-0.7c-0.6,0-1.4,0.3-1.4,1.1c0,0.8,0.6,1,1.4,1.2c0.9,0.3,2.1,0.7,2.1,2.1
		c0,1.5-1.2,2.1-2.4,2.1c-0.9,0-1.8-0.3-2.3-1l0.8-0.6c0.3,0.5,0.9,0.8,1.6,0.8c0.7,0,1.4-0.4,1.4-1.2c0-0.9-0.8-1.1-1.7-1.4
		c-0.9-0.3-1.8-0.7-1.8-2c0-1.4,1.3-2,2.4-2c0.8,0,1.6,0.3,2,0.8L221.2,379z"/>
	<path d="M225.8,380.1l1.1,3.6h0l1.1-3.6h1l1.1,3.6h0l1.1-3.6h1l-1.6,4.7h-1l-1.2-3.6h0l-1.2,3.6h-1l-1.6-4.7H225.8z"/>
	<path d="M235.3,384.9c-1.4,0-2.5-1-2.5-2.5s1.1-2.5,2.5-2.5s2.6,1,2.6,2.5S236.8,384.9,235.3,384.9z M235.3,380.7
		c-1,0-1.6,0.8-1.6,1.7s0.6,1.7,1.6,1.7c1,0,1.6-0.8,1.6-1.7S236.3,380.7,235.3,380.7z"/>
	<path d="M239,380.1h0.9c0,0.2,0,0.6,0,0.8h0c0.3-0.5,0.8-0.9,1.4-0.9c0.1,0,0.3,0,0.4,0l0,0.9c-0.1,0-0.3,0-0.4,0
		c-0.9,0-1.3,0.7-1.3,1.5v2.5H239v-3.7C239,380.8,239,380.4,239,380.1z"/>
	<path d="M243.5,382.1L243.5,382.1l2-2.1h1.3l-2.2,2.1l2.4,2.6h-1.3l-2.1-2.5h0v2.5h-0.9v-7.6h0.9V382.1z"/>
	<path d="M252,382.7h-3.8c0,0.8,0.7,1.4,1.5,1.4c0.6,0,1.1-0.3,1.4-0.7l0.7,0.5c-0.5,0.7-1.2,1-2,1c-1.4,0-2.5-1-2.5-2.5
		c0-1.5,1.1-2.5,2.4-2.5c1.4,0,2.3,0.9,2.3,2.5C252,382.5,252,382.6,252,382.7z M251.1,382c0-0.7-0.5-1.3-1.3-1.3
		c-0.8,0-1.4,0.6-1.5,1.3H251.1z"/>
	<path d="M253.2,380.1h0.9c0,0.2,0,0.6,0,0.8h0c0.3-0.5,0.8-0.9,1.4-0.9c0.1,0,0.3,0,0.4,0l0,0.9c-0.1,0-0.3,0-0.4,0
		c-0.9,0-1.3,0.7-1.3,1.5v2.5h-0.9v-3.7C253.2,380.8,253.2,380.4,253.2,380.1z"/>
	<path d="M259.2,381.3c-0.2-0.3-0.6-0.6-1.1-0.6c-0.4,0-0.9,0.2-0.9,0.6c0,0.4,0.4,0.5,1.1,0.7c0.9,0.2,1.6,0.6,1.6,1.4
		c0,1.1-0.9,1.5-1.9,1.5c-0.7,0-1.5-0.3-1.9-0.8l0.7-0.6c0.2,0.4,0.7,0.7,1.3,0.7c0.5,0,0.9-0.2,0.9-0.7c0-0.4-0.4-0.6-1.2-0.8
		c-0.6-0.1-1.4-0.4-1.4-1.3c0-1,0.9-1.4,1.8-1.4c0.7,0,1.4,0.3,1.7,0.8L259.2,381.3z"/>
</g>
<g>
	<path d="M204,402.6c-0.3,0-0.6-0.3-0.6-0.6c0-0.3,0.3-0.6,0.6-0.6c0.3,0,0.6,0.3,0.6,0.6C204.6,402.4,204.3,402.6,204,402.6z
		 M204.4,408.5h-0.9v-4.7h0.9V408.5z"/>
	<path d="M207.2,404.4h0.3c0.8,0,1.6-0.3,1.6-1.2c0-0.7-0.6-1.2-1.2-1.2c-0.6,0-1,0.3-1.2,0.9l-0.9-0.3c0.4-0.8,1.2-1.4,2.2-1.4
		c1.2,0,2.2,0.7,2.2,1.9c0,0.8-0.5,1.4-1.2,1.6v0c0.8,0.2,1.4,0.8,1.4,1.7c0,1.4-1.2,2.2-2.4,2.2c-1.1,0-2-0.5-2.4-1.6l0.9-0.3
		c0.2,0.6,0.7,1,1.5,1c0.7,0,1.4-0.5,1.4-1.3c0-1-0.9-1.3-1.8-1.3h-0.3V404.4z"/>
	<path d="M212.2,408.5c-0.4,0-0.7-0.3-0.7-0.6c0-0.4,0.3-0.7,0.7-0.7s0.7,0.3,0.7,0.7C212.9,408.2,212.6,408.5,212.2,408.5z"/>
	<path d="M217.9,406.1h1v0.8h-1v1.6h-0.9v-1.6h-3.3V406l3-4.6h1.2V406.1z M216.9,402.5L216.9,402.5l-2.3,3.5h2.3V402.5z"/>
	<path d="M221.1,406l-1.7-2.2h1.2l1.2,1.6l1.2-1.6h1.1l-1.7,2.2l1.9,2.5H223l-1.3-1.8l-1.3,1.8h-1.1L221.1,406z"/>
	<path d="M225.9,408.5H225v-7.6h0.9V408.5z"/>
	<path d="M230.3,405.4c0-0.7-0.5-1-1.2-1c-0.5,0-1,0.2-1.3,0.5l-0.5-0.6c0.5-0.4,1.2-0.7,1.9-0.7c1.4,0,2,0.8,2,1.9v2.1
		c0,0.3,0,0.7,0.1,0.9h-0.8c0-0.2-0.1-0.5-0.1-0.7h0c-0.3,0.5-0.9,0.8-1.6,0.8c-0.7,0-1.7-0.4-1.7-1.5c0-1.4,1.7-1.6,3.3-1.6V405.4z
		 M230.1,406.2c-0.9,0-2.1,0.1-2.1,0.9c0,0.6,0.5,0.7,1,0.7c0.9,0,1.4-0.6,1.4-1.4v-0.2H230.1z"/>
	<path d="M232.6,403.7h0.9c0,0.2,0,0.6,0,0.8h0c0.3-0.5,0.8-0.9,1.4-0.9c0.1,0,0.3,0,0.4,0l0,0.9c-0.1,0-0.3,0-0.4,0
		c-0.9,0-1.3,0.7-1.3,1.5v2.5h-0.9v-3.7C232.7,404.5,232.6,404.1,232.6,403.7z"/>
	<path d="M236.5,409.3c0.4,0.5,1.1,0.8,1.7,0.8c1.2,0,1.7-0.8,1.7-1.7v-0.6h0c-0.4,0.5-1,0.8-1.7,0.8c-1.4,0-2.4-1.1-2.4-2.4
		c0-1.4,0.9-2.5,2.4-2.5c0.7,0,1.3,0.3,1.7,0.9h0v-0.8h0.9v4.5c0,1.4-0.6,2.6-2.6,2.6c-0.8,0-1.7-0.3-2.3-0.9L236.5,409.3z
		 M238.4,407.7c1,0,1.6-0.7,1.6-1.7c0-0.9-0.6-1.7-1.6-1.7c-1,0-1.6,0.8-1.6,1.7C236.8,406.9,237.4,407.7,238.4,407.7z"/>
	<path d="M246.7,406.4h-3.8c0,0.8,0.7,1.4,1.5,1.4c0.6,0,1.1-0.3,1.4-0.7l0.7,0.5c-0.5,0.7-1.2,1-2,1c-1.4,0-2.5-1-2.5-2.5
		c0-1.5,1.1-2.5,2.4-2.5c1.4,0,2.3,0.9,2.3,2.5C246.7,406.2,246.7,406.3,246.7,406.4z M245.8,405.7c0-0.7-0.5-1.3-1.3-1.3
		c-0.8,0-1.4,0.6-1.5,1.3H245.8z"/>
</g>
<path class="st8" d="M197.9,383.1v-1.5h-3.5v-4.3h-4.5v-3.5h-1.5v3.5h-3.2v-3.5h-1.5v3.5h-3.2v-3.5h-1.5v3.5h-3.2v-3.5h-1.5v3.5
	h-3.2v-3.5h-1.5v3.5h-4.1v4.3h-3.5v1.5h3.5v3.2h-3.5v1.5h3.5v3.2h-3.5v1.5h3.5v3.2h-3.5v1.5h3.5v3.2h-3.5v1.5h3.5v4.3h4.1v3.5h1.5
	v-3.5h3.2v3.5h1.5v-3.5h3.2v3.5h1.5v-3.5h3.2v3.5h1.5v-3.5h3.2v3.5h1.5v-3.5h4.5v-4.3h3.5v-1.5h-3.5v-3.2h3.5v-1.5h-3.5v-3.2h3.5
	V391h-3.5v-3.2h3.5v-1.5h-3.5v-3.2H197.9z M192.9,404.6h-25.8v-25.8h25.8V404.6z"/>
<g id="Working_13_">
	<path class="st3" d="M206.8,466.1h-26.7c-0.4,0-0.7-0.3-0.7-0.7v-24.6c0-0.4,0.3-0.7,0.7-0.7h26.7c0.4,0,0.7,0.3,0.7,0.7v24.6
		C207.5,465.7,207.2,466.1,206.8,466.1z M180.8,464.6H206v-23.1h-25.2V464.6z"/>
	<path class="st3" d="M206.8,438.7h-26.7c-0.3,0-0.5-0.2-0.7-0.4c-0.1-0.2-0.1-0.5,0.1-0.7l4.7-6.3c0.1-0.2,0.4-0.3,0.6-0.3H202
		c0.2,0,0.5,0.1,0.6,0.3l4.7,6.3c0.2,0.2,0.2,0.5,0.1,0.7C207.3,438.5,207.1,438.7,206.8,438.7z M181.6,437.2h23.7l-3.6-4.8h-16.5
		L181.6,437.2z"/>
</g>
<g id="Working_12_">
	<path class="st3" d="M265.6,466.4h-26.7c-0.4,0-0.7-0.3-0.7-0.7v-24.6c0-0.4,0.3-0.7,0.7-0.7h26.7c0.4,0,0.7,0.3,0.7,0.7v24.6
		C266.4,466.1,266,466.4,265.6,466.4z M239.7,464.9h25.2v-23.1h-25.2V464.9z"/>
	<path class="st3" d="M265.6,439h-26.7c-0.3,0-0.5-0.2-0.7-0.4c-0.1-0.2-0.1-0.5,0.1-0.7l4.7-6.3c0.1-0.2,0.4-0.3,0.6-0.3h17.2
		c0.2,0,0.5,0.1,0.6,0.3l4.7,6.3c0.2,0.2,0.2,0.5,0.1,0.7C266.2,438.9,265.9,439,265.6,439z M240.4,437.5h23.7l-3.6-4.8H244
		L240.4,437.5z"/>
</g>
<line class="st5" x1="471.9" y1="444.5" x2="574.8" y2="444.5"/>
<line class="st5" x1="471.9" y1="467" x2="574.8" y2="467"/>
<g>
	<g>
		<line class="st16" x1="463.5" y1="434" x2="442.1" y2="434"/>
		<g>
			<path class="st17" d="M456.6,429.2c-0.1,0.2-0.1,0.5,0.2,0.7l6.5,4.1l-6.5,4.1c-0.2,0.1-0.3,0.5-0.2,0.7c0.1,0.2,0.5,0.3,0.7,0.2
				l7.1-4.5c0.1-0.1,0.2-0.3,0.2-0.4s-0.1-0.3-0.2-0.4l-7.1-4.5c-0.1-0.1-0.2-0.1-0.3-0.1C456.9,429,456.7,429.1,456.6,429.2z"/>
		</g>
		<g>
			<path class="st17" d="M448.9,429.2c0.1,0.2,0.1,0.5-0.2,0.7l-6.5,4.1l6.5,4.1c0.2,0.1,0.3,0.5,0.2,0.7c-0.1,0.2-0.5,0.3-0.7,0.2
				l-7.1-4.5c-0.1-0.1-0.2-0.3-0.2-0.4s0.1-0.3,0.2-0.4l7.1-4.5c0.1-0.1,0.2-0.1,0.3-0.1C448.7,429,448.8,429.1,448.9,429.2z"/>
		</g>
	</g>
</g>
<g>
	<g>
		<line class="st16" x1="311.8" y1="434" x2="285.3" y2="434"/>
		<g>
			<path class="st17" d="M305,429.2c-0.1,0.2-0.1,0.5,0.2,0.7l6.5,4.1l-6.5,4.1c-0.2,0.1-0.3,0.5-0.2,0.7c0.1,0.2,0.5,0.3,0.7,0.2
				l7.1-4.5c0.1-0.1,0.2-0.3,0.2-0.4s-0.1-0.3-0.2-0.4l-7.1-4.5c-0.1-0.1-0.2-0.1-0.3-0.1C305.3,429,305.1,429.1,305,429.2z"/>
		</g>
		<g>
			<path class="st17" d="M292.1,429.2c0.1,0.2,0.1,0.5-0.2,0.7l-6.5,4.1l6.5,4.1c0.2,0.1,0.3,0.5,0.2,0.7c-0.1,0.2-0.5,0.3-0.7,0.2
				l-7.1-4.5c-0.1-0.1-0.2-0.3-0.2-0.4s0.1-0.3,0.2-0.4l7.1-4.5c0.1-0.1,0.2-0.1,0.3-0.1C291.9,429,292,429.1,292.1,429.2z"/>
		</g>
	</g>
</g>
<g>
	<path d="M86.5,49.9h-1.1l3.1-7.1h0.9l3,7.1h-1.1l-0.7-1.7h-3.4L86.5,49.9z M87.5,47.2h2.6l-1.3-3.3L87.5,47.2z"/>
	<path d="M95,48.4L95,48.4l1.7-5.6h1.1l1.6,5.6h0l1.6-5.6h1l-2.1,7.1h-1l-1.7-5.7h0l-1.7,5.7h-1l-2.1-7.1h1.1L95,48.4z"/>
	<path d="M106.4,44.1c-0.3-0.4-0.8-0.7-1.4-0.7c-0.6,0-1.4,0.3-1.4,1.1c0,0.8,0.6,1,1.4,1.2c0.9,0.3,2.1,0.7,2.1,2.1
		c0,1.5-1.2,2.1-2.4,2.1c-0.9,0-1.8-0.3-2.3-1l0.8-0.6c0.3,0.5,0.9,0.8,1.6,0.8c0.7,0,1.4-0.4,1.4-1.2c0-0.9-0.8-1.1-1.7-1.4
		s-1.8-0.7-1.8-2c0-1.4,1.3-2,2.4-2c0.8,0,1.6,0.3,2,0.8L106.4,44.1z"/>
	<path d="M116.8,48.8c-0.5,0.8-1.5,1.3-2.7,1.3c-2.2,0-3.7-1.5-3.7-3.7c0-2.2,1.6-3.7,3.8-3.7c1,0,2,0.4,2.5,1.1l-0.8,0.6
		c-0.3-0.5-1-0.8-1.8-0.8c-1.6,0-2.7,1.3-2.7,2.8c0,1.6,1,2.8,2.7,2.8c0.8,0,1.5-0.3,1.9-0.9L116.8,48.8z"/>
	<path d="M118.6,49.9h-0.9v-7.6h0.9V49.9z"/>
	<path d="M122.3,50c-1.4,0-2.5-1-2.5-2.5c0-1.5,1.1-2.5,2.5-2.5s2.6,1,2.6,2.5C124.9,48.9,123.8,50,122.3,50z M122.3,45.8
		c-1,0-1.6,0.8-1.6,1.7c0,0.9,0.6,1.7,1.6,1.7c1,0,1.6-0.8,1.6-1.7C123.9,46.6,123.3,45.8,122.3,45.8z"/>
	<path d="M129.4,49.9c0-0.2,0-0.6,0-0.8h0c-0.2,0.5-0.9,0.9-1.5,0.9c-1.2,0-1.8-0.9-1.8-1.9v-2.9h0.9v2.6c0,0.8,0.2,1.5,1.1,1.5
		c0.7,0,1.3-0.6,1.3-1.6v-2.5h0.9v3.7c0,0.2,0,0.7,0,1H129.4z"/>
	<path d="M133.8,50c-1.5,0-2.4-1.1-2.4-2.5c0-1.4,1-2.5,2.4-2.5c0.8,0,1.4,0.4,1.7,0.8h0v-3.5h0.9v7.6h-0.9v-0.7h0
		C135.1,49.7,134.4,50,133.8,50z M133.9,49.2c1,0,1.6-0.8,1.6-1.7s-0.6-1.7-1.6-1.7c-1,0-1.6,0.8-1.6,1.7
		C132.4,48.4,132.9,49.2,133.9,49.2z"/>
</g>
<g id="Working_2_">
	<rect x="45.4" y="29.7" width="31.4" height="31.4"/>
</g>
<rect x="45" y="29.7" class="st26" width="701.7" height="558"/>
<g>
	<g>
		<path class="st6" d="M61.2,50.4c-3.2,0-5.9-1-8.4-3c-0.2-0.1-0.3-0.3-0.4-0.4c-0.1-0.1-0.2-0.2-0.1-0.3c0.1-0.1,0.2,0,0.3,0
			c1.1,0.7,2.3,1.2,3.5,1.6c1,0.3,1.9,0.5,2.9,0.7c0.9,0.1,1.8,0.2,2.7,0.2c2.2-0.1,4.3-0.5,6.4-1.4c0.1,0,0.1-0.1,0.2-0.1
			c0.2-0.1,0.3,0,0.4,0.1c0.1,0.1,0,0.3-0.1,0.3c-0.5,0.3-0.9,0.6-1.4,0.9c-1.2,0.6-2.5,1-3.9,1.2C62.5,50.3,61.8,50.4,61.2,50.4z"
			/>
		<path class="st6" d="M60,43.9c0.1-0.4,0.2-0.7,0.3-1.1c0.2-0.9,0.4-1.9,0.7-2.8c0.1-0.3,0.1-0.3,0.4-0.3c0.1,0,0.3,0,0.4,0
			c0.2,0,0.3,0.1,0.4,0.3c0.1,0.5,0.2,0.9,0.3,1.4c0.2,0.9,0.4,1.7,0.6,2.6c0,0,0-0.1,0-0.1c0.3-1.2,0.6-2.5,1-3.7
			c0.1-0.3,0.1-0.4,0.5-0.4c0.1,0,0.3,0,0.4,0c0.1,0,0.2,0.1,0.2,0.2c0,0.1,0,0.1,0,0.2c-0.5,1.5-1,3.1-1.5,4.6
			C63.5,45,63.5,45,63.2,45c-0.1,0-0.3,0-0.4,0c-0.2,0-0.3-0.1-0.4-0.3c-0.2-0.9-0.4-1.7-0.6-2.6c-0.1-0.4-0.2-0.8-0.3-1.1
			c0,0,0-0.1,0-0.1c-0.1,0.6-0.3,1.1-0.4,1.7c-0.2,0.7-0.3,1.4-0.5,2.2C60.5,45,60.4,45,60.1,45c-0.1,0-0.3,0-0.4,0
			c-0.2,0-0.3,0-0.4-0.3c-0.3-1-0.6-2-0.9-3c-0.2-0.5-0.3-1.1-0.5-1.6c-0.1-0.3-0.1-0.4,0.3-0.4c0.1,0,0.2,0,0.4,0
			c0.3,0,0.3,0,0.4,0.3c0.1,0.5,0.3,1.1,0.4,1.6c0.2,0.7,0.4,1.4,0.5,2.1C59.9,43.8,59.9,43.9,60,43.9C59.9,43.9,60,43.9,60,43.9z"
			/>
		<path class="st6" d="M67.4,45.2c-0.5,0-1-0.1-1.4-0.3c-0.4-0.1-0.5-0.4-0.4-0.8c0-0.1,0.1-0.1,0.2-0.1c0.3,0.1,0.5,0.2,0.8,0.3
			c0.4,0.1,0.9,0.1,1.3,0c0.3-0.1,0.5-0.2,0.6-0.5c0.1-0.3,0-0.6-0.3-0.7c-0.2-0.1-0.4-0.2-0.6-0.3c-0.3-0.1-0.7-0.2-1-0.3
			c-0.5-0.2-0.8-0.6-0.9-1.1c-0.1-0.7,0.2-1.2,0.8-1.6c0.5-0.3,1.1-0.3,1.6-0.2c0.3,0,0.5,0.1,0.8,0.2c0.3,0.1,0.4,0.5,0.3,0.8
			c0,0.1-0.1,0.1-0.2,0.1c-0.2-0.1-0.5-0.2-0.7-0.2c-0.4-0.1-0.7-0.1-1.1,0c-0.4,0.1-0.6,0.4-0.5,0.8c0.1,0.2,0.2,0.3,0.3,0.4
			c0.2,0.1,0.5,0.2,0.7,0.3c0.3,0.1,0.6,0.2,0.9,0.3c0.6,0.2,0.9,0.6,1,1.2c0,0.6-0.2,1.1-0.8,1.4C68.3,45.1,67.9,45.2,67.4,45.2z"
			/>
		<path class="st6" d="M68.5,47c-0.4,0-0.9,0.1-1.3,0.1c-0.1,0-0.1,0-0.2,0c0-0.1,0-0.1,0.1-0.2c0.3-0.2,0.6-0.3,1-0.4
			c0.6-0.1,1.2-0.2,1.8,0c0,0,0.1,0,0.1,0c0.3,0.1,0.4,0.2,0.4,0.6c-0.1,0.7-0.2,1.3-0.6,1.9c-0.1,0.2-0.3,0.4-0.5,0.6
			c0,0,0,0-0.1,0c-0.1,0-0.1,0-0.2,0c0-0.1,0-0.1,0-0.2c0.1-0.4,0.3-0.7,0.4-1.1c0.1-0.2,0.1-0.5,0.2-0.7c0.1-0.3-0.1-0.5-0.4-0.6
			C68.9,47,68.7,47,68.5,47z"/>
	</g>
	<g>
		<path class="st6" d="M57.5,44.4c-0.2-0.3-0.3-0.7-0.3-1.1c0-0.7,0-1.4,0-2.2c0-0.9-0.6-1.4-1.4-1.5c-0.8-0.1-1.5,0-2.2,0.3
			c-0.2,0.1-0.4,0.2-0.3,0.5c0,0.4,0,0.4,0.4,0.3c0.5-0.2,1-0.3,1.6-0.3c0.5,0,0.8,0.3,0.9,0.7c0.1,0.3,0.1,0.6,0.1,1
			c-0.1,0-0.2,0-0.2,0c-0.5-0.1-1.1-0.2-1.6-0.1C53.6,42,53,42.6,53,43.4c-0.1,0.9,0.3,1.6,1.2,1.7c0.8,0.2,1.5,0,2.1-0.6
			c0.1-0.1,0.1-0.1,0.2-0.2c0.1,0.1,0.1,0.2,0.2,0.3c0.1,0.1,0.1,0.2,0.2,0.3c0.1,0.1,0.2,0.1,0.3,0c0.1-0.1,0.2-0.2,0.4-0.2
			C57.6,44.7,57.6,44.6,57.5,44.4z M55.9,44c-0.4,0.3-0.9,0.4-1.4,0.3c-0.3-0.1-0.5-0.2-0.5-0.5c-0.2-0.6,0.1-1.1,0.7-1.2
			c0.5-0.1,1,0,1.5,0.1C56.3,43.2,56.3,43.7,55.9,44z"/>
	</g>
</g>
</svg>
